<svg xmlns="http://www.w3.org/2000/svg" width="24.645" height="24.877" viewBox="0 0 24.645 24.877">
  <g id="Group_7" data-name="Group 7" transform="translate(-273.646 -282.297)">
    <path id="Path_7" data-name="Path 7" d="M298.123,382.648a.883.883,0,0,0-.583-.361h0a16.764,16.764,0,0,0-7.2.432,15.617,15.617,0,0,0-4.144,1.886l-.221.143-.221-.143a15.611,15.611,0,0,0-4.144-1.886,16.64,16.64,0,0,0-7.218-.43.884.884,0,0,0-.573.36.808.808,0,0,0,.2,1.167.873.873,0,0,0,.666.138,14.15,14.15,0,0,1,10.8,2.511.814.814,0,0,0,.984,0,14.149,14.149,0,0,1,10.793-2.51.874.874,0,0,0,.667-.138.808.808,0,0,0,.2-1.167Z" transform="translate(0 -79.455)" fill="#04324f"/>
    <path id="Path_8" data-name="Path 8" d="M274.77,299.559a14.151,14.151,0,0,1,10.768,2.5l.044.027h.087l.073.029a.789.789,0,0,0,.612,0l.076-.03.1-.007.024-.018a14.263,14.263,0,0,1,5.109-2.4,14.042,14.042,0,0,1,5.665-.22.844.844,0,0,0,.708-.2.823.823,0,0,0,.311-.678V283.331a.894.894,0,0,0-.221-.537.755.755,0,0,0-.49-.258l-.019,0a16.032,16.032,0,0,0-7.207.4,15.607,15.607,0,0,0-4.144,1.886l-.217.14-.219-.136a16.719,16.719,0,0,0-4.18-1.86,16.238,16.238,0,0,0-7.178-.371.92.92,0,0,0-.524.308.822.822,0,0,0-.2.571v15.239a.791.791,0,0,0,.311.647A.842.842,0,0,0,274.77,299.559Zm.721-2.024v-13.5l.387-.019c.414-.02.843-.021,1.281,0a14.147,14.147,0,0,1,7.832,2.353l.183.121v13.209l-.6-.317a15.7,15.7,0,0,0-7.429-1.842Zm21.113-13.5V297.6h-1.657a15.919,15.919,0,0,0-7.431,1.813l-.6.31V286.485l.183-.121a14.149,14.149,0,0,1,7.837-2.353c.432-.02.862-.02,1.277,0Z" transform="translate(-0.08 0)" fill="#04324f"/>
  </g>
</svg>