<svg xmlns="http://www.w3.org/2000/svg" width="56.14" height="39.298" viewBox="0 0 56.14 39.298">
  <g id="Group_315" data-name="Group 315" transform="translate(-44.053 -275.772)">
    <g id="edit" transform="translate(44.053 275.772)">
      <g id="Group_304" data-name="Group 304" transform="translate(5.614 0)">
        <path id="Path_33" data-name="Path 33" d="M30,35.446a5.614,5.614,0,1,1,0-2.807H68.075a1.4,1.4,0,1,1,0,2.807Zm-2.63-1.4a2.807,2.807,0,1,1-2.807-2.807A2.807,2.807,0,0,1,27.374,34.043Z" transform="translate(-18.953 -28.429)" fill-rule="evenodd"/>
      </g>
      <g id="Group_305" data-name="Group 305" transform="translate(0 4.21)">
        <path id="Path_34" data-name="Path 34" d="M1.4,45.45H5.791a5.658,5.658,0,0,1,0-2.807H1.4a1.4,1.4,0,1,0,0,2.807Z" transform="translate(0 -42.643)"/>
      </g>
      <g id="Group_306" data-name="Group 306" transform="translate(0 28.07)">
        <path id="Path_35" data-name="Path 35" d="M33.507,127.4a5.616,5.616,0,0,0-10.874,0H1.4a1.4,1.4,0,1,0,0,2.807H22.633a5.616,5.616,0,0,0,10.874,0H54.736a1.4,1.4,0,1,0,0-2.807Zm-5.437,4.21a2.807,2.807,0,1,0-2.807-2.807A2.807,2.807,0,0,0,28.07,131.612Z" transform="translate(0 -123.191)" fill-rule="evenodd"/>
      </g>
      <g id="Group_307" data-name="Group 307" transform="translate(0 14.035)">
        <path id="Path_36" data-name="Path 36" d="M50.349,80.02a5.616,5.616,0,0,0-10.874,0H1.4a1.4,1.4,0,0,0,0,2.807H39.475a5.616,5.616,0,0,0,10.874,0h4.387a1.4,1.4,0,0,0,0-2.807Zm-5.437,4.21a2.807,2.807,0,1,0-2.807-2.807A2.807,2.807,0,0,0,44.912,84.231Z" transform="translate(0 -75.81)" fill-rule="evenodd"/>
      </g>
    </g>
  </g>
</svg>
