<?xml version="1.0" encoding="utf-8"?>
<!-- Generator: Adobe Illustrator 27.0.1, SVG Export Plug-In . SVG Version: 6.00 Build 0)  -->
<svg version="1.1" id="Layer_1" xmlns="http://www.w3.org/2000/svg" xmlns:xlink="http://www.w3.org/1999/xlink" x="0px" y="0px"
	 viewBox="0 0 1323.86 201.52" style="enable-background:new 0 0 1323.86 201.52;" xml:space="preserve">
<style type="text/css">
	.st0{fill:#FC0101;}
	.st1{fill:url(#SVGID_1_);}
	.st2{fill:url(#SVGID_00000013872743265915114040000011689066792959125933_);}
	.st3{fill:url(#SVGID_00000110444258581917882170000013802123769887494280_);}
	.st4{fill:url(#SVGID_00000063601694645967763580000003039835633584521094_);}
	.st5{fill:url(#SVGID_00000158030425150929280090000008198213218405313450_);}
	.st6{fill:url(#SVGID_00000090975886782395613790000015303630042712913287_);}
	.st7{fill:url(#SVGID_00000023999571318793640820000016343483990018985878_);}
</style>
<g>
	<path d="M564.05,156.17c1.74,0,3.14,1.4,3.14,3.14v12.71c0,1.74-1.4,3.14-3.14,3.14h-9.8v-18.98h9.8V156.17z M558.38,159.93v11.46
		h4.39c0.17,0,0.28-0.11,0.28-0.28v-10.89c0-0.17-0.11-0.29-0.28-0.29L558.38,159.93L558.38,159.93z"/>
	<path d="M577.99,168.17h-2.82v6.98h-4.13v-18.98h10.55c1.74,0,3.13,1.4,3.13,3.14v5.73c0,1.43-0.94,2.62-2.25,3.02l3.36,7.1h-4.53
		L577.99,168.17z M575.17,159.93v4.47h5.16c0.17,0,0.28-0.11,0.28-0.28v-3.9c0-0.17-0.11-0.29-0.28-0.29L575.17,159.93
		L575.17,159.93z"/>
	<path d="M604.24,175.15h-4.22l-1.2-3.76h-5.84l-1.14,3.76h-4.22l6.21-18.98H598L604.24,175.15z M594.21,167.74h3.42l-1.71-6.33
		L594.21,167.74z"/>
	<path d="M612.51,164.81h6.93v7.21c0,1.74-1.4,3.14-3.13,3.14h-6.7c-1.74,0-3.14-1.4-3.14-3.14V159.3c0-1.74,1.4-3.14,3.14-3.14
		h6.67c1.74,0,3.13,1.4,3.13,3.14v2.31l-4.05,0.68v-2.08c0-0.17-0.11-0.29-0.28-0.29h-4.19c-0.17,0-0.28,0.11-0.28,0.29v10.89
		c0,0.17,0.11,0.28,0.28,0.28h4.22c0.17,0,0.28-0.11,0.28-0.28v-2.71h-2.88L612.51,164.81L612.51,164.81z"/>
	<path d="M629.1,156.17h4.13v15.22h7.55v3.76H629.1V156.17z"/>
	<path d="M643.64,156.17h11.8v3.76h-7.67v3.62h7.07v3.76h-7.07v4.08h7.7v3.76h-11.83V156.17z"/>
	<path d="M658.89,175.15v-18.98h11.97v3.76h-7.84v3.62h7.21v3.76h-7.21v7.84L658.89,175.15L658.89,175.15z"/>
	<path d="M672.29,156.17h13.94v3.76h-4.9v15.22h-4.13v-15.22h-4.9L672.29,156.17L672.29,156.17z"/>
	<path d="M688.9,178.49h-3.25l8.24-22.6h3.25L688.9,178.49z"/>
	<path d="M706.8,168.17h-2.82v6.98h-4.13v-18.98h10.55c1.74,0,3.13,1.4,3.13,3.14v5.73c0,1.43-0.94,2.62-2.25,3.02l3.36,7.1h-4.53
		L706.8,168.17z M703.98,159.93v4.47h5.16c0.17,0,0.28-0.11,0.28-0.28v-3.9c0-0.17-0.11-0.29-0.28-0.29L703.98,159.93L703.98,159.93
		z"/>
	<path d="M721.77,175.15h-4.13v-18.98h4.13V175.15z"/>
	<path d="M731.8,164.81h6.93v7.21c0,1.74-1.4,3.14-3.13,3.14h-6.7c-1.74,0-3.14-1.4-3.14-3.14V159.3c0-1.74,1.4-3.14,3.14-3.14h6.67
		c1.74,0,3.13,1.4,3.13,3.14v2.31l-4.05,0.68v-2.08c0-0.17-0.11-0.29-0.28-0.29h-4.19c-0.17,0-0.28,0.11-0.28,0.29v10.89
		c0,0.17,0.11,0.28,0.28,0.28h4.22c0.17,0,0.29-0.11,0.29-0.28v-2.71h-2.88L731.8,164.81L731.8,164.81z"/>
	<path d="M751.9,167.4h-5.47v7.75h-4.13v-18.98h4.13v7.47h5.47v-7.47h4.13v18.98h-4.13V167.4z"/>
	<path d="M758.74,156.17h13.94v3.76h-4.9v15.22h-4.13v-15.22h-4.9L758.74,156.17L758.74,156.17z"/>
</g>
<ellipse transform="matrix(0.1602 -0.9871 0.9871 0.1602 271.8564 649.6089)" class="st0" cx="517.69" cy="165.04" rx="9.84" ry="9.84"/>
<circle class="st0" cx="803.04" cy="165.04" r="6.64"/>
<g>
	
		<linearGradient id="SVGID_1_" gradientUnits="userSpaceOnUse" x1="1090.9053" y1="99.695" x2="1465.9053" y2="99.695" gradientTransform="matrix(1 0 0 -1 0 204)">
		<stop  offset="0" style="stop-color:#FC0000;stop-opacity:0"/>
		<stop  offset="0.1413" style="stop-color:#FC0000;stop-opacity:0.1413"/>
		<stop  offset="1" style="stop-color:#FC0000"/>
	</linearGradient>
	<path class="st1" d="M1278.44,103.95c0.03,0.24,0.05,0.47,0.05,0.71C1278.49,104.42,1278.47,104.18,1278.44,103.95L1278.44,103.95z
		"/>
	
		<linearGradient id="SVGID_00000015343854967194715840000014776474992941648058_" gradientUnits="userSpaceOnUse" x1="-1044.0977" y1="132.445" x2="-425.9877" y2="132.445" gradientTransform="matrix(-1 0 0 -1 -400.4277 204)">
		<stop  offset="0" style="stop-color:#FC0000;stop-opacity:0"/>
		<stop  offset="0.5533" style="stop-color:#FC0000;stop-opacity:1.904341e-08"/>
		<stop  offset="0.6444" style="stop-color:#FC0000;stop-opacity:2.217805e-08"/>
		<stop  offset="0.9493" style="stop-color:#FC0000;stop-opacity:0.8573"/>
		<stop  offset="1" style="stop-color:#FC0000"/>
	</linearGradient>
	<path style="fill:url(#SVGID_00000015343854967194715840000014776474992941648058_);" d="M25.56,103.95h9.03
		c3.96-32.05,274.99-57.92,609.08-58v-6.79c-162.9,0.04-316.05,6.16-431.39,17.25C47.91,72.2,26.28,90.96,25.56,103.95z"/>
	
		<linearGradient id="SVGID_00000111912947194491113280000003341562102558726549_" gradientUnits="userSpaceOnUse" x1="-622.5452" y1="99.695" x2="-247.4746" y2="99.695" gradientTransform="matrix(-1 0 0 -1 -400.4277 204)">
		<stop  offset="0" style="stop-color:#FC0000;stop-opacity:0"/>
		<stop  offset="0.1413" style="stop-color:#FC0000;stop-opacity:0.1413"/>
		<stop  offset="1" style="stop-color:#FC0000"/>
	</linearGradient>
	<path style="fill:url(#SVGID_00000111912947194491113280000003341562102558726549_);" d="M34.58,103.95L34.58,103.95
		c-0.03,0.24-0.05,0.47-0.05,0.71C34.54,104.42,34.55,104.18,34.58,103.95z"/>
	
		<linearGradient id="SVGID_00000183233300918187311340000006378346605520366251_" gradientUnits="userSpaceOnUse" x1="-1044.092" y1="67.655" x2="-425.9613" y2="67.655" gradientTransform="matrix(-1 0 0 -1 -400.4277 204)">
		<stop  offset="0" style="stop-color:#FC0000;stop-opacity:0"/>
		<stop  offset="0.8587" style="stop-color:#FC0000;stop-opacity:0.8587"/>
		<stop  offset="1" style="stop-color:#FC0000"/>
	</linearGradient>
	<path style="fill:url(#SVGID_00000183233300918187311340000006378346605520366251_);" d="M25.56,103.95
		c-0.01,0.24-0.02,0.48-0.02,0.71c0,13.01,19.36,32.16,186.74,48.25c83.25,8,186.19,13.42,298.28,15.83v-6.8
		c-272.48-5.9-476.02-29.3-476.02-57.28c0-0.24,0.02-0.47,0.05-0.71L25.56,103.95L25.56,103.95z"/>
	<path class="st0" d="M25.56,103.95c-0.01,0.24-0.02,0.48-0.02,0.71c0,13.01,19.36,32.16,186.74,48.25
		c83.25,8,186.19,13.42,298.28,15.83v-6.8c-272.48-5.9-476.02-29.3-476.02-57.28c0-0.24,0.02-0.47,0.05-0.71L25.56,103.95
		L25.56,103.95z"/>
</g>
<g>
	
		<linearGradient id="SVGID_00000106129486491130137340000003842569277485244327_" gradientUnits="userSpaceOnUse" x1="1810.7352" y1="98.985" x2="2185.7354" y2="98.985" gradientTransform="matrix(-1 0 0 -1 2033.7727 204)">
		<stop  offset="0" style="stop-color:#FC0000;stop-opacity:0"/>
		<stop  offset="0.1413" style="stop-color:#FC0000;stop-opacity:0.1413"/>
		<stop  offset="1" style="stop-color:#FC0000"/>
	</linearGradient>
	<path style="fill:url(#SVGID_00000106129486491130137340000003842569277485244327_);" d="M35.5,104.66
		c-0.03,0.24-0.05,0.47-0.05,0.71C35.46,105.13,35.47,104.89,35.5,104.66L35.5,104.66z"/>
	
		<linearGradient id="SVGID_00000041295820382488818650000007547631887799397300_" gradientUnits="userSpaceOnUse" x1="-1342.3752" y1="98.985" x2="-967.3046" y2="98.985" gradientTransform="matrix(1 0 0 -1 2434.2004 204)">
		<stop  offset="0" style="stop-color:#FC0000;stop-opacity:0"/>
		<stop  offset="0.1413" style="stop-color:#FC0000;stop-opacity:0.1413"/>
		<stop  offset="1" style="stop-color:#FC0000"/>
	</linearGradient>
	<path style="fill:url(#SVGID_00000041295820382488818650000007547631887799397300_);" d="M1279.36,104.66L1279.36,104.66
		c0.03,0.24,0.05,0.47,0.05,0.71C1279.41,105.13,1279.39,104.89,1279.36,104.66z"/>
</g>
<linearGradient id="SVGID_00000121244984763334665260000017632459026139780738_" gradientUnits="userSpaceOnUse" x1="-1603.8906" y1="132.445" x2="-985.7806" y2="132.445" gradientTransform="matrix(1 0 0 -1 2270.7568 204)">
	<stop  offset="0" style="stop-color:#FC0000;stop-opacity:0"/>
	<stop  offset="0.5533" style="stop-color:#FC0000;stop-opacity:1.904341e-08"/>
	<stop  offset="0.6444" style="stop-color:#FC0000;stop-opacity:2.217805e-08"/>
	<stop  offset="0.9493" style="stop-color:#FC0000;stop-opacity:0.8573"/>
	<stop  offset="1" style="stop-color:#FC0000"/>
</linearGradient>
<path style="fill:url(#SVGID_00000121244984763334665260000017632459026139780738_);" d="M1098.26,56.41
	C982.92,45.32,829.77,39.2,666.87,39.16v6.79c334.09,0.08,605.12,25.95,609.08,58h9.03C1284.26,90.96,1262.63,72.2,1098.26,56.41z"
	/>
<path class="st0" d="M1284.98,103.95l-9.03,0c0.03,0.24,0.05,0.47,0.05,0.71c0,27.98-203.54,51.38-476.02,57.28v6.8
	c112.09-2.41,215.03-7.83,298.28-15.83c167.38-16.09,186.74-35.24,186.74-48.25C1285,104.43,1284.99,104.19,1284.98,103.95
	L1284.98,103.95z"/>
</svg>
