<?xml version="1.0" encoding="UTF-8"?><svg id="Layer_1" xmlns="http://www.w3.org/2000/svg" viewBox="0 0 333.93 134.4"><defs><style>.cls-1{fill:#231f20;}</style></defs><g id="Layer_1-2"><path class="cls-1" d="M72.03,97.01c-.5.6-1,1-1.4,1.6-6.3,9.3-15.3,12.6-25.9,10.8-9.9-1.7-16.3-8.1-19.1-17.8-.2-.7-.7-1.3-.8-2-.4-2.4-2-2.9-4.1-2.9H3.03c-2.5,0-3.4,1.3-2.9,3.6.6,2.5,1.3,5,2,7.5,7.6,26.7,33.1,41.7,60,35,8.7-2.2,16.1-6.5,22.5-12.8,1.2-1.2,2.3-2.3.9-4.2-4.4-6-8.7-12.2-13.5-18.8Z"/><path class="cls-1" d="M81.13,34.51c-1.6,2.8-1.5,4.3,1.2,6.5,3.7,2.9,6.8,6.5,10.1,10,1.7,1.8,3.1,4,5,6.4.9-2.4,1.6-4.1,2.2-5.8,8-20.6,29.9-33,54.1-25.3,18.6,5.9,30.8,23.9,28.9,44.7-.3,3,.8,3.8,3.4,3.8h17.1c2.3,0,3.6-.8,3.6-3.3,0-4.7.4-9.6-.3-14.2C199.13,13.61,155.83-9.39,118.03,3.91c-16.1,5.7-28.3,16-36.8,30.7l-.1-.1Z"/><path class="cls-1" d="M124.73,127.81c3.5-5.8,3.1-19,3.1-19,0,0-20.5-2.8-30.7-34.9-3.5-15.3-12.9-26.1-27-32.7-1.4-.7-2.8-1.3-4.7-2.2,11.3-12.9,22.1-25.4,33.5-38.5-2.2-.2-3.3-.4-4.4-.4H14.13c-.9,0-2.1-.3-2.8.1-1.1.5-2.6,1.6-2.6,2.4-.2,6.2-.1,12.3-.2,18.5,0,2,.9,3.1,3,3.1h34.8c-6.4,7.3-11.7,13.3-17.1,19.3-1.8,2-2.3,3.8-.6,6.2,1.8,2.5,3.2,5.3,4.7,7.9,2.07,3.53,5.13,4.87,9.2,4,16.1-3.4,27.5,3.8,31.9,20.1,7.1,24.3,25.7,40.2,37.3,45.2,2.7,1.2,10.9,4,13.1.7l-.1.2Z"/><path class="cls-1" d="M161.63,87.11h13.5l-20.1,42.2h-13.5l7-14.8-13.6-27.4h14.2l6.4,15.1,6.2-15.1h-.1Z"/><path class="cls-1" d="M180.93,129.31v-42.2h26.1v9.4h-14v7.4h14v9h-14v7.1h14v9.4h-26.1v-.1Z"/><path class="cls-1" d="M239.83,129.31l-1.3-4.9h-13.1l-1.3,4.9h-12.5l13.9-42.2h13l13.8,42.2h-12.5,0ZM227.83,115.31h8.5l-4.2-16.4-4.2,16.4h-.1Z"/><path class="cls-1" d="M287.73,116.01l6.5,13.3h-13.9l-5.2-10.8h-3.4v10.8h-12.1v-42.2h19.6c8.7,0,15.1,6.7,15.1,15.7s-2.6,10.5-6.7,13.2h.1ZM271.83,96.91v11.9h5c3.1,0,5.4-2.5,5.4-6s-2.3-6-5.3-6h-5l-.1.1Z"/><path class="cls-1" d="M300.53,115.51h12.1c0,3.6,1.9,5.9,5.2,5.9s4.1-1.3,4.1-3.5-1.1-3-3.8-4l-8.1-3.1c-5.8-2.2-8.7-6.3-8.7-11.9s6-13,15.9-13,16.3,5.1,16.3,13.5h-12.1c0-3.1-1.6-4.9-4.3-4.9s-3.7,1.2-3.7,3.2,1.1,2.8,4.5,4.1l7.4,3c6.1,2.5,8.6,6.5,8.6,12.2,0,8.6-6.3,13.9-16.3,13.9s-17-5.7-17-15.1l-.1-.3Z"/></g></svg>