<svg id="Layer_1" data-name="Layer 1" xmlns="http://www.w3.org/2000/svg" viewBox="0 0 2054.33 784.03"><path d="M19.21,289c2-4.55,4.19-8.68,9.57-9.64h6.44a78,78,0,0,0,24.89,9l8.87-5.2q55.22,0,110.13,0,37,0,74-.18c3,0,5.87.25,8.83-1,2-.84,4.55-.56,6.86-.57q53.49-.24,107-.42c3.61,0,7.23.49,10.77-1.29,1.62-.81,3.93-.27,5.92-.28,7.67,0,15.34.08,23-.15,5.25-.15,10.44-.22,15.75-1.47s11.07-1.34,16.59-2.47c8.68-1.78,17.32-3.66,25.91-5.9A269,269,0,0,0,504.53,259a180.29,180.29,0,0,0,37.4-20.23c2.73-3.9,6.8-6.05,10.76-8.4a27.67,27.67,0,0,1,11.68-3.66c1-3.24,1.31-7.21,5.48-8.83,7.47-.5,15.11-.42,22.74-.43h22.75l7.29-5.45V199.7c-3.78-1-7.43-.41-11-.52s-7.33,0-10.91,0l-5.25-2.77a17.2,17.2,0,0,1-.6-3.15q0-39,0-78a17.08,17.08,0,0,1,.64-3.15l5.51-2.84h20.34c1.81-1.44,1.57-3.17,1.57-4.8q0-13,0-26V72.13l4.87-1.31c.32-.56.91-1.11.91-1.67.1-13,.11-26,.17-39,0-3.3.13-6.61.2-9.89l3.21-2.94h21.46c.49.83,1.06,2,1.77,3A32.31,32.31,0,0,0,657.87,23c8,0,16.31,0,24.61,0,7.94,0,15.88-.12,23.89.11.58,2.1,1,3.64,1.43,5.17.54.33,1.07.92,1.61.92q20,.15,40,.14a14.12,14.12,0,0,0,3.18-.84V18.58c1.27-.59,2.11-1.33,3-1.33,10-.08,20-.05,30-.05l5.23,4.91c1.3,8.12-1.3,16.71,3.53,24.91,4.24.85,9.28-.44,13.92.64a96.17,96.17,0,0,1,0,27.43c-4.41,1-9.09,0-13.61.62-1.74,1.09-1.46,2.84-1.47,4.45,0,4.64,0,9.28,0,13.38,1.62,2.11,3.38,1.71,5,1.74,3,.06,6,0,9,0q178.49,0,357,.12A76.67,76.67,0,0,1,1175,96c9.47,1.36,16.09,7.28,22.76,13.08,4.73,4.11,9.57,8.3,12.44,14.14a2.57,2.57,0,0,0,.67.73c6.72,6,11.92,13.35,18,19.91,7.23,7.78,14.59,15.49,21.26,23.74,5,6.2,10.94,11.64,15.75,17.9,7.08,9.25,16.35,16.49,22.9,26.17,1.84,2.72,4.62,4.79,6.88,7.24,1.56,1.69,3,3.51,5.3,6.27l7.67,2.82c.25,1.78.58,4,1.09,7.52l3.26,2.84a13.54,13.54,0,0,0,2.54.61q15.51.08,31,.06,137,0,274,0c6.26,0,12.64.91,18.71-1.52,8.67,0,17.4-.62,26,.25a29.72,29.72,0,0,1,15,6.28l3.16,4.3a21.77,21.77,0,0,1,4.13,9.91c.83,5.5,2.52,10.86,3.88,16.28,2.08,8.27,3.37,16.74,6,24.87a13.63,13.63,0,0,0,1.88,3c8.93.79,49.07.84,59.73.09l3.12-4.57a6.18,6.18,0,0,1,1.79-.54c6.33-.07,12.66,0,19-.13,4-.09,7.94.13,11.5,2.55,5.41-2.4,11-2.73,16.62-2.55,5,.15,10,0,14.76,0l6.09,5.52c1.84.87,78.5,1.17,115.42.51l5.42-4.28h17.68a5.17,5.17,0,0,1,2,.11c7.66,3.51,15.7,1.24,23.27,1.89l5.06-3.6h64.68c4.36,2,6,5.68,7.8,10,0,11.68.1,24-.05,36.34-.06,5-1.29,9.75-5.65,13.77h-32.63c-10-3.76-20.37-1.47-30.55-2.09-2.63-.16-5.24.26-7.77-1.22-1.31-.76-3.18-.75-4.8-.78-5.33-.09-10.66,0-16.11,0-2,.9-4.2,1.73-6.23,2.8-2.22,1.17-4.91,1.65-6.73.6-3.46-2-7.3-.45-11.26-2.15-1.32-2-2.9-4.45-4.71-7.21-38-.23-76,.15-114.17,0l-6.78,5.85c-7.34,0-14.68-.26-22,.12-3,.16-4.89-1.94-7-2.08l-11.32,2.95v20c-1,1-2,1.91-2.87,2.8-6.5-2.1-12.6-2.49-18.73-.64a5.08,5.08,0,0,1-2.82-4.88c0-6.34,0-12.67-.17-19,0-1.51-.92-3-1.35-4.28-9.3-1.11-42.23-1.13-46.23,0-.54.15-.91.91-1.59,1.63v16.92c3.74,2.17,7.54,3.92,11.85,4.05,5,.16,10,0,15,.07,1.92,0,3.85.32,5.8.49,1.56,3.63.77,6.95.93,10.27l-2.89,3.18h-20.9a36.65,36.65,0,0,1-4.79,3.61,21,21,0,0,1-4.67,1.27c-1.52,2.51-.38,5.28-1,7.93-1.39,2.47-2,5.59-5.52,7.41H1687.7l-2.79-2.58V388.17l-2.84-.55c-1.63,1.9-1,4-1.08,5.9s0,4,0,6.28l-4.15,4.75a10.79,10.79,0,0,1-2.36.68c-14.67,0-29.33,0-44.06,0-3.28-1.25-2.72-4.84-4.26-7.7-1.55,0-3.16-.1-4.78-.1q-50,0-100,0c-3.3,0-6.5-.05-9.78,1.28-2.31.93-5.26.31-7.92.31q-55,.06-110,.09l-290,.18c-3,0-6.4-.76-8.9.39-4.65,2.15-9.77,1.24-14.44,3.37a118.89,118.89,0,0,0-11.48,5.69c-2.56,1.5-5.08,3.06-7.38,4.45h-10.73l-6.65-5.47c-1.56.8-3.31,1.27-4.47,2.36-6,5.69-13.26,10-18.67,16.42-7.48,8.83-15,17.61-19.68,28.4a43.76,43.76,0,0,0-2.5,7.45c-1.2,5.09-3.4,9.94-5.34,15.32,1.36,8.26,3.13,16.94,3.88,25.83.57,6.9,2.14,13.72,1.89,20.71,3,5.06.72,11.21,3.43,16.37.57,1.08.24,2.61.4,3.93.57,4.57-.49,9.22,1.41,13.79,1.62,3.92.82,8.37,2.1,12.63,1.39,4.61,1.36,9.73,2.48,14.58,2.27,9.91,2.1,20.29,5.82,29.92-.54,4.44,2.54,8.31,2.17,12.62-.37,4.15,1.68,7.72,2.11,11.66a94.85,94.85,0,0,0,2,9.64c1.89,8.66,3.55,17.38,6.76,25.68.24.62.87,1.18.88,1.77.06,10.61,6.5,19.29,8.87,29.21.66,2.74,3,5.12,4.6,7.59a46.06,46.06,0,0,1,6.75,14.18c.56,2.21,1.42,4.35,2.27,6.93-1,2.15-2.2,4.48-3.52,7.16-7.11,3.12-14.33,6.29-21.56,9.43-2.12.92-4.33,1.63-6.39,2.66-11.8,5.93-24.09,10.8-36.08,16.27-10.5,4.79-21.18,9.19-31.51,14.43-10.84,5.49-22.45,9.45-33.82,13.84-3.34,1.29-7,1.75-10.91,2.68L902.17,799a56.74,56.74,0,0,1-7-16.47c.85-5.71,5.91-6.53,9.31-9.66-3-7.81-4.3-16.18-7.35-24.1-3.78-9.81-5.33-20.35-9.35-30.11-.12-.3-.45-.59-.44-.88.4-11.14-5.89-20.89-6.54-31.87-.23-3.83-2.12-7.54-3.15-11.34-1.29-4.76-2.84-9.4-2.88-14.5,0-3.88-1.21-7.79-2.21-11.6a222.43,222.43,0,0,1-5.75-28c-1-7.43-2.8-14.82-4.42-22.18a37.61,37.61,0,0,1-1.33-8.75c.14-8-1.4-15.73-3.5-23.38a3.4,3.4,0,0,1-.24-.95c.5-7.36-2.52-14.34-2.27-21.69.11-3.27.43-6.68-1.59-9.69a3.3,3.3,0,0,1-.23-1.95c.52-7.35-1.89-14.33-2.57-21.87l-6.84-1.19c-.5-1.61-1-3.14-1.65-5.24a30.27,30.27,0,0,0-4.76,13.68,28.77,28.77,0,0,1-2.89,9.39c-1,2.12-2.7,4-3,6.22-.8,5.45-4.37,7.89-9.48,9.82l-6.51-3.38c-1-7.21.15-14.19-.5-21.94a57.3,57.3,0,0,1-5.12,3.79,37,37,0,0,1-4.69,1.94c-5.45.51-11.12-.24-16.6,1.87-2.05.79-4.62.23-6.94.37-3.29.19-6.64-.3-9.77,1.45-1.05.59-2.59.36-3.91.45-4.27.28-8.58-.19-12.73,1.68-1.69.76-4,.19-6,.36-3.92.32-7.82-.08-11.76,1.52-2.56,1-5.9.19-9.58.19l-20-11.72c-2-1.17-3.86-2.7-6-3.46-1.72-.61-3.76-.31-6.06-.44-.91,7.09-6.17,12-7.12,18.7-4.61,7.72-6.79,16.44-10.2,24.65-2.91,7-4.85,14.37-8.64,21-.67,6.71-4.47,12.34-6.37,18.61a82.13,82.13,0,0,1-4,10.11,70.28,70.28,0,0,0-4.58,13c-1.1,4.76-3.23,9.28-4.94,13.89-1.94,5.25-4.29,10.38-5.76,15.75A72.31,72.31,0,0,1,639,665.56c1.22,6.49,5.44,12,3.34,19.43l-6.59,6.45c-1.87-.56-3.56-.74-4.91-1.52-6-3.43-11.88-7.16-17.93-10.55-15.57-8.71-30.1-19-45.08-28.68-3.86-2.48-6.83-6.15-10.76-8.76-4.37-2.91-8.56-6.16-13-9.12-2.71-1.82-4.91-4.39-7-6.27-.81-6.32,1.53-11.21,4.12-15.71,6.39-11.15,12.1-22.64,18-34.05,5.75-11.09,11.25-22.35,18-32.9,1.94-3,2-7,5-9.5.6-4.47,4-7.51,5.82-11.36s3.81-7.72,5.72-11.57c2.8-5.62,6.26-10.95,8.93-16.57,4.38-9.24,10.08-17.79,14-28.06v-24.7c-1.76-6.91-6.91-11-10.5-16.07-1.43-2-4.2-3.08-6.2-4.46H584.5L579.58,425c-6,0-12.47,1-18.52-.28s-12.68-1-17.46-5.24c-22.78,0-45.12,0-67.45,0a22.67,22.67,0,0,0-7.83.93c-2.4.84-5.22.62-7.86.62q-31,.07-62,0h-4c-21-.08-16.61.13-37.24,4.48q-12,2.52-24,5.58c-18.42,4.74-37.1,8.38-55.39,13.67-9.45,2.73-19.21,4.37-28.82,6.55-6.41,1.45-13,2.42-19.13,4.66-4.11,1.51-8.77.17-12.44,3-18.75,3.27-34.38,13-49.34,24-3.45,2.55-6.69,5.51-10.17,7.87-3.65,2.47-5.1,7-9.37,8.58-4.76,5.9-9.57,11.77-14.28,17.71-7,8.83-11.92,19-18.22,28.29-1.42,5.5-5,10.12-6.66,15.4-1.21,3.81-3.13,7.25-4.35,11-1.72,5.31-3.69,10.44-4.54,16.09-.81,5.44-2.77,10.73-3.79,16.26-1.13,6.11-1.92,12.36-3.78,18.32-1.07,3.43-2.95,6.61-4.4,9.76l-5.54,3c-7.18-.13-14.54,1.45-21.92-1.91-4.92,1.81-10.1,3.94-15.42,5.59-6.34,2-12.8,3.47-20.17,1.78l-6.45-6.62c.2-7.94-.6-15.46,1.4-23.08,1.24-4.7.38-9.94.6-14.93.14-3.28-.27-6.58,1.2-9.81.78-1.69.42-3.9.56-5.88.52-7.24-.6-14.58,1.79-21.72.7-2.11.17-4.63.17-7q0-66.49,0-133c0-6,0-12,0-18,0-3,.31-5.88-1.14-8.79-.81-1.64-.41-3.9-.44-5.88-.13-9-.15-18-.35-27-.11-4.59.68-9.29-1.48-13.73-.53-1.09-.12-2.63-.2-4-.49-9.24-.08-18.46-1.66-27.75C18.16,305.94,19.21,297.76,19.21,289ZM623,425.32l-.9-1.6-1,1.61c-1-.69-2.34-1.18-3-2.12-2.19-3.1-4.13-6.37-6.14-9.53l-3-.35c.14-.95-.07-2.24.47-2.81,4.39-4.62,8.1-9.95,13.69-13.34-.11,1-.22,2-.34,3-1.83,1.93-3.74,3.79-5.46,5.8a30.24,30.24,0,0,0-2.36,3.63c4.33,7.16,12.12,8.72,17.66,13.54l7.34-2.59v-4.77l-4.4-1.18,1.56-3.45c-.95-2-3-4.33-1.15-7.05,1.44.37.57,2.86,2.83,2v-3.64L635.39,400l2.89-2.62h15.26l3.19,4a35.58,35.58,0,0,0,5.72-.86c7.45-2.34,14.82-4.93,22.27-7.25,2.08-.65,3.5-1.7,4-3v-10c-1.39-1.78-2.41-3.1-4.68-2.61-.27.72-.61,1.58-.93,2.45s-.62,1.77-1.08,3.06c-2.7,0-5.32.13-7.93,0-2.88-.18-5.92.82-9.08-1.19,0-2.79.08-5.74,0-8.68-.11-3.22.57-6.55-1-9.92H655c.33-.53.59-1.46,1-1.52a36.32,36.32,0,0,1,5.88-.54c11.63,0,23.25,0,34.88,0,4,0,7.91,0,11.3-2.18a22.86,22.86,0,0,0,9.87,2.14c5-.17,10,.05,14.93.17a6.91,6.91,0,0,1,2,.73c.55.66,1.19,1.41,2.15,2.53v9.57q0,28.4,0,56.8c0,1.91-.5,4,1.23,5.58a104,104,0,0,0,25.55.09l3.85-4.76c10.47-2.22,20.25-3.43,29.87-2.41,3.37,1.24,4.57,5.22,9.45,5.62-3.13-5.69-1.45-11.17-1.75-16.38,1.77-1.8,1.18-4.88,4-5.59-.28,2.93.18,5.92-1.39,8.72a7.81,7.81,0,0,0-.09,6.7c.79,2.13,1.55,4.28,2.52,6.95l6.27,3.5c16.48,0,31.73,0,47,0,.25,0,.5-.38.75-.58a133.84,133.84,0,0,0,0-30.34c-.25-.2-.5-.57-.75-.57-15.58,0-31.16,0-46.93,0L809,413.35c-.32-3.54,2.29-5.27,4.42-7.18a61.61,61.61,0,0,1,7.47-2.69,64.42,64.42,0,0,1,8.12-.77c.62-7.66,0-14.94.38-22.48l4.87-5q15.45,0,30.88,0c1,0,2.19-.08,2.87.44,2.35,1.82,5,1.49,7.64,1.49l122.67-.09c3.33,0,7.08-.83,9.88.42,5.3,2.36,11.1.74,16.19,3l4.62-2.13c3-4.25,5.81-8.65,9-12.8,1.36-1.77,3.42-3,5.16-4.46a13.69,13.69,0,0,1-.93,3.69c-.92,1.6-1.32,2.91.86,4.53H1054l1.15,1.94c-2.3,0-4.61-.15-6.91-.05s-4.6-.69-6.59,1c-1.17,10.77-1.17,10.78,1.51,17.08-.69.61-1.94,1.19-2,1.84-.19,3.61-.09,7.23-.09,10.74,2.89,1.54,5.87,1.67,8.16,4,2.58,2.63,6.2,3.76,11.37,2.67,2.85-1.76,6.72-4.27,10.7-6.57a30.85,30.85,0,0,1,6.3-2.81c6.26-1.92,12.37-4.45,18.93-4.34l2.38-3.08V373.63l-4-4.41c-8.29,0-15.6,0-22.9,0-2,0-4.29.31-5.85-.57-3.8-2.16-7.86-.79-11.69-1.63a31.61,31.61,0,0,1-5.2-2.81c-1.39-1.12-2.3-2.81-3.36-4.17l-2.87,1.31c.47-4.35,2.16-8,6.16-10.18-.42,1.87-.84,3.73-1.28,5.7l2.13,2c3.08-2.15,6.5-1.34,9.75-1.34q114.45-.15,228.91-.2l138.94,0c2.67,0,5.77.78,7.9-.32,3.89-2,7.78-1.48,11.7-1.48q95-.1,189.92-.1,32,0,64-.07c1.9,0,4.05.63,5.49-1.35.13-5.51.13-5.51-3.12-8.52-60-1-635.4-.57-647.53.45l-7,5.52c.69-3.32,2.55-6.4,6.14-10.17.62.68,1.2,1.89,1.87,1.94,3.31.24,6.65.23,10,.23h624.31c3.33,0,6.66.07,10,0a24.11,24.11,0,0,0,3.89-.78v-5.34l-.15.13c3.27.48.89,4.39,4.5,5.91l72.4.15c.92,2.18,1.65,3.89,2.29,5.42,2.4.23,4.39.68,6.17-.58a78.11,78.11,0,0,0,2.67-24.39,49.88,49.88,0,0,1,0-6,24.14,24.14,0,0,0-3.15-14.16c-11.57-1.07-18.42-.9-24.49.61-.37,1.56-.75,3.12-1,4.28-4-.38-7.54-1-11.09-1-16.33-.11-32.65-.06-49,0-1.61,0-3.34-.37-4.71.87-1.71,2.52.74,5.81-1.72,8.39-.5-1.71-.68-3.41-1.46-4.76-2.19-3.81-2.85-7.94-3.77-12.18-1.52-7-2.34-14.26-4.87-21.07a17.82,17.82,0,0,1-.75-3.86c-.7-5.23-2.27-10.23-3.58-15.32-2.08-8.14-6.7-13.45-14-16.1h-354.9c-4.59,2.77-6.94,7.58-11.48,9.85.33-1.25.36-2.72,1.06-3.7,1.51-2.12,3.37-4,5.23-6.13l-4-5.67c-.45-2.07.17-4.17-1.18-5.88-12-1.17-25-1.1-32.46.2-.16.27-.47.54-.47.81,0,12.31,0,24.62,0,36.72l-2.75,3c-6.51,1.16-12.87-.56-18.86,1.08-1.08,14.32-.88,21,.83,27.31,11.53.46,23.16.24,34.79.09a2.5,2.5,0,0,1-2.8,2.08h-33.17c-2.75-1.75-5.37-3.13-7.65-4.93s-4.26-4.05-6.25-6c-.11-1.24-.21-2.22-.3-3.2,2.47,2.15,4.91,4.35,7.44,6.42a23,23,0,0,0,3.31,1.88c1.71-6.16,1.88-18.67.55-27.34a42.74,42.74,0,0,1-5.68,1.08c-3.63.2-7.28,0-10.91.19-.82,0-1.61.74-2.8,1.32,1.39,2.86,2.57,5.51,4,8.05.93,1.71,2.3,3.17,3.22,4.88a18.7,18.7,0,0,1,1.08,3.71c-3-1.05-4.65-3.45-6-6.13s-2.64-5.28-4.08-7.85a43.62,43.62,0,0,0-2.75-3.92H1105.05a38.9,38.9,0,0,0-16.33,11.07,5.21,5.21,0,0,1-1.72.84l.43-3,8-8.54c-4.31-.81-7.91-.51-11.48-.51q-252.88,0-505.77,0c-2,0-4,0-6,0-1.61,0-3.35-.34-4.91,1.53-.18,3.83-.88,8,.61,12.3h13.89l4.16-5.6,3.75-.22,6.93,6.24c8.53,0,17.5,0,26.47,0,.54,0,1.08.66,1.61,1,.59,1.65.78,3.22-.72,4.22-3.64,1.14-7.52-.8-11.08,1.78v7.87c-1.47,5.36-5,4.06-5.2,4.2L596.41,317l-3.43.33c2.2-4.57,7.17-6.79,9.51-11.23-.56-.28-1.12-.79-1.69-.8-5-.12-10-.22-14.94-.15a25.57,25.57,0,0,0-4.7.94c0,32.72,0,64.94.05,97.16,0,.42.64.84,1.76,2.21.13-6.16.07-11.41.08-16.65,0-5,0-10,0-14.95,0-5.31,0-10.63,0-15.95s.07-10.55.11-16.3c4-1.61,4.73-6.06,8-8.42-.08,1.64-.16,3.28-.24,4.81-2.11,2.39-4.06,4.62-6,6.77v33.08c0,5.65.06,11.29,0,16.93-.08,5.39.6,10.81-1.11,16.56H598l1.18,2c-9.1-.81-18.48,1.73-27.33-2.22-10.29.06-20.57.07-30.86.25-.62,0-1.22,1.28-1.84,2-4.1-.24-6.48-2.76-8.17-6.19,4.33.08,8.66.19,13,.24,4,0,8,.08,12,0,4.25-.1,8.55.51,13.1-.58-3.55-5.87-9.06-7.11-14.64-7.42-7.3-.4-14.64-.1-22.11-.1l-3.43,3.26c.91,1.9,1.61,3.35,2.3,4.81-1-.13-2.26.1-2.87-.43-2.66-2.36-6-4.12-7.31-7.75l5.77,1.3v-8.14c-5.14-1.9-5.14-1.9-7.78-5.16l7.26,1.73c-4.52-3.88-9.18-7.46-12.55-12.1s-6-10.18-8.44-14.54c-.41-6.94-.48-12.8,1.76-18.53,1.05-2.69,1.34-5.69,2-8.55,3.23-1.75,6.1-3.76,6-8,1.28-.05,2-.64,2-2,1.66,0,3.52.37,4-2l4.16-.59c-2.37-1.75-3.5-1.4-4,.76-1.65,0-3.57-.52-4,2a1.86,1.86,0,0,0-2,2c-3.34,1.66-6.31,3.6-6,8l-4.16,2a6.46,6.46,0,0,1,.15-2c3.88-9.51,11.22-14.93,20.69-17.88,2.7,4.25,5,8.16,5.84,12.85.16.93,1.53,1.65,2.46,2.59,1-2.64,1.81-4.77,2.61-6.9.7-1.89-.21-4.24,2.08-7,.21,3.44.79,5.91,0,8-3,7.69-3.83,15.89-5.68,23.83-2.81,12-4.64,14.68-4.24,25.15.21,5.32,0,10.65.08,16,0,1.6-.48,3.35,1.58,5.32,6,.2,12.56.17,19.15.06,6-.1,11.88.05,18.89,3.9,1.31,1.41,3.76,4.12,6.3,6.76.36.37,1.11.36,1.92.59.78-.9,1.62-1.89,2.27-2.65.91-49.23.59-90.83-.83-100.54-4.29-.5-9.22.37-12.89-3.31-.12-.93-.24-1.91-.37-2.9l4.37,2.22c7.63,0,15.25,0,22.86,0,2,0,4.24-.34,5.82.51,2.88,1.52,5.78,1,8.7,1.14a7.7,7.7,0,0,0,2.15-.7l2.09-2.67c-.14-3.51.58-6.82-.85-10.39H596.41L588,281.35l-5.88,7.72c-4.32,0-8.28,0-12.24,0-1.6,0-3.34-.29-4.7,1.76v8.49a2.51,2.51,0,0,1-2.1-2.82c0-2.18-1-3.76-3.46-5.16-3.91-.13-8.47-.87-12.59,2,.23-1.22.45-2.44.75-4h14.46l2.79-2.75V269.17c2,0,4,.09,6,.09H823.54c1.61,0,3.22-.1,5.44-.17-1.92-3.76-3.51-6.87-5.05-9.9h-248c-1.67,0-3.34-.1-5,.05a23.76,23.76,0,0,0-3.41.77c-.77,2.19.36,4.71-2.49,5.34-.09-5.59-.17-11.17-.3-16.76,0-.26-.4-.51-.77-1a68,68,0,0,1-7.31,1.38c-3,.26-5.94.08-8.91.12-2.59,0-5.18.12-7.66.18-2,4-3.65,7.48-5.47,10.92-.76,1.44-1.7,2.86-3.57,3.09.3-4.47,3.57-7.7,5-11.73.31-.9.81-1.71-.79-2.26-5.5,2.43-10.49,6.38-16.51,8.19-9.71,6.49-21.32,8.53-31.66,13.55-12.23,2.4-23.84,7.5-36.41,8.48-3.86,2.64-8.63.72-12.54,2.36-4.23,1.78-8.51,1-12.76,1.47a14.6,14.6,0,0,0-3,.12c-7.77,2.59-15.78,1.56-23.7,1.62-28.31.21-56.63.26-84.94.38-2.33,0-5-.64-6.93.22-4.54,2-9.15,1.35-13.74,1.37q-66,.24-131.92.36c-2.31,0-4.91-.44-6.88.45-3.25,1.45-6.47,1.23-9.75,1.24-23.32.07-46.63.09-69.95.2-2.25,0-4.66-.76-6.77.81,1.5,2,3.62,1,5.42,1,19.32.06,38.64,0,58,0q61.46,0,122.92,0c2.65,0,5.59.48,7.87-.49a19,19,0,0,1,7.72-1.31h100.9c2.83.86,4.73,1.36,6.57,2s3.56,1.73,4.09,3.91a20.26,20.26,0,0,1-3.8-.9,33.44,33.44,0,0,0-16.3-3.17c-2.32.18-4.66,0-7,0-3.67,0-7.72-.93-10.91.31-4.95,1.93-9.8,1.44-14.7,1.44q-109.47.15-219,.17-21,0-42,.12a9.64,9.64,0,0,0-2.24.65l-2.34,2.79q0,44.12,0,88.06a2.3,2.3,0,0,1-.2.94,23.78,23.78,0,0,1-1.52,2.09c-.06-11.44,0-21.63-.09-31.82s0-20.66-.06-31,0-20.55,0-31.15c-7.39-1.8-14.4-3.55-20.92-6.67a20.78,20.78,0,0,0-13.87-1.59l-2.85,5.17c0,5.4-.92,10.31.25,14.66,1.24,4.64,1.29,9.16,1.41,13.75.21,8,.17,16,.25,24,0,2-.52,4.23.19,5.95,2.12,5.16,1.38,10.49,1.45,15.75.24,17.66.29,35.32.47,53,0,2.31-.17,4.8.64,6.86,1,2.64.9,5.21.9,7.84q.09,54,.12,108c0,2.66.51,5.53-.27,8-2.42,7.49-1.21,15.16-1.72,22.73-.23,3.32.63,7-.44,9.93-1.65,4.61-1.22,9.17-1.36,13.77-.21,7-.16,14-.32,21a22.43,22.43,0,0,1-1,7.82c-2,5.31.25,9.56,4,13,3.71.33,6.85.42,10.12-1s7.11-1.48,10.42-2.81c4.49-1.81,9.61-2.76,12.72-7.29,0-5-.06-10,0-15s-.37-9.89,1-14.8c.9,10.76.62,21.55.92,32.21L68.66,631h13.5l6.65-6.74A61.2,61.2,0,0,1,91,607.12c2.88-10.44,5.35-21,8.18-31.45,3.91-14.46,10.91-27.64,18.08-40.62A152.08,152.08,0,0,1,132,512.78c5-6.14,9.74-12.45,15-18.37,3.55-4,8.09-6.84,12.08-10.32C170.62,474,183.71,466.36,197.6,460a77.3,77.3,0,0,1,13-4.69c12.09-3,24.35-5.41,36.43-8.45,5.42-1.36,11.11-1.58,16.28-3.83,4.57-2,9.47-2.68,14.23-3.91,9.54-2.46,19.18-4.54,28.77-6.78,10.21-2.38,20.52-4.38,30.66-7.11,7-1.87,14.13-3,21.17-4.65,4.15-.95,8.18-2.48,12.36-3.21s8.46-.55,12.73-1.71c4.05-1.11,8.61-.44,12.94-.44l134,0a62.53,62.53,0,0,0,7-.15c.69-.07,1.26-1.24,1.88-1.91,2.31-.07,4.48,0,6.53,1.54a23.11,23.11,0,0,0,13.67,4.5c4.94.14,9.89.15,14.83.16,1.31,0,3,.27,3.85-.39,3.56-2.63,7.57-1.78,11.44-1.89,3.6-.11,7.21,0,11.13,0L599,413.16l5.15,1.39,5.06-1.41c-1.19,1.83-2.39,3.65-3.59,5.49l10.29,10.65L620.66,441c.54,3.13.71,5.82,1.5,8.31a12.08,12.08,0,0,1,.11,7.72c-.6,1.86-.62,3.9-1.07,5.81-1.64,7.06-3.49,14.07-7.25,20.34-1.18,2-2.13,4.05-3.2,6-2.51,4.62-4.54,9.49-7.13,14-2.3,4-4.49,8.08-6.39,12.28-2,4.48-5.31,8.2-6.92,13-1.43,4.29-4.64,8-6.8,12-3.1,5.85-5.85,11.87-8.94,17.71-3.55,6.71-7.4,13.27-10.92,20-1.36,2.6-1.64,5.92-3.37,8.17-5.11,6.62-7,15.06-12.4,21.45-.78,4.37-3.94,7.54-5.75,11.39a35.34,35.34,0,0,0-1.45,5.38c6.9,3,11.31,9.07,17.85,12.55a59.56,59.56,0,0,1,12.06,8.62c7.62,7,16.38,12.27,25.19,17.39,12,7,23.23,15.09,35.59,21.81,1.73.15,3.76.8,5.48-1.28,0-2.78.86-6.1-.18-8.64-2-4.91-1.53-9.72-1.39-14.18,2-4,4-7.51,5.38-11.23,1.23-3.37,1.69-7,2.54-10.53a11.5,11.5,0,0,1,.8-1.8c4.63-10.55,8.13-21.53,12.09-32.33q8.64-23.61,17.75-47.06c4.54-11.65,9.37-23.18,14.24-34.69a123.12,123.12,0,0,1,5.81-11.53c1.12-2,2.63-3.85,5.42-4.24,5.22,1.74,8.49,6.67,13.64,9s9.46,5.92,13.47,8.53c6.59,0,12.26.2,17.9-.08,3.25-.16,6.44-1.3,9.7-1.64s6.65-.24,10-.34a2.46,2.46,0,0,0,1-.1c3.7-1.88,7.74-1.92,11.68-1.68,4.43.27,8.43-1.85,12.68-1.86,6.68,0,13.09-1.33,19.95-3.08.46-.84,1.09-2,1.71-3.06,3.57-4.46,3.57-4.46,2.92-7.33-3,1.7-3,4.55-2.78,7.46-1.64.14-3.44-.09-4.88.51a13.54,13.54,0,0,1-5.71,1.43c-7.62-.22-14.92,2.9-22.6,2.25a3.39,3.39,0,0,0-1.92.38c-2.72,1.74-5.76,1.23-8.72,1.4-2.31.13-5-.4-6.88.54-3.54,1.74-7.13,1.21-10.72,1.51-2,.17-4.18-.1-5.86.71-3.88,1.89-7.77,1-11.23,1.05-12.16-6.18-24.42-11.24-33.39-20.93V488.75c2.25-3.83,4.7-7.39,6.53-11.25,1.55-3.25,2.43-6.75,4.83-9.64,1-1.25.68-3.17-1.35-4.58-4.6,0-9.59,0-14.58,0a97.46,97.46,0,0,1-10-.18c-2.56-.27-5-1.27-7.58-1.84-4.24-.94-21.09-6.57-24.12-8.06-1.81-.89-3.51-1.84-4-4a5.61,5.61,0,0,1,2,.19c5.82,3,12.06,4.81,18.14,7.07A87.33,87.33,0,0,0,688.91,461c8.12,1,16.45.24,24.57.24,1.92-3.24,4.25-5.91,4.67-9.65l-3.15-.26c-.16-1.22.4-2.65-.7-3.33a29.26,29.26,0,0,1-5,1.13c-3.64.16-7.35-.36-10.93.16-4.19.6-7.61-1.84-11.54-2.06-6.57-.37-12.83-2.48-18.86-4.78-3.11-1.19-7.07-1.75-9-5.28,1.64.14,3.39,0,4.9.49,4.93,1.69,9.75,3.7,14.66,5.44a36.37,36.37,0,0,0,7.55,2c4.52.56,9.15-.09,13.57,1.9a8.93,8.93,0,0,0,5.89.07c4.74-1.52,9.64-1.61,14.46-2.42.41-.07.67-1,1-1.51,3.22.42,4.28-.87,4-4,3.28.28,5.37-2.07,7.85-3.44a12.65,12.65,0,0,0,.35-2q0-33.27,0-66.55a17.88,17.88,0,0,0-.9-3.82c-3.92.15-7.49-.86-10.84.66l-.44,3.33.11-.12-7.81-3.8H702.79l-7.8,5.95c.38-1.82.77-3.65,1.26-6a74.68,74.68,0,0,0-11.48.12c-.53.07-1,.76-1.46,1.15v5.54c1.79,2.25,3.28,4.38,5.88,5,2.66-1.56,2.44-5.64,6-6-.86,3.05-1.35,6.28-2.68,9.11-3.06,6.49-1.07,11.7,3.06,16.69l3.62-1.79c-.41,1.84-.82,3.67-1.28,5.71a4.08,4.08,0,0,0,4.21,2.27L707,396c.31-5.3.26-5.3-1.24-8.11L699,393.35c.17-4.14,2.72-6.45,6.34-8.33l3.23,1,2.44,5.43c-2,4.34-2,4.34-.66,7.54h13.45c.92-1.16,1.67-2.1,2.94-3.72.68,5.93,0,11.17.12,16.39,0,.92.53,2.34-1.23,2.73-1.42-4.2.81-8.65-1.42-13a158.05,158.05,0,0,0-16.72,0,5.3,5.3,0,0,0-1.73.78c-.1.62-.19,1.24-.27,1.73l7.53,6.05v3.37l.13-.11a52.92,52.92,0,0,1-4.56-3.55,18.66,18.66,0,0,0-9.39-4.53L695,409.32v-8.5c-.92-1.55-2.09-3.51-3.2-5.35-3.55-.49-6.56.24-9.85,1.18-7.84,2.25-15.23,6.05-23.49,7-1.31.15-2.42,2-3.58,3.05.25,1.61.44,2.85.6,3.87a10.13,10.13,0,0,0,2.29.73c11.31,0,22.62,0,33.65,0l3.71-2.13c.58.69,1.06,1.85,1.76,2,3.14.65,6.48-.36,9.49.7l.39,2.44-5.35,1.79,3.51,2.18c.08,1.09.15,2.07.22,3.05l-4.17.53c2.33,1.78,3.46,1.42,4-.69,1.93.72,2.53,1.82.68,3.94h-6.53c-18.49,0-37,0-55.46.08-1.3,0-3.14-.81-4,1.48,5.92,2.9,11.79,5.72,17.6,8.66.76.38,1.24,1.33,1.85,2-2.28-.09-4.44-.16-6.64-1.38-5.13-2.84-10.46-5.33-15.77-7.84a17.27,17.27,0,0,0-3.74-.83c-.42-2.54-2.38-1.93-4-2-.26-.67.12-2.25-1.47-1l1.64.87c0,.72,0,1.44,0,2.16H625A2,2,0,0,0,623,425.32Zm28-18.14c3.34-1,2-3.31,1.43-5.55-.65-.52-1.38-1.13-2.16-1.68-.1-.07-.45.2-.78.35-.64,2.58,2.65,4.32,1.64,7-.58.33-2.33-.14-1,1.48C650.43,408.26,650.72,407.72,651,407.18Zm264,84c3.19-.11,6.46.67,10.13-1-3.68-1.61-7-.68-10.16-.88.65-.65,1.23-1.75,2-1.86,3.22-.5,6.7.38,9.54-2,4.7.38,8.78-3,13.54-2.26,4.38-2.53,9.81-.94,14.16-3.57,7.53-.58,14.42-4.36,22-4.45,4.55-2.52,10.53-1.12,14.66-5.37l-.94-2.53c-2.86,0-5.61-.46-8.13.11-3.51.8-6.85,2.18-10.58,1.89s-6.7,2.69-10.57,2.2c-1.43-.18-3,1.36-4.57,1.57-3.55.47-7,.42-10.63,1.71S937.85,476.15,934,477c-2.58.56-5,2.23-7.5,2-4.49-.41-8.23,2.38-12.56,2.28s-8.11,2.9-12.54,2.1c-3.31,1.75-7.24,1.13-10.46,2.31s-6.65.69-9.44,2.41c-3.08,1.89-6.82,0-9.59,1.83-3.35,2.18-7.38.21-10.5,2.26s-6.58.17-9.75,2c.07.83.13,1.68.2,2.69,3.49.72,7,1.19,9.95-.08,3.27-1.43,6.44-1.24,9.7-1.39,2.66-.12,5.67.58,7.9-.43,3.21-1.47,6.37-1.53,9.66-1.68,1-.05,2.24.11,2.87-.42,3.4-2.87,7.7-.95,11.5-2.43,3.53-1.37,7.79-.89,11.72-1.23v2.17c-1.84,0-3.69,0-5.53,0a2.18,2.18,0,0,0-2.49,2c-3.45,0-6.9-.09-10.34.1-.59,0-1.12,1.22-1.67,1.88-3.63.08-7.54-.66-10.79.49a29.64,29.64,0,0,1-9.61,1.45c-1.32,0-2.92-.38-3.91.22-4.31,2.61-9,1.43-13.53,1.73-2.6.18-5.21.24-7.56.35l-2.2,2.5c.82,2.33,2.8,3.54,4.65,2.8,4.33-1.73,9-1.25,13.38-2.69a56.94,56.94,0,0,1,13.26-2.61c5.28-.38,10.12-2.38,15.29-2.82.34,0,.6-1,.9-1.54,3.44,0,6.88.07,10.31-.13.59,0,1.12-1.23,1.68-1.89,1.84,0,3.67,0,5.51,0A2.22,2.22,0,0,0,915,491.18Zm346.1-222c.3.61-.08,2.26,1.48,1l-1.57-.9,0-4.13c.87.45,1.75.88,2.61,1.34,1.91,1,3.73,1.38,5.48-.93V234.28l-3.34-3.12-3.69,1.74c-3.15-2.38-6.61-2-10.08-1.26-1.4,9.86-1.38,29.27.07,30.89,3.44,1.65,5.45-.13,7.08-3.37,0-3.75-.06-7.74,0-11.72s-.44-7.87.57-12.12c.54.69.91.94.92,1.2q.3,14.41.54,28.83c-2.44.23-5-.86-7.78.92.19.91.41,2,.62,2.93ZM669,377.17c2.63,0,5.27,0,7.9-.12.55,0,1.08-.6,1.63-.93,1-2.46.37-4.45-2.29-6.49a39.44,39.44,0,0,1-4.18-.37c-1.47-.27-2.9-.81-5.22-1.49,1.28,3.37,2.54,6.34,2.32,9.55-2.2.53-2.46,1.69-.65,4.07C668.72,379.57,668.86,378.37,669,377.17Zm140-176,.18.18c-1.26-3.23-3.55-4.47-8.77-3.11l-3.25,3.41v11.7l-2.36,1.54c.66,4-.44,8,.74,12,1,.74,2,1.53,2.52,2H812c.47-.92,1-1.48,1-2,.08-4.22,0-8.44,0-12.46l-2-1c0-3.16,0-6.32,0-9.48A2.45,2.45,0,0,0,809,201.15Zm290,52,7.68,6H1178l4.39-4.34c1.15-5.72-.13-10.38-2.43-15a17.41,17.41,0,0,0-2.86-.47q-36.94,0-73.9.09a6.42,6.42,0,0,0-1.94.73l-2.09,2.53v10.64c-1.5-.43-1.84-1.54-2.05-3-.43-2.84,1-6-1.14-8.5-18.79-1-32.78-.71-39,.9a20.49,20.49,0,0,1,1.89,4.41,49.28,49.28,0,0,1,.21,6c.12,1.92-.54,4,1.4,5.81h39.64C1099.71,256.85,1099.35,255,1099,253.17Zm-95.83,480c-.61.69-1.08,1.69-1.84,2-5.37,2.44-10.78,4.79-16.14,7.21q-18.84,8.52-37.77,16.79c-9,3.95-17.94,8.09-26.91,12.16a20.64,20.64,0,0,1-3.55,1.71c-5.86,1.39-10.65,4.83-16,7.64.25,3.61.47,6.88.72,10.46l3.59,3.84c3.32,0,5.81.58,7.91-.09,9.38-3,18.93-5.9,27.51-10.68,6.07-3.37,12.45-5.89,18.67-8.77,11.63-5.38,23.62-10,35.37-15.1q18.12-7.87,36.05-16.12c5.39-2.46,10.64-5.22,16.28-8l-5.42-16-4.61-.94c-3.69,1.83-6.87,3.61-10.23,5-1.76.72-3.82.73-5.75,1.06.61-.69,1.1-1.62,1.86-2,4.66-2.39,9.38-4.65,14.11-7-.84-2.87-1.45-5.42-2.36-7.87-.69-1.85-1.82-3.53-2.67-5.33-1-2.09-2.41-4.15-2.69-6.34-.59-4.68-2.3-8.9-4-13.21-3.62-9.19-4.18-19.26-8-28.43a6.29,6.29,0,0,1-.25-3c.56-5.77-1.72-11.05-2.89-16.51-1.91-9-5.37-17.66-5.25-27.06,0-1.25-.75-2.5-1.06-3.77-.92-3.82-2.23-7.62-2.6-11.5-.71-7.56-3.21-14.92-2.45-22.64a10.75,10.75,0,0,0-.52-2.9c-1.08-5.47-2.55-10.9-3.13-16.42s-2.93-10.92-2.12-16.68a6.67,6.67,0,0,0-.29-3.94c-2.14-3.72-1.3-7.79-1.82-11.69-.57-4.23-2.38-8.26-1.95-12.67a7.12,7.12,0,0,0-.4-3.92c-1.93-3.43-1.31-7.13-1.52-10.74-.18-3-.17-6-.17-9,0-2.14-.51-3.95-3-5.15-2.48,3.09-7,.3-9.87,3.26-3.69,0-6.67,3.08-10.51,2.45-3,1.95-7.39.76-9.6,4.37,1.41,6.54,1.42,9.4-.25,16-.28-4.46-.48-7.73-.68-10.95-1-1.76-2-3.47-2.88-5.11-1.75-.42-3.36-.7-4.83,1.19,0,2.68-.85,6,.19,8.53,1.6,3.9,1.48,7.75,1.7,11.68,0,1-.18,2.21.31,2.93,2.48,3.66,1.35,7.74,1.53,11.66,0,.93.6,2.43-1.57,2.79-.68-4.64.42-9.48-2.18-13.63.34-7.31-3.09-14.19-2.38-21.55,0-.48-.68-1-1.16-1.71l-2.22,1c-1.52,5.08,2.4,9,1.78,13.87s-.2,10-.24,15l.17-.16c-1.65-.31-1.9-1.51-1.95-2.91-.16-4.64.33-9.45-.77-13.86a51.27,51.27,0,0,1-1.33-8.71c-.1-1.27-.37-2.53-.53-3.55-.74-.28-1.08-.55-1.32-.48-8.77,2.45-17.71,4.14-26.67,5.75-4.17.74-8.42,1.38-12.44,2.51a64.93,64.93,0,0,1-7.69,1.44c-2.57.39-5,1.66-7.59,1.8-5,.25-9.45,3-14.51,2.37-2.4,2.81-6.63.41-9.1,3.09-.19,3.36-.38,6.62-.59,10.37-2.91-3-.09-6.91-2.88-9.53l-2.3,1.05a54.51,54.51,0,0,1,1.41,6c.24,2,.05,4,.14,6,.18,4-.28,8.15.83,11.85,1,3.3.86,6.52,1.34,9.76s1.47,6.41,1.74,9.66c.54,6.56,0,13.18,2,19.67,1,3.41-.07,7.22,1.56,10.74,1.51,3.28-.14,7.38,2.32,10.53-.13,4.35,1.84,8.4,2,12.63a67.84,67.84,0,0,0,2.14,13.6c1.14,4.45,1.4,9.14,2.79,13.48a23.21,23.21,0,0,1,1.37,7.73c-.17,6,1.8,11.66,3.05,17.45,1.58,7.37,4.2,14.47,5.1,22,.5,4.16,2.82,8.07,3.53,12.23s.49,8.57,2.3,12.6a24.2,24.2,0,0,1,.9,2.81c.38,1.26.81,2.5,1.1,3.77,4.28,19.23,10.73,37.84,16.18,56.73.52,1.8,1.78,3.37,2.73,5.1,1.54-1.47,4.3-.82,4.76-3.41-.08-2.48-3.12-4.57-1-7.34.06-.08.42.07.61.1l3.92,7.19,79.54-35.3c-2.54-.43-3.83-.44-4.93-.9-.75-.32-1.22-1.28-1.82-2l-.11.11c1.41-.35,3.41.46,3.84-1.88-3.55-7.75-3.55-7.75-3-11.61,2.89,3.38,3.44,8.13,7,11.21l4.24-1.7-.16-.14.15,4.13-3.6.44v.94Zm271.83-518c2.86.71,4.44,3,5.61,5.3a23.33,23.33,0,0,0,7.85,8.62c3.07.08,6.26.9,8-2.83-.77-.51-1.86-.85-2.28-1.58-2.92-5-7.21-8.72-11.28-12.57-4.38-4.14-7.56-9.21-11.59-13.6L1249.76,175a7.6,7.6,0,0,1-1.28-1.52c-2.8-5.45-8-8.9-11.54-13.63s-7.72-9.07-11.77-13.46c-3.8-4.12-7.81-8-11.24-12.59-4.33-5.76-9.93-10.57-13.91-16.27-17.59-.79-42.62-.53-50.66.54,1.61.91,2.88,2,4.35,2.41,7.15,2.09,13,6.51,18.48,11.13,9.92,8.36,18.6,18,25,29.44a12.36,12.36,0,0,0,2.23,3.24c4,3.59,6.29,8.48,9.53,12.64s6.26,8.5,9.48,12.68c3.43,4.44,7.1,8.7,10.47,13.19,4.76,6.32,9.23,12.86,14,19.14a38.42,38.42,0,0,0,6.38,6.3c1.61,1.31,3.64,1.5,5.69-.45v-4.63l3.65,1.52L1271,212.19c-.77-2.68-1.39-4.85-2-7l6.16,5v5.2h-2.06c-4.17,3.82-7.86,7.16-11.46,10.58-.34.32-.13,1.22-.17,1.84,5.24,1.84,10.77,2,19.69.35-.94-2.8-1.7-5.56-3.87-7.66A6.81,6.81,0,0,1,1275,215.17Zm-612,.17,3.7-5.49v-8l-7.11-6.62c-7.27,1-9.14,6-10.41,11.23,1.21,3.5,2.1,6.68,5.58,8.67h8.44c-.84,2.68-3.5,2.46-5.11,3.26-2.15-.59-4-1.11-5.92-1.65-1.71-.5-2.26-3.22-4.85-2.48v12l2.91,2.73h15.15l4.62-2.19c3.44,2.27,7.36,2.38,11.36,2.38q52.5-.09,105,0c1.3,0,2.6-.14,3.88-.22l2.83-3V203.08c1.86-3.77,3.41-7.51,7.54-9.5h7.9l6.48,6.89c.83,9.15-.65,17.81.49,25.88,2.92,3.61,5.9,3.44,9,2a10.22,10.22,0,0,0,.57-2.2c0-13.33,0-26.66,0-40a10.06,10.06,0,0,0-1.1-2.91h-91q-49.49,0-99,0c-2.21,0-4.7-.87-7,1.75,0,9.5,0,19.48,0,29.46a7.76,7.76,0,0,1-.58,2l-6.75,3.88c-1.46,6.33,3.91,6.74,7.24,8.72H642l3.07-2.63V204.21c2.33-7.23,6.17-11.79,13.34-12.87,4.5,1.29,8.59,3.23,10.63,7.59V211.7C667.42,214.3,665.58,215.53,663,215.34Zm354.08,203.94,4.66-.3,17-14.63c.92-20,.71-27.46-1.08-33a72.34,72.34,0,0,1-4.56,6.62,42.77,42.77,0,0,1-4.5,4.24c-6.71,2.54-11.56-1.12-17-.86.61,1.64,1,2.77,1.46,3.9l.05,0c-1.24-.32-2.68-.35-3.69-1a33.21,33.21,0,0,0-6-3.23c-4.52-1.83-9.06-1.79-13.68-1.8l-149-.1c-2.3,0-4.6.07-6.75.1l-3,3.36c0,6-.07,12,0,18a26.68,26.68,0,0,0,1,4.75h11.48c4,0,8-.08,12,0,3.59.1,7.24-.44,10.69.27,1.21,8.42,1.37,33.18,0,35.53l-2.6,2.05H825.41c-2.65,0-5.21,0-7.68-1.51a3.31,3.31,0,0,0-4.44.95c-.71,18-.47,51.32.43,59.77,3.1-.7,6.26-1.21,9.29-2.14,7.82-2.4,15.77-4.37,23.52-7a33.61,33.61,0,0,1,8.59-2.07c4.21-.27,8.2-2.41,12.58-2.11,6.86-3.39,14.77-2.72,21.77-5.59,3.73.36,7.1-1.72,10.58-1.87,3.77-.17,7.05-2.29,10.57-2.1,3.86.21,6.92-2.06,10.58-2.27,2.56-.15,5-1.68,7.59-1.74,5-.11,9.53-2.88,14.59-2.33,3.34-2.84,7.88-.78,11.38-2.74,3.88-2.17,8.78.24,12.38-2.94,4.06.42,7.73-1.79,11.58-1.94a48.27,48.27,0,0,0,15-3.35c1.85-4.4,3.29-9.61,6.06-14,3-4.67,4.27-10.45,8.93-14,1.85-5.14,7.51-7.31,9.54-11.93l-1.13-3ZM1245,256.84c.19-8.67.11-16.59.08-23.8-2.1-3.15-3.6-5.74-5.42-8.07-8.75-11.15-17-22.73-25.85-33.76s-16.61-23-24.9-34.43c-4.83-6.7-9.87-13.29-16.16-18.81-11.8-10.35-24.94-16.67-41.15-16.64q-137.46.28-274.93,0c-6,0-11.91.09-17.72,2.94l-7,6.68c-1.13,2.84-1.85,4.68-2.74,6.91,2.24,4.44,1.72,9.45,1.73,14.4q0,34,0,68c0,3.58.38,7.2-1.29,10.92,1.46.71,2.56,1.65,3.73,1.74,3,.24,6,.12,9,.12H989.12l7.91,4.05h98.38l5.31-3.69c36.34-.76,78-.43,80.16.62.51.43,1.2.77,1.48,1.31,1.07,2,2,4.14,3.1,6.49v13l1.89,2ZM627.78,120.22c1.19,2.61,2.07,5.58.55,8.31-1.42,2.53-1.34,5.1-1.35,7.72-.06,13.33-.05,26.66,0,40,0,1.63-.21,3.36,1.83,5h40.37q74,0,148,0c2.52,0,5.31.89,7.82-1.39V136.61c3.09-10.86,9.35-16.65,19.13-19.47h248.43c15,0,30,0,45,0,2.29,0,4.86.2,6.81-.73,2.61-1.24,5.15-1.11,7.76-1.12,13.67,0,27.33,0,41,0,1.16,0,2.6.47,3.37-1.64-3.12-2.1-6.28-4.47-9.67-6.43-2.25-1.3-3.89-3.68-6.85-3.82-4.27-.2-8.14-2.15-12.6-2.11-25.66.21-51.32,0-77,0q-68,0-136,0-77,0-154,0c-2.89,0-6-.74-9.14,1.06-.05,5.61-.11,11.22-.14,16.83s0,11.27,0,16.88l-5.54,3h-151l-5.15-2.79c.09-.83.15-1.46.24-2.35a16.9,16.9,0,0,0,3.35,1.24,34.54,34.54,0,0,0,5,.21q73,0,146,0c1.62,0,3.36.26,5-1.63.07-2.53.29-5.5.19-8.45-.11-3.22.78-6.59-.93-9.85H634.32ZM1706.56,357.68a25.81,25.81,0,0,0-2.87-.43l-191,.08c-1.33,0-3-.41-3.94.2-3.4,2.11-7.07,1.56-10.67,1.56q-136.5.12-273,.18-62,0-124,0c-2.66,0-5.75-.8-7.91.26-5.17,2.52-10.45,1.39-15.67,1.55-7.32.23-14.66,0-22,.09-1.26,0-2.52.24-4.85.48,2.87,1.64,4.75,2.73,6.66,3.83,3.46,0,7.17-.93,10,.22,4.26,1.71,8.43,1.37,12.69,1.53a81.73,81.73,0,0,0,9,.08c7.09-.5,13.63,1.84,20.29,3.58,3.35-2,7-1.48,10.66-1.48q89.51,0,179-.07h366c2.33,0,4.67,0,7,0,1.32,0,2.93-.22,3.88.43,3.06,2.08,6.4,1.48,9.68,1.54,5,.08,10,0,15,.1a10,10,0,0,1,2.2.65l1.88,2c1.31,2.33-.88,4.88,2.41,6,0-6.12,0-12.09,0-18.06C1707,360.83,1706.75,359.54,1706.56,357.68ZM633.08,79.5C632.9,89.69,633,99,633,108.24c0,1.62-.2,3.35,1.45,4.66a22.3,22.3,0,0,0,2.77.31q73.86,0,147.72,0a26.78,26.78,0,0,0,4-.68c0-4,.12-7.66.14-11.28s.1-7.32-.08-11,.79-7.25-.92-10.77ZM1821.24,303.7c-.08,2-.2,3.64-.2,5.25q0,19,.18,38c0,.55.6,1.1,1.08,1.93,4.2-.35,5.76-3.7,7.31-6.46,2.71.26,5.25.71,7.79.71q53.47.07,106.93,0a32.56,32.56,0,0,0,4.76-.74c0-10.47,0-20.45,0-30.44,0-.56-.51-1.12-.89-1.9a14.74,14.74,0,0,0-2.7-.47q-55,0-109.93,0a46,46,0,0,0-6,.87C1828.39,307.16,1828.33,302.25,1821.24,303.7ZM829.46,259.1h225.12l2.32-2.21V248c-.85-.91-1.74-1.87-2.71-2.93-19.28,0-38.24,0-57.2,0-.3,0-.6-.24-1.09-.45l-6.53-5.38H967q-65.44,0-130.9.05c-2.88,0-6-.87-9,1.32C828.1,246.47,825.13,252.87,829.46,259.1Zm288,135.66c2,.14,3,.28,4,.28l115-.09c1.66,0,3.56.46,4.95-.18,4.49-2,9.16-1.32,13.75-1.33q52.5-.15,105-.14l202-.1q30,0,60-.12c2.29,0,4.58-.24,6.37-.34a9.9,9.9,0,0,0,3.8-7.25c-1.57-.11-2.87-.28-4.17-.28q-76.5,0-153,.08c-1.65,0-3.61-.3-4.87.46-3.16,1.91-6.47,1.3-9.73,1.31q-41,.1-82,.1l-232,.16c-2.33,0-4.94-.63-6.94.18-6.14,2.51-12.46,1.16-18.67,1.61a26.91,26.91,0,0,0-3.83.84C1117.18,391.65,1117.28,392.9,1117.41,394.76ZM771,435.8c-1.37,1.56-3.46,3.34-4.78,5.58a88.83,88.83,0,0,0-6.67,13.25,41.35,41.35,0,0,0-2.35,11.52,76.76,76.76,0,0,0,.13,14.93,31.86,31.86,0,0,0,3.48,11.16c2.83,5.16,6.51,9.86,9.32,14,2,2.49-.16,5.36,3.22,7.15,3.36-.3,7.54.06,11.19-1.17a56,56,0,0,1,19-3.2l5.46-3.19c0-21.47,0-42.69,0-62.68-1.92-4.23-5.34-3.06-7.4-4.56s-4-3.37-5.91-5C788.07,436.2,780.35,434.62,771,435.8Zm62.26-166.73h409.09l4.6-4.32-.78-3.12a55.39,55.39,0,0,0-8.69-.26q-75-.08-150-.13-123,0-245.95,0c-3.33,0-6.66,0-10,.12a6,6,0,0,0-1.78.69c-.16.61-.33,1.21-.78,2.83Zm283.52,110.27h7.32l109.94-.06q102.95,0,205.9-.12c2.65,0,5.67.59,7.86-.45,3.61-1.72,7.16-1.26,10.75-1.27q61.47-.12,122.94-.11,41,0,82-.07a76,76,0,0,0,10.46-.28c1.56-2.41,1.69-4.15-.49-5.51-.33,0-.66-.09-1-.09q-81.95-.06-163.91-.08c-1.33,0-3-.42-3.94.2-4,2.6-8.43,1.55-12.65,1.56q-183.42.1-366.82.1c-3.33,0-6.66,0-10,.18-.57,0-1.11.59-1.68.91C1112.81,376.72,1114.56,377.79,1116.81,379.34Zm-292-145.81H570.05l-3,2.81c.59,2.77-1,5.77,1.51,9,84.6-.09,169.48.15,254.36-.19.55,0,1.1-.57,2-1.05Zm-257.1,23.66H813.85c3,0,6,0,9-.16.57,0,1.11-.56,2.11-1.11-.2-2.59,1.2-5.51-.92-8.14a9.74,9.74,0,0,0-2-.45q-125.37,0-250.72,0a2.91,2.91,0,0,0-1,.18c-.31.11-.58.31.09-.06C566.22,250,566.85,253,567.74,257.19ZM653.08,65.25c0-4.75,0-8.38,0-12q0-13-.07-26c0-2.55-.9-4.54-3.23-5.51H637.67c-.93,1.08-1.77,2.07-2.53,3v50.2a2.5,2.5,0,0,0,.09,1,2.53,2.53,0,0,0,.6.69c10.3,1.17,91.73,1.56,149.83.69a13,13,0,0,0,2.61-.56c.23-.57.48-.88.44-1.14-.64-3.37-3.72-5.22-4.79-8.31-8,0-15.62,0-23.29,0-2,0-4.42.55-5.89-.36-3.78-2.34-7.74-1.62-11.65-1.63q-39.48-.09-79,0ZM2065,304.29a14.86,14.86,0,0,0-1.34-1.48,5.36,5.36,0,0,0-1.7-1,14.45,14.45,0,0,0-2.94-.3c-18.83-.58-48.53-.19-55.74.71-1.92,2.62-2.69,4.07-2,5.19,2.17,3.34,1.53,7,1.57,10.61.06,5.65.13,11.31,0,17,0,3.27.31,6.53-1.51,9.68-.88,1.52-.72,3.84.85,6.18,1.22.06,2.82.19,4.42.2,6.65,0,13.31,0,20,.05,1.95,0,4.16,0,5.78.84,2.54,1.39,5.1,1.24,7.73,1.26q10,0,20,0c1.6,0,3.35.35,4.87-1.46ZM760.3,514.61c-3.47-3.94-7-7.72-10.24-11.73-1.85-2.3-3.89-4.77-4.72-7.5-2.11-6.89-5.17-13.58-4.58-21.14.38-5,.07-10,.07-14.14l4.08-9L740,443.72c-2.51-1-4.47-3.36-7.49-2.15-4.35,2.72-7.09,6.78-9.33,11.33-4.36,8.89-8.54,17.86-13.81,26.31-2.58,4.15-4.17,8.94-5.89,13.56-.55,1.46-.09,3.29-.09,5.3l2.76,4.67c4.63,2.32,9.67,3.84,13.34,7a51.07,51.07,0,0,0,11.91,7.53c3.83,0,7.17.1,10.49,0a88.27,88.27,0,0,0,8.88-.83C754,515.9,757.16,515.2,760.3,514.61Zm915-134.73a32.72,32.72,0,0,0-3.91-.61q-71.44,0-142.9,0c-1.32,0-3-.38-3.92.25-3.69,2.49-7.74,1.59-11.64,1.6q-50.46.12-100.93.07l-249.81.08c-2.33,0-5-.7-6.93.22-5.45,2.66-11.09,1.42-16.63,1.61-6.32.22-12.66,0-19,.12-.62,0-1.23.62-2.08,1.08,2.28,1.52,4.32,1,6.25,1,17.65,0,35.31,0,53,0q93.93-.06,187.86-.13c2.63,0,5.48.22,7.82-.7a20.19,20.19,0,0,1,7.79-1q123.91-.14,247.82-.22c2,0,3.92.16,5.61.23l2.86,4c1.64,0,3.61-.08,5.57,0,8.87.41,17.87-1.24,26.61,1.71a7.72,7.72,0,0,0,6.16-1.07C1674.94,385.73,1675.07,383.15,1675.25,379.88ZM624.35,193a11.89,11.89,0,0,0,.57-1.87q.08-35.92.09-71.84a15.8,15.8,0,0,0-.78-3.53c-13-1.07-19.54-.86-24.91.75a11.81,11.81,0,0,0-.33,1.93q0,35.43,0,70.86a22.69,22.69,0,0,0,.77,4c6.7,0,13,0,19.28,0C620.68,193.27,622.31,193.11,624.35,193ZM655.27,62.78c12.91.88,40.07.69,47.64-.27,3.24-2.78,2.85-6.85,1.62-10-1.29-3.3-1.25-6.42-1.33-9.68-.1-3.64-.1-7.29-.18-10.93,0-1.61.29-3.35-1.76-4.65-14.22,0-28.8,0-43.38,0a8.22,8.22,0,0,0-2.61,1Zm131.57-.52V26.11l-4.75-4.61c-6.94,0-13.55,0-20.17,0-1.61,0-3.33-.29-4.89,1.61,0,12.82,0,26.05.05,39.28,0,.87.71,1.73,1.11,2.65h26ZM1998.17,306c-9.85-1.07-15.14-1-22.51.39a6.69,6.69,0,0,0-.54,1.83c-.06,12.65-.1,25.31,0,38,0,.85.67,1.71,1.15,2.84,6.08,0,12.06.05,18,0a30.1,30.1,0,0,0,4.52-.69C2002.85,314.25,2001.74,320.75,1998.17,306ZM1970,351.11c1.39-3.88,3.13-7.62,3.07-12-.14-10,0-19.95,0-30.12l-3.08-5.53c-5.84-.11-11.13-.4-15.51,0-3.12,2-3.41,4.3-3.43,6.66,0,10.31,0,20.62-.08,30.93a14.09,14.09,0,0,0,3.75,10.05Zm-166.8-47.72c0,15.24,0,29.49,0,43.74,0,.52.68,1,1.29,1.9,3,0,6.33,0,9.63,0,2.29,0,3.69-1.18,4.83-3.38,0-13,0-26.25,0-39.52a9.37,9.37,0,0,0-1-2.75Zm-1096-240.6c14.22.94,38.65.71,45.62-.35,2.18-3.5,2.76-5.25,2-9.22-.27-1.43-1.71-2.64-2.42-3.68-22.49-1-39-.72-45.2.91Zm1-15.74h44.23c.68-.73,1.58-1.68,2.12-2.27.67-4,1.12-7.31-3.07-9.26-14,0-28.26,0-42.52,0-.56,0-1.11.61-1.44.79-.69,2.7-1.35,5.21-2,7.73-.06.23.24.55.45,1Zm37,436.53c2.71,5.34,5,10.48,7.87,15.3a33.45,33.45,0,0,0,6.43,7.43c1.26,1.13,3,2.39,5.42,1.75a9.49,9.49,0,0,0-.9-2.62c-1.58-2.11-3.57-3.94-4.94-6.16-4.21-6.8-5.9-14.56-7.75-22.21-.46-1.88-.69-4.26.07-5.9,1.89-4.11,1-8.51,1.71-11.56,1.56-3.79,3-6.45,3.72-9.3s3.37-5.41,3-9.12c-4.22,0-8.18-.07-12.14.05-.81,0-1.6.75-2.66,1.28l3.86,8.89c-1.38,3.07-2.59,5.76-3.67,8.14Zm941.89-101.7c.07,5.17.16,9.77.19,14.36,0,2.27,1.1,3.72,3.54,4.83,2.19,0,4.83,0,7.48,0,1.61,0,3.34.24,4.6-1.67V378.7l-3-5.26c-6.23,0-12.49,0-18.75,0-.54,0-1.08.6-1.62.93-.65,2.21-1.37,4.43.66,6.55Zm-53.92,17.86,1.6,1.2h37.83a2.21,2.21,0,0,0,1-.17,5.07,5.07,0,0,0,.9-.79,10.66,10.66,0,0,0-.17-8.36,20.92,20.92,0,0,0-3-.46q-17.94,0-35.87.13c-.57,0-1.14.49-1.87.82C1632.41,394.53,1633.05,397.16,1633.22,399.74ZM824.44,537.3c6.5-10.17,8-21.45,12.18-31.69a6.06,6.06,0,0,0-.41-5.67c-2.87-2-4.89.86-7.33,1.19a12.37,12.37,0,0,0-7.77,4c0,1.18,0,2.51,0,3.83-.28,7.22.5,14.5-1.71,21.6a7,7,0,0,0,.81,6.17ZM615.33,223.5c-26-.83-38-.6-44.37.89a5,5,0,0,0-1,6.25c7.53.88,36.26,1.22,50.85.56.55,0,1.08-.58,1.3-.7Zm1150,122.13c-1.07,8.46.41,15.92-1.37,23.74,4.52,0,8.47,0,12.42,0,1.6,0,3.35.29,4.64-1.88V350c0-1.64.17-3.33-1.28-4.4ZM790,71a22.28,22.28,0,0,0,5.45.25c2.91-.12,5.89.48,8.53-.47,1.55-2.39.94-4.75,1-7,0-3.24.36-6.53-.22-9.27-1.88-1.71-3.59-1.26-5.18-1.33a34.77,34.77,0,0,0-5.95,0c-1.51.2-2.74-2.16-4.53-.19,0,5.12,0,10.39,0,15.67A9.17,9.17,0,0,0,790,71ZM1101.72,394.6c2.73.74,5.67.36,8.57.42a4.75,4.75,0,0,0,4.5-3V382c-4-3.95-7.22-8.59-13-10.13A73.55,73.55,0,0,0,1101.72,394.6ZM539.64,247a53.28,53.28,0,0,0,9.16.1c2.53-.25,5-1.28,7.5-1.72,2.8-.49,5.89.76,8.65-1.46.09-4.08.9-8.27-.88-12.73-3.37,1.2-6.44,2.2-9.43,3.4a8.71,8.71,0,0,0-3.21,2.14C548.08,240.54,543.62,243,539.64,247ZM525.2,324.75c0,19.91,0,38.1,0,56.29,0,.5.61,1,1.5,2.38,1.12-10.28-.65-19.85.63-29l3.46-4.57V335.43C528.91,331.77,527.41,328.94,525.2,324.75ZM1800.13,344.8c1.31-7.27,1.29-34.19-.22-41.93-1.23,1.42-2.08,2.39-2.91,3.33.22,12.51-.33,24.65.37,36.55ZM630.86,112.26V82.6c-.94-1.26-1.34-3.06-3.41-2.45-1,13.31-.76,27.54.52,34.82ZM1714.5,384.82l4.21-5.56c6.92,0,13.5,0,20.09,0,.59,0,2,0,1-1.9h-21l-3.45-3.75c-2.18-.25-4.15-.7-5.87.95-.52,2.8-1.07,5.67.36,8.27ZM522.2,327.93c-1.37,4.85-1.72,18.56-1.17,48.32,0,1.44-.56,3.18,1.24,4.18a5.46,5.46,0,0,0,.73-1.79q0-25-.2-49.93C522.8,328.45,522.41,328.19,522.2,327.93Zm-3.74,48.74a11.47,11.47,0,0,0,.65-2.74q-.18-21.72-.49-43.44c0-.16-.4-.32-1.51-1.18C517.1,345.38,517.07,360.77,518.46,376.67Zm-4.71-40.47c-.72,11.11-.76,22.05-.46,33,0,.47.59.92.92,1.4C515.23,362.46,515.26,345,513.75,336.2Zm-3.61,28.54c.31-.55.9-1.1.9-1.64-.07-6.87-.21-13.74-.38-20.6,0-.22-.42-.42-.63-.61C508.73,348.73,508.77,358.62,510.14,364.74Zm142.21,48.12c-4.48-1.27-8.56-2.21-13.65-.61,4,1.33,6.95.79,9.87.93A28.49,28.49,0,0,0,652.35,412.86Zm39.79,2.69c-1.61,2.42-1.46,4.74-.06,7.19A6.82,6.82,0,0,0,692.14,415.55Zm-44.89,6.62c4.92,1.4,5,1.39,5.3-2.39Zm11.1-6.38c-3.72.15-4.11,1.17-1.93,5.08C657.1,419.08,657.71,417.49,658.35,415.79Zm269.17,72.4a6.6,6.6,0,0,0,7.11.06A6.83,6.83,0,0,0,927.52,488.19Zm18-4a7,7,0,0,0,7.19.05A7.11,7.11,0,0,0,945.48,484.21Zm22.79-4.2a3.64,3.64,0,0,0-4.55.13C965.28,481.62,966.79,481.94,968.27,480Zm-12.69,2.23a3.56,3.56,0,0,0,5,0A3.56,3.56,0,0,0,955.58,482.24Zm-13.49,3.58c-1.31.41-3.08-1.78-4.3.65C939.3,487.52,940.7,487.37,942.09,485.82Zm-268-70.11a3.51,3.51,0,0,0,0,5.1C675.46,419.11,675.65,417.42,674.1,415.71ZM976.3,478.8l.15-.63a13.69,13.69,0,0,0-1.93-.65c-.09,0-.33.7-.5,1.08ZM665.71,415.4l3.93,1.67c.17-.41.33-.81.49-1.22Zm20.64,7.44.15-.68a13,13,0,0,0-2-.63c-.1,0-.34.73-.51,1.12Zm2.19-6.54c-.49-.29-1-.79-1.48-.82s-1,.45-1.52.7c.49.29,1,.79,1.46.81S688,416.55,688.54,416.3Zm-19.87,6c-.18-.2-.41-.58-.53-.55-.85.24-.88.65-.08,1C668.17,422.82,668.46,422.47,668.67,422.31Zm-15.95-6-.61-.7-.69.62c.2.23.39.62.62.64S652.49,416.52,652.72,416.32Zm-8.58-12.61c-.19.16-.57.37-.55.46.24.77.63.81,1,.09C644.64,404.19,644.3,403.9,644.14,403.71Zm36.46-23.42-.52-.66c-.2.19-.54.37-.56.58s.3.41.48.62Zm0-12-.49-.63c-.2.18-.52.35-.55.55s.3.4.46.61Z" transform="translate(-18.82 -17.19)"/><path d="M617,393.2c-.62.65-1.21,1.81-1.88,1.87-2.64.21-5.31.09-8.11.09-2.39-1.6-4.84-3.24-7.39-4.93l-4.48-8.85V369.67a21.51,21.51,0,0,1,13.69-14.22h6.41c2.91,1.46,6,2.61,8.23,5.29a6.1,6.1,0,0,1,1.52,4.55l.11-.09A18,18,0,0,1,622,363a19.35,19.35,0,0,0-10.23-5.84c-7.32,2.32-12.37,7-14.63,14.28v8.08l4.41,8.64,7.5,5.1h8.08Z" transform="translate(-18.82 -17.19)"/><path d="M625,365.29c2.77.64,2.11,3.68,3.83,5.35v8.62c-1.4,1.79-.93,4.94-3.82,5.94l.1.1c-1.12-3.53,1.68-6.25,1.93-9.55.29-3.75-3.14-6.71-1.93-10.55Z" transform="translate(-18.82 -17.19)"/><path d="M635.16,383.15c-.1,1-.21,1.93-.34,3.16-3.46,2.67-5.49,7.07-9.83,9,.13-1-.1-2.25.43-2.84C628.43,389.15,630.92,385.22,635.16,383.15Z" transform="translate(-18.82 -17.19)"/><path d="M591,333.31V318.7l2.14-1.56c0,4.44-.13,8.88-.17,13.33A2.72,2.72,0,0,1,591,333.31Z" transform="translate(-18.82 -17.19)"/><path d="M651.18,365.16a22.46,22.46,0,0,1-8.18,8.19C643.39,368.29,646.2,365.64,651.18,365.16Z" transform="translate(-18.82 -17.19)"/><path d="M625,385.2c-1,5.31-2.75,7.09-8,8l.09.1a19.84,19.84,0,0,1,8-8Z" transform="translate(-18.82 -17.19)"/><path d="M1087.16,283.15a4.71,4.71,0,0,1-.15,1.9,39.62,39.62,0,0,1-6,8.28c.08-1.64.17-3.28.28-5.42Z" transform="translate(-18.82 -17.19)"/><path d="M1061.16,331.15c-.47,4.35-2.08,8-6.16,10.19C1055.54,337,1057.11,333.34,1061.16,331.15Z" transform="translate(-18.82 -17.19)"/><path d="M1067.17,321.14c-.54,4.33-2.17,8-6.18,10.21C1061.78,327.18,1062.86,323.18,1067.17,321.14Z" transform="translate(-18.82 -17.19)"/><path d="M643.16,373.16c0,4.29-2.79,6.46-6.17,8.19C637.11,377.16,639.84,374.94,643.16,373.16Z" transform="translate(-18.82 -17.19)"/><path d="M1081.14,293.18c0,3.42,0,6.84-4.15,8.18C1077.24,298.06,1078.28,295.15,1081.14,293.18Z" transform="translate(-18.82 -17.19)"/><path d="M1073.16,309.15c-.23,3.32-1.22,6.24-4.15,8.19C1069,313.89,1069.16,310.55,1073.16,309.15Z" transform="translate(-18.82 -17.19)"/><path d="M655.18,363.16c-.47,2.52-2.49,2.07-4.21,2.18C651.45,362.83,653.47,363.29,655.18,363.16Z" transform="translate(-18.82 -17.19)"/><path d="M1069.15,317.17c-.25,1.64.39,3.74-2.16,4.19C1067.06,319.63,1066.8,317.73,1069.15,317.17Z" transform="translate(-18.82 -17.19)"/><path d="M1075.16,305.15c-.22,1.66.24,3.67-2.17,4.21C1073.24,307.71,1072.76,305.68,1075.16,305.15Z" transform="translate(-18.82 -17.19)"/><path d="M1077.17,301.14c-.07,1.74.22,3.67-2.18,4.21C1075.09,303.62,1074.59,301.59,1077.17,301.14Z" transform="translate(-18.82 -17.19)"/><path d="M625.18,395.15a2.41,2.41,0,0,1-2.2,2.2A2.38,2.38,0,0,1,625.18,395.15Z" transform="translate(-18.82 -17.19)"/><path d="M637.18,381.15a2.38,2.38,0,0,1-2.2,2.2A2.38,2.38,0,0,1,637.18,381.15Z" transform="translate(-18.82 -17.19)"/><path d="M1285,301.35c-.27-2.18.81-3.81,2.24-5.25,3.24-3.27,6.51-6.5,9.84-9.81,0-5.78-.39-11.41.11-17s-2.42-10-2.35-15.47c-3.1.45-4.32,4.65-7.78,3.33l.09.1,0-2.12-.14.14,2.14-2.15-.14.15c2.38-.53,2-2.5,2.14-4.16l-.15.18c2.79-1.81,2.79-2.34,0-4.18l.15.17c-.44-3.7-.47-3.73-4.16-4.16l.17.15a2.32,2.32,0,0,0-2.5-2c-1.21,0-2.41-.06-3.62-.09l.07.06c.07-1,.15-1.93.26-3.41l5.68-.66c1.38,1.39,2.47,3,4,3.93,2.28,1.31,2.68,3.65,3.57,5.6.76,1.64.51,3.74.78,6.41l2.69-3.41c1.94,2.08-.21,5.07,1.62,7l3.44-1.59c.25,3.94-3.05,6.41-4.17,9.83v25A87.42,87.42,0,0,1,1285,301.35Z" transform="translate(-18.82 -17.19)"/><path d="M1617.22,276.55V259.82l2.55-2.4h38.28l2.8,2.64V276c-1,2-2.42,3.32-4.7,3.32h-36.37Zm39.47-17.15h-35l-2.4,2.33v12.92l2.32,2.46h35l2.41-2.3v-13Z" transform="translate(-18.82 -17.19)"/><path d="M1500.23,279.2l-3-3.22V260.7l2-2.41c.77-.5,1-.83,1.33-.83,12.26,0,24.52,0,37.21,0l3.08,2.44c.55,5.1.1,10.37.23,15.86l-2.14,2.68a8.67,8.67,0,0,1-2.19.76C1524.83,279.21,1512.89,279.2,1500.23,279.2Zm38.81-5.07c.08-4.39.21-8.35-.1-12.17l-3.12-2.7c-10.91,0-21.55,0-32.19,0a10.09,10.09,0,0,0-2.22.62l-2.36,2.86c.32,4-.29,7.95.35,11.81l3,2.63c11.26,0,22.23,0,33.2,0,.29,0,.57-.32,1.13-.65Z" transform="translate(-18.82 -17.19)"/><path d="M1598.42,257.23l2.49,2.61v17l-2.5,2.46c-12.35,0-24.29.07-36.23-.08-1.47,0-2.92-1.13-4.55-1.81-.89-5.84-.31-11.43-.44-16.58,1.27-2.29,2.71-3.55,4.94-3.55C1574.07,257.22,1586,257.23,1598.42,257.23Zm-36.82,19.9h35c.72-.7,1.65-1.63,2.39-2.36v-13l-2.33-2.39h-35.09l-2.34,2.43v13Z" transform="translate(-18.82 -17.19)"/><path d="M1321,259.34l1.07-1.89h37.75l3,2.77v16.5l-2.58,2.51c-13.5.12-26.72.06-39.8,0-2-3.31-1.13-6.36-1.26-9.25s0-6,0-9.26l2.09-1.59c-.09,3-.34,6-.23,9s-.82,5.95,1.24,8.93c11.87.56,23.78.19,36,.26l2.66-2.63V261.94l-2.48-2.6Z" transform="translate(-18.82 -17.19)"/><path d="M1421,261.3c.62.65,1.72,1.27,1.76,1.94.19,3.29.09,6.58.09,10.25l-2.44,4.87a5.85,5.85,0,0,1-1.82.76c-12.81,0-25.62,0-38.36,0l-3-3.24c0-4.22-.08-8.48.08-12.74,0-.65,1.17-1.26,1.79-1.89l0-.06v10.29l3.29,5.69c11.63,0,23,0,34.26,0a5.49,5.49,0,0,0,1.81-.75l2.72-5.1V261.2Z" transform="translate(-18.82 -17.19)"/><path d="M1441,259.21v16.84c1.19.49,2.06,1.15,2.93,1.16,10.25.09,20.49.15,30.74.06,1.86,0,3.72-.75,5.71-1.18,0,0,.42.3.4.53a10.83,10.83,0,0,1-.5,1.81,5.13,5.13,0,0,1-1.76.71q-18.35.08-36.68,0a5.66,5.66,0,0,1-1.79-.66c-.3-.56-.86-1.11-.87-1.67-.06-5.58,0-11.16,0-16.59l1.95-.95Z" transform="translate(-18.82 -17.19)"/><path d="M1379.1,261.28c.11-1,.21-1.95.3-2.81,2.16-1.72,25.59-2.07,40.51-.72,1.34.88,1.14,2.24,1.11,3.55l.11-.1a16.93,16.93,0,0,0-8.28-2.07q-12.75.28-25.52,0a16.6,16.6,0,0,0-8.28,2.09Z" transform="translate(-18.82 -17.19)"/><path d="M1441.12,259.3l1-1.88h37.65c.41.75.85,1.56,1.69,3.07a62.8,62.8,0,0,0-6.67-1.25c-2.63-.2-5.29-.05-7.93-.05h-13.89l-11.9,0Z" transform="translate(-18.82 -17.19)"/><path d="M1705.15,337.19c-.32-.08-.78-.05-.94-.25-2.84-3.69-3.49-8.27-4.94-12.51a4.41,4.41,0,0,1,.76-4.6l5,11.95v5.54Z" transform="translate(-18.82 -17.19)"/><path d="M75.13,309.29c.69-1.08,1.16-2.48,2.13-3.17a40.11,40.11,0,0,1,5.61-2.82h20a41.76,41.76,0,0,1,5.06,2.37,35.75,35.75,0,0,1,4.11,3.3h54.59c13.45-2.92,27.11-1.2,40.65-1.91,2-.1,3.9-.54,5.85-.82a48.3,48.3,0,0,1,5.81-.81c7.66-.19,15.32-.12,23-.38,4.26-.15,8.55.63,12.76-1.38,1.92-.92,4.59-.27,6.92-.29,15.32-.14,30.64-.19,46-.44,5.25-.09,10.64.92,15.71-1.49a4.92,4.92,0,0,1,2-.12h34.21l4.72,2.57c2.75,3.61,3.07,7.5,3.06,11.55-.05,21,0,42,0,62.95v14.71c-3,5.44-7.47,7.45-13.08,8.28-6.48,1-13.11,2-19.17,4.29-4.75,1.8-10,.55-14.35,3.44-4.77-.57-8.9,2.56-13.6,2.38-13.2,4-27,5.29-40.14,9.59-8.56.78-16.7,3.37-24.92,5.66-3.48,1-7.39-.09-10.57,2.26-8,0-15.27,4.1-23.24,4.38-12.52,3.89-25.58,5.52-38.19,9.22a182.49,182.49,0,0,1-22.09,5.06c-6.75,1.1-13.39,3.14-20.19,4.38-5.45,1-10.88,2.11-16.31,3.22-2.55.52-5,1.47-7.59,1.87s-5.35-.25-7.62,1.62l-15.64.68-5.36-5.06v-3.2l-.16.14L82.33,457h8.16L89,453.17a5.72,5.72,0,0,1,2,.2,17.4,17.4,0,0,0,15.25.44,39.39,39.39,0,0,1,11.48-2.37,14.72,14.72,0,0,0,9-3.44V428.62c-4.2-6.5-9.67-9.7-16.5-9.66-4.16-2.27-5.63-6-7-9.89V321.28c1.07-2.4,2.13-4.8,3.22-7.26l-8.25-2.86-9.46,3.21c-1.28,2.39-2.51,4.69-3.54,6.6V442.19c1.13,4.62,4.17,7.27,4.06,11.17-4.08-1.4-4.38-5.44-6-8.61V319.81c1.58-6.19,5.22-9.18,11-10.5,2.19,0,5,.48,7.48-.13s4.25,3.68,6.89,1c-1.44-3.69-5.16-2.83-7.72-4-5-2.34-10.46-.55-15.37-.94-3.71,1.31-6.37,4.35-10.35,3.94Zm283.3-3.74c-3.61,0-6.91-.82-9.5.18-4.91,1.9-9.83,1.32-14.74,1.45-10,.28-20,.3-30,.42-1.67,0-3.54-.44-5,.15-5.47,2.26-11.15,1.31-16.74,1.46-9.32.25-18.66.22-28,.32-2,0-4.3-.53-5.93.27-3.86,1.89-7.83,1.27-11.76,1.34-11.33.21-22.66.24-34,.35-2,0-4.26-.51-5.95.23-4.52,2-9.16,1.28-13.76,1.36-13.66.24-27.32.31-41,.45-1.66,0-3.54-.44-5,.16-5.14,2.17-10.48,1.22-15.74,1.47-3,.15-6,0-8.79,0l-3.07,2.68c-.84,8.41-1.24,71.71-.57,92.21a12.26,12.26,0,0,0,.62,2.6c2.91,3.67,7.16,1.55,10.45,3l6.53,4.58,4.71,9.41c0,2.09-.15,4.76,0,7.41s-.87,5.31,1.08,8.12a32.06,32.06,0,0,0,3.65,0,26.31,26.31,0,0,0,4.84-.9c5.33-1.63,10.91-2.45,16-4.86,10.2-1,19.87-4.55,29.93-6.15,3.91-.62,7.47-2.94,11.61-2.29,4.45-2.43,9.6-2,14.37-3.39a111,111,0,0,1,17.23-4.11c8.2-1.05,16.08-3.49,24.12-5.15,7.35-1.51,14.72-3.47,22.1-4.87,8.07-1.53,15.93-4,24.11-5.13,5.49-.75,10.8-2.65,16.35-3.57,5.8-1,11.48-2.72,17.28-3.92,8.34-1.73,16.78-3.2,24.92-5.86a8.35,8.35,0,0,0,1.65-1l2.27-4.21v-80Z" transform="translate(-18.82 -17.19)"/><path d="M385.73,394.47l-4.52-8.82V335.91c1.58-5.88,4.86-10.57,12.41-12.63h86.24l7.88,5.3c3.24,6.35,3.41,12.24,3.33,18.24-.13,9-.05,18,0,26.95,0,5.61.45,11.29-1.83,17L484,396a43.19,43.19,0,0,1-18,3.11q-30.94-.19-61.89,0A34.11,34.11,0,0,1,385.73,394.47Zm92.53-66.81H394.49c-6.11,3.29-6.11,3.29-9.05,9.48v49.39l6.63,6.44c18.24.88,80.12.54,89.32-.58a27,27,0,0,0,2.56-3.27c1.18-2,2.1-4.07,2.73-5.32V335.66Z" transform="translate(-18.82 -17.19)"/><path d="M385,297.16c4.7-.34,8.73,2.6,13.34,2.75.59,0,1.16.85,1.75.87,7.92.19,15.84.34,23.77.39,2.59,0,5.27.58,7.71-1.07a5.61,5.61,0,0,1,2.81-.7c3.63-.16,7.58.65,10.83-.52,3.57-1.28,7.14-1,10.57-1.8,6-1.45,12.07-2.4,18.05-3.84,6.3-1.52,12.61-3,18.84-4.78a77.66,77.66,0,0,0,15.27-6.57c2.26-1.2,4.4-3,7.27-2.73-.51,2.16-2.2,3.08-4,4.09-8.62,4.93-18,7.75-27.58,9.93-3.5.79-7.19,1-10.48,2.31s-6.42,1.28-9.58,2-6.51,1.13-9.53,2c-4.55,1.35-9.23.82-13.58,1.92-12.8,3.25-25.71,1.22-38.55,1.72-6.05.23-11.5-2-16.62-5.07C385.08,298,385.07,297.48,385,297.16Z" transform="translate(-18.82 -17.19)"/><path d="M75.15,451.18c-2.9-.58-2.2-3.74-3.88-5.38V315.5c1.17-2,1.06-5,3.86-6.21l-.12-.11c0,1,.34,2.16-.05,3-2.24,4.69-1.84,9.67-1.84,14.6q0,53,0,106c0,4.27-.36,8.52,1.6,12.66.78,1.64.22,3.93.26,5.93Z" transform="translate(-18.82 -17.19)"/><path d="M547.17,277.14c.23,2.81-1.64,4.89-2.63,7.24-3.14,7.41-3.49,8.79-3,16.05l3.63-3.28a12.66,12.66,0,0,1-.08,3c-1.51,5.56-3.12,11.09-5.21,18.45-1.59-8.65-.11-15.59-1-22.05a3.69,3.69,0,0,0-4.82-.78c-5.17,2.82-10.28,5.72-14.5,10a38.61,38.61,0,0,1-4.57,3.5l.1.09c0-1,.09-2,.14-3,6.45-7.78,15.49-11.73,24.44-16.4,1.1-2.81,2.22-5.82,3.45-8.77A6.23,6.23,0,0,1,547.17,277.14Z" transform="translate(-18.82 -17.19)"/><path d="M563.05,335.28c1.65.27,2,1.44,2,2.86q0,16.46,0,32.93l-2.65,5.37-4.6,2.45h-9.36c-1.73-1.26-3.77-2.14-2.64-4.74.56-.21,1.37-.78,1.66-.58,3.29,2.23,6.9,1.66,11.29,1.59l4.41-4.33V335.22Z" transform="translate(-18.82 -17.19)"/><path d="M519.18,387.34l-2.62-.23c-3.29-2.73-6.43-5.33-9.56-7.94l.16.17A25.87,25.87,0,0,0,501,367.15l.17.2q0-13.08,0-26.16l-.11.12c.63-.58,1.61-1,1.82-1.74a2.94,2.94,0,0,1,2.31-2.43,18.46,18.46,0,0,1,0,2c-.45,4.16-2.6,7.95-2.18,12.36.38,3.9.08,7.87.08,11.6l6.69,13.63C512.87,380.81,517,383.2,519.18,387.34Z" transform="translate(-18.82 -17.19)"/><path d="M561.11,333.21H548.86c-2.21,1.69-1.85,3.44-1.85,5,0,8.66,0,17.32,0,26v5.93c-2.49-.06-1.67-1.68-1.67-2.52-.07-11.65-.05-23.3-.05-35.13l2.67-2.87h10.45l2.65,3.64Z" transform="translate(-18.82 -17.19)"/><path d="M501.15,373.18c-4.6-5.7-7.64-12.71-7.93-18.44-.08-1.66,0-3.33,0-5.17,1.69-2.86,1.5-7.16,5.88-8.3l0,0c.37,3.19-2,5.34-3.12,8a9.52,9.52,0,0,0-.7,6.57,106.2,106.2,0,0,0,4.36,10.62c.21.46,1,.65,1.56,1l-.17-.2c0,2.05,0,4.11,0,6.16Z" transform="translate(-18.82 -17.19)"/><path d="M515,279.34a21.87,21.87,0,0,1,2.86-3.74c4.65-4,7.94-9.33,13.34-12.46-.11,1-.21,1.91-.43,3.93l-12.07,11.87Z" transform="translate(-18.82 -17.19)"/><path d="M565.17,269.35c-4.5-1-7.94,1.3-11.17,3.85-1.54,1.22-2.93,2.39-5,2.14a5.59,5.59,0,0,1,.7-1.71c4.16-4.65,9.52-7.14,15.5-8.47Z" transform="translate(-18.82 -17.19)"/><path d="M507,383.14c3.14,1.36,5.09,4.08,7.2,6.53.75.87.68,2.44,1,3.68-3.18-1.28-5.14-4-7.15-6.52C507.28,385.91,507.3,384.39,507,383.14Z" transform="translate(-18.82 -17.19)"/><path d="M505.05,323.22c.91,4.17-2.32,7.32-2.52,11.36-2.15-1-1.47-2.8-1.3-4.06.36-2.83,1-5.66,3.88-7.24Z" transform="translate(-18.82 -17.19)"/><path d="M507,379.17c.06,1.4.11,2.79.16,4.18-2.84-.72-4-3.29-6-5.56v-4.61l-.15.13c.68.5,1.75.87,2,1.53.77,2.15,1.83,3.88,4.17,4.5Z" transform="translate(-18.82 -17.19)"/><path d="M513.06,311.24c0,4.16-2.7,6.31-6,7.94l.13.12c0-4.15,2.4-6.51,6-8Z" transform="translate(-18.82 -17.19)"/><path d="M515,393.15a5.23,5.23,0,0,1,4.2,4.19C515.65,396.73,515.65,396.73,515,393.15Z" transform="translate(-18.82 -17.19)"/><path d="M545,297.35c.23-1.66-.23-3.68,2.17-4.21C546.92,294.79,547.36,296.8,545,297.35Z" transform="translate(-18.82 -17.19)"/><path d="M507,319.18c.05,1.69.6,3.63-2,4l.06.06c0-1.68-.45-3.57,2-4Z" transform="translate(-18.82 -17.19)"/><path d="M381,295.16c1.73.09,3.73-.34,4.21,2.18C383.49,297.18,381.47,297.63,381,295.16Z" transform="translate(-18.82 -17.19)"/><path d="M515,309.2c0,1.29-.62,2-2,2l0,0a1.81,1.81,0,0,1,2-2Z" transform="translate(-18.82 -17.19)"/><path d="M519,397.15a2.22,2.22,0,0,1,2.21,2.2A2.27,2.27,0,0,1,519,397.15Z" transform="translate(-18.82 -17.19)"/><path d="M549.18,275.15a2.14,2.14,0,0,1-2.2,2.2A2.14,2.14,0,0,1,549.18,275.15Z" transform="translate(-18.82 -17.19)"/><path d="M563.11,335.22a1.81,1.81,0,0,1-2-2l-.07.07a1.81,1.81,0,0,1,2,2Z" transform="translate(-18.82 -17.19)"/><path d="M499.09,341.27c.22-.51.43-1,.65-1.52l1.29,1.56.11-.12-2.08,0Z" transform="translate(-18.82 -17.19)"/><path d="M964.23,633.57c-1.61-6.15-3.33-11.39-4.29-16.77s-2.72-10.76-2.79-16.35c-2.49-4.38-1.46-9.59-3.45-14.18-1.42-3.29-.63-7,.88-10.51.21,2.57.12,5.21.74,7.68.54,2.19,1.51,4.21,1.87,6.55a283.93,283.93,0,0,0,7,33.29A17.35,17.35,0,0,1,964.23,633.57Z" transform="translate(-18.82 -17.19)"/><path d="M919.05,529.29c1.71-.18,3.4,0,4.39,1.56,1.39,2.17,2.57,4.48,3.77,6.62-1.12,5-3.13,8.9-7.5,11.61h-8.34l-4.2-4.07V533.12c1-2.69,2.82-4.24,5.94-3.83l-.07-.08L909.11,535a61.27,61.27,0,0,0,.09,6.44c.07.64,1.25,1.16,1.92,1.74a1.79,1.79,0,0,0,2,2c1.92,2.84,3.93,2.84,5.88,0a1.86,1.86,0,0,0,2-2c2.73-.53,2.11-3.49,3.6-4.93-1.51-1.44-.93-4.37-3.6-5-.64-1.36-1.27-2.73-1.91-4.09Z" transform="translate(-18.82 -17.19)"/><path d="M869.16,575.16c-.52-.32-1.48-.62-1.5-1-.25-4.28-1.76-8.32-2.33-12.49-.53-3.91-.83-7.78-2-11.61-.67-2.15.45-5-.5-6.89-2.72-5.45-1.3-11.1-1.63-16.66-.06-.9.44-1.84.87-3.47a22.9,22.9,0,0,1,.91,3.47c.35,4.24-.7,8.68,1.9,12.58-.6,6.68,2.74,12.87,2.35,19.59-.17,2.83,1.28,5.71,1.62,8.62a75.89,75.89,0,0,1,.15,8Z" transform="translate(-18.82 -17.19)"/><path d="M985.15,697.17c-.53-.31-1.39-.52-1.53-1-1-3.06-1.23-6.5-2.8-9.19-1.74-3-1-6.39-3-10.19-.5,3.11-.86,5.28-1.24,7.63-3.46-6.85-3.46-6.85-3.41-15.28l-.15.15c.66.6,1.6,1.09,1.91,1.84.48,1.12.51,2.43,1.6,3.64.36-2.15.72-4.31,1.12-6.72,2,.82,1.07,2.57,1.47,3.77.5,1.54,1.41,3,1.56,4.57.44,4.59,2.37,8.74,3.45,13.13a56.73,56.73,0,0,1,.89,7.75Z" transform="translate(-18.82 -17.19)"/><path d="M973.16,593.16c-.32-.09-.88-.13-.91-.28-1-4.35-3-8.45-3.1-13-.06-2.27.25-4.6-1-6.73a4.62,4.62,0,0,1-.81-2.76c.84-5.07-2.36-9.5-2.14-14.43.08-1.93-.48-3.94.63-5.82,1.8.33,1.19,1.82,1.23,2.81.19,5.56,2.27,10.77,3,16.23.25,1.92.86,3.8,1,5.72.27,3.23.09,6.38,1.41,9.63,1,2.58.43,5.84.55,8.8Z" transform="translate(-18.82 -17.19)"/><path d="M947,531.34c1.63.29,2.07,1.48,1.94,2.86-.59,6.63,3.06,12.75,2.28,19.4,2.71,4.21,1.61,8.92,1.71,13.46,0,.53-.56,1.08-1.07,2-.61-3.5-.74-6.82-1.84-9.77-1.23-3.26,0-6.78-1.18-9.67-2.55-6.08-1.56-12.27-1.68-18.44Z" transform="translate(-18.82 -17.19)"/><path d="M955.07,711.24c-.29,2.73-3.3,1.64-4.43,3.18-4.18-.56-6.91-3.15-9.36-6.54v-9.26l4.9-5.34a68.49,68.49,0,0,1,7.07.09c.66.07,1.21,1.23,1.82,1.89l0,0c-1.83,0-3.66,0-5.49,0a2.19,2.19,0,0,0-2.46,2,2,2,0,0,0-2,2c-2,.37-2.11,1.89-2,3.46s-.58,3.82,2,4.39a2,2,0,0,0,2,2,2.21,2.21,0,0,0,2.46,2.06c1.82,0,3.65,0,5.47,0Z" transform="translate(-18.82 -17.19)"/><path d="M883.16,651.16c-.52-.32-1.51-.66-1.5-1,.16-4.71-3.06-8.73-2.73-13.45-3.21-3.52-1-8.36-3.11-12.34-1.71-3.17-.8-7,.08-12.78,1,5.37,1.49,8.56,2.23,11.7.81,3.49,2.23,6.88,2.71,10.4a50.92,50.92,0,0,0,1.84,9.64c.81,2.41.26,5.28.31,8Z" transform="translate(-18.82 -17.19)"/><path d="M984.07,654.74c-.45-3.61-2.85-6.49-3-10.24a34.81,34.81,0,0,0-2.1-10.45,28.61,28.61,0,0,1-1.73-12.52c0-.58.55-1.13.87-1.76.81,2.82,1.77,5.55,2.35,8.36.52,2.56-.06,5.58,1.1,7.71,1.56,2.87,1.3,5.71,1.65,8.62a21.9,21.9,0,0,0,1.29,3.66A8.86,8.86,0,0,1,984.07,654.74Z" transform="translate(-18.82 -17.19)"/><path d="M963.4,542.44c-.18-3.26.51-6.92-.76-9.68-1.51-3.26-.55-6.76-1.84-9.57-2.38-5.16-1.44-10.39-1.68-15.61,0-.55.52-1.13.8-1.7.2.18.58.35.57.52-.11,6.6,2.14,12.86,2.84,19.37.51,4.84,2.11,9.59,1.64,14.57a10,10,0,0,1-.5,1.84Z" transform="translate(-18.82 -17.19)"/><path d="M869,575.32c.64.63,1.71,1.18,1.84,1.91.63,3.49-.46,7.16,1.44,10.59,1.76,3.17-.09,7.16,2.15,10.45.81,1.19.64,3.19.55,4.79-.14,2.52.81,5.21-.94,7.69-2-7.27-2.76-14.64-4.59-21.82-1.1-4.33-.25-9.16-.28-13.77Z" transform="translate(-18.82 -17.19)"/><path d="M959.16,569.17c-.52-.32-1.4-.55-1.51-1-.91-3.76-.55-7.62-2.14-11.45-1.42-3.43-.62-7.57-2-11.45-1.23-3.49-.78-7.71.24-12.08a9.43,9.43,0,0,1,1.15,2.29c.39,3.86-.49,7.94,2,11.45-.43,7.56,3.17,14.74,2.1,22.36Z" transform="translate(-18.82 -17.19)"/><path d="M959,569.32c.64.62,1.85,1.27,1.82,1.87-.15,4,1.41,7.66,2,11.48.57,3.52.53,7,1.82,10.53,1,2.84.93,6.39-.81,10.7-.55-4-.33-7.18-1.48-9.69-1.33-2.9-.48-6-1.55-8.59-2.27-5.42-1.72-10.92-1.67-16.45Z" transform="translate(-18.82 -17.19)"/><path d="M981,701.3c.54.27,1.45.44,1.56.84,2.29,8.26,5,16.37,8,24.37.55,1.44.27,3.19.38,4.8l.11-.11a25.64,25.64,0,0,1-6-11.42c-.69-3.1-.87-6.48-2.28-9.23a17.51,17.51,0,0,1-1.68-9.34Z" transform="translate(-18.82 -17.19)"/><path d="M973.15,669.18c-3.22-1.86-3-5.58-3.68-8.37-1.16-4.7-2.44-9.38-3.71-14.06a19.85,19.85,0,0,1-.17-9.1c2.52,2.2,1.23,5,2.11,7.16,2.39,6,3,12.5,5.08,18.61.62,1.78.18,3.93.22,5.91Z" transform="translate(-18.82 -17.19)"/><path d="M971.15,637.18c-.53-.3-1.46-.53-1.53-.92-.62-3.18-1.41-6.3-2.2-9.44s-.93-6.3-2-9.48a14.71,14.71,0,0,1,.86-10.68c.51,4,.34,7.05,1.41,9.62s.81,5.17,1.52,7.6c1.28,4.43,2.28,8.8,1.76,13.43Z" transform="translate(-18.82 -17.19)"/><path d="M971,637.31c.51.32,1.31.53,1.5,1,1,2.38.68,5,1.57,7.55,1.47,4.18,1.78,8.8,2.86,13.2a7.65,7.65,0,0,1-.86,6c-1.66-3.24-1-6.65-2.73-9.64-1.36-2.37-.19-5.63-1.26-8.58s-.69-6.42-.94-9.66Z" transform="translate(-18.82 -17.19)"/><path d="M985.68,655.62c2.18,7.63,3.86,13,5.22,18.53.45,1.84.07,3.88.07,5.86-2.47.31-1.77-1.47-1.79-2.25-.12-3.71-1.81-7-3-10.28S984.93,661.17,985.68,655.62Z" transform="translate(-18.82 -17.19)"/><path d="M893.15,695.17c-.53-.3-1.37-.5-1.54-.94-1.76-4.86-2.43-10-4.25-14.9a5.44,5.44,0,0,1,.93-5.86c1.64,5.77,3.31,11.31,4.73,16.91.39,1.55,0,3.28,0,4.93Z" transform="translate(-18.82 -17.19)"/><path d="M973,593.32a3.92,3.92,0,0,1,.93.32c.25.16.57.41.61.66.85,4.77,1.78,9.52,2.41,14.31.25,1.87.55,3.91-.8,6.08a48.73,48.73,0,0,1-3-21.53Z" transform="translate(-18.82 -17.19)"/><path d="M895,701.34c.32.09.85.1.92.29,1.67,4.48,3.59,8.9,4.82,13.51.63,2.35,1,5.14-.59,7.51-1.44-4.6-3-9.13-4.22-13.77-.63-2.47-.54-5.12-.77-7.69Z" transform="translate(-18.82 -17.19)"/><path d="M997.15,703.17c-.32-.08-.86-.08-.92-.26-1.69-4.48-3.37-9-4.93-13.5a7.06,7.06,0,0,1-.14-2.94,32.71,32.71,0,0,1,1-4c1.48,7.84,5.7,13.68,4.83,20.82Z" transform="translate(-18.82 -17.19)"/><path d="M985,697.31c.53.3,1.46.53,1.53.92a33.86,33.86,0,0,0,3.48,9.09,7.47,7.47,0,0,1,.15,7.41c-1.66-4-3.28-7.81-5-11.91v-5.65Z" transform="translate(-18.82 -17.19)"/><path d="M907,743.33c.32.07.8,0,1,.23,2.77,3.72,3.64,8.23,5,12.52.24.75-.4,1.78-.89,3.7-2-6.1-5.53-10.68-4.92-16.59Z" transform="translate(-18.82 -17.19)"/><path d="M883,651.32c.32.1.86.14.91.31,1.38,4.91,3.5,9.68,3.07,15a11.5,11.5,0,0,1-.81,2.3c-2-2.89-.12-6.71-2.82-8.89l-.18-8.83Z" transform="translate(-18.82 -17.19)"/><path d="M1003,733.34l0-2.17c2.76.59,4.9-1.2,7-2.36a14.34,14.34,0,0,1,7.22-1.65c-1.84,3.44-5.81,3.43-8.68,5.2C1007,733.28,1004.85,733.05,1003,733.34Z" transform="translate(-18.82 -17.19)"/><path d="M981.12,701.21c-4.73-3.38-3.91-8.22-4-14.16,3.75,7.64,3.75,7.64,3.9,14.25Z" transform="translate(-18.82 -17.19)"/><path d="M999,709.32c3.76,2.87,4.55,6.66,3.64,11.27-3.62-3.26-3.85-7.24-3.51-11.4Z" transform="translate(-18.82 -17.19)"/><path d="M905.14,737.18c-3.68-2.88-4.63-6.61-3.38-12.16a65,65,0,0,1,2.5,6.55,45.26,45.26,0,0,1,.75,5.74Z" transform="translate(-18.82 -17.19)"/><path d="M957,697.29c.3.09.77.1.87.3a14.25,14.25,0,0,1,0,11.31c-.1.19-.57.2-.87.3l.1.1q0-6,0-12.08Z" transform="translate(-18.82 -17.19)"/><path d="M945,519.32c.63.57,1.76,1.12,1.8,1.73.21,3.42.16,6.86.2,10.29l.16-.15c-.62-.58-1.75-1.13-1.79-1.74-.21-3.42-.16-6.86-.2-10.29Z" transform="translate(-18.82 -17.19)"/><path d="M913.11,529.29c2-2.74,3.95-2.74,5.94,0l.06-.08H913Z" transform="translate(-18.82 -17.19)"/><path d="M905,737.31a2.2,2.2,0,0,1,1.93,2.46c0,1.19,0,2.37.06,3.56l.14-.14a2.22,2.22,0,0,1-1.93-2.47c0-1.18,0-2.36-.07-3.54Z" transform="translate(-18.82 -17.19)"/><path d="M999.14,709.19a2.2,2.2,0,0,1-1.93-2.46c0-1.19,0-2.37-.06-3.56l-.14.13a2.2,2.2,0,0,1,1.92,2.47c0,1.18.05,2.36.08,3.55Z" transform="translate(-18.82 -17.19)"/><path d="M893,695.31a2.18,2.18,0,0,1,1.92,2.47c0,1.19.05,2.37.07,3.56l.16-.15a2.18,2.18,0,0,1-1.94-2.46c0-1.18,0-2.37-.06-3.56Z" transform="translate(-18.82 -17.19)"/><path d="M1021.18,725.16c-.48,2.5-2.51,2-4.21,2.18C1017.44,724.81,1019.47,725.29,1021.18,725.16Z" transform="translate(-18.82 -17.19)"/><path d="M1003.16,727.33a9.41,9.41,0,0,1,.09-1.92,8.51,8.51,0,0,1,.83-1.69c1.32,1.71.94,2.85-1.08,3.47Z" transform="translate(-18.82 -17.19)"/><path d="M955.07,695.26a1.75,1.75,0,0,1,2,2l.07-.07a1.74,1.74,0,0,1-2-2Z" transform="translate(-18.82 -17.19)"/><path d="M957,709.2a1.79,1.79,0,0,1-2,2v0a1.75,1.75,0,0,1,2-2Z" transform="translate(-18.82 -17.19)"/><path d="M635,439.16l2.17.26c3.87,2.77,7.25,5.12,10.54,7.6a8.14,8.14,0,0,1,1.5,2.32A19,19,0,0,1,635,439.16Z" transform="translate(-18.82 -17.19)"/><path d="M623,427.16l2.16,0c1.17,3.48,4.52,5.11,6.64,7.79q1.71,2.17,3.4,4.37L632,439l-8.57-8.45C623.24,429.08,623.11,428.12,623,427.16Z" transform="translate(-18.82 -17.19)"/><path d="M623.17,425.16c0,.73,0,1.46,0,2.19a2.2,2.2,0,0,1-2.19-2.19Z" transform="translate(-18.82 -17.19)"/><path d="M1017.11,419.21h-12.38c-3.44-3.78-4.35-7.76-3.31-12.83l3.88-4.27a17.5,17.5,0,0,1,2.32-.73c2.86-.41,6,.65,8.49-1.62,2.21,2.13-.51,3.45-.85,5.22.56,1.77,1.59,3.6,1.59,5.42s-1.06,3.66-1.64,5.47c.62,1.16,1.23,2.29,1.84,3.41Zm-11.36-11.16c-.63,6,.18,6.85,6.29,6.78.43-.75.94-1.57,1.37-2.43s.75-1.66,1.18-2.62l-4.33-4.12Z" transform="translate(-18.82 -17.19)"/><path d="M1013.05,385.27c3.62,1.31,4.8,3.69,3.2,7.65-1.16-2.76-3.6-4.61-3.15-7.69Z" transform="translate(-18.82 -17.19)"/><path d="M1269.17,205.35c-2.77-.84-3.81-3.33-5.08-6.27-.71,2.25-1.18,3.74-1.68,5.31-1.9-.33-1.06-1.83-1.24-2.8a26.42,26.42,0,0,1-.22-3.1l-2.84-3h-7.61c-.43.55-1.15,1-1.17,1.55-.11,3,0,5.9,0,8.87,3.39,3.76,3.39,3.76,10.85,1.68.62,2.09-1.09,2.59-2.73,3.75H1249a1.88,1.88,0,0,0-2-2l-.48-4.17c-1.78,2.25-1.35,3.36.65,4a2,2,0,0,0,2,2v4.16l-5.9-4.77V196l6.62-6.47h8.3C1263,194.12,1268.35,198.13,1269.17,205.35Zm-22.62-7.08-.42-.59c-.19.19-.51.36-.53.56s.28.41.43.61Z" transform="translate(-18.82 -17.19)"/><path d="M1249,215.15c3.37,1.75,6,4,6.18,8.2C1251.82,221.59,1249,219.43,1249,215.15Z" transform="translate(-18.82 -17.19)"/><path d="M725.16,439.32c-2.1.57-3.61,1.73-4,4-4.75-1-4.75-1-5.8-4.92,1.45-1.42,2.08.93,3,.72,2.17.19,3.1-1.2,4.41-3v-7.33a2.72,2.72,0,0,0-3.26-1.4c-1.78.43-3.49,1.17-5.13,1.74-1.81-2.58-.53-3.94,1-5.06l6.05,1.14c2.8-2.16.73-5.41,3.14-8C725.78,425,724.71,432.18,725.16,439.32Z" transform="translate(-18.82 -17.19)"/><path d="M727,379.32c.52.3,1.45.53,1.52.91.76,4.18.71,8.34-.46,14.6-1.53-6.57-1-11.12-.92-15.64Z" transform="translate(-18.82 -17.19)"/><path d="M727.15,379.19c-.31-.09-.83-.12-.89-.3-1-3.22-3-6.15-3.18-9.65v0c2.49.48,3.54,2.26,3.79,4.53.2,1.83.11,3.69.15,5.53Z" transform="translate(-18.82 -17.19)"/><path d="M713,413.3c.52.31,1.38.53,1.5.94.58,2.15,1.24,4.37-.87,7.07-.19-3.12-.35-5.62-.5-8.12Z" transform="translate(-18.82 -17.19)"/><path d="M723.08,369.24c-1.34,0-1.9-.8-2-2.05l-.11.12a1.75,1.75,0,0,1,2.05,1.95Z" transform="translate(-18.82 -17.19)"/><path d="M2009,333.35c.33-.53.6-1.45,1-1.52,4.79-.82,9.62-1.19,14.43-2.18s9.87-.22,14.83-.21c.66,0,1.47-.19,2,.12,4.25,2.61,9,1.37,14.27,1.91l5.34,2.74c-.13.84-.23,1.47-.34,2.14a60.73,60.73,0,0,1-21.1,3c-6.27-.31-12.57-.25-18.85-.06a30,30,0,0,1-15.09-3.19c0-.63.06-1.26.11-2.4l3.59-.55c.11.31.12.82.33.92,3.83,1.76,7.63,3.33,12.06,3.23,9.32-.2,18.64-.06,27.74-.06l7.12-3.88C2039.39,333,2024.18,333.11,2009,333.35Z" transform="translate(-18.82 -17.19)"/><path d="M2061,312.25a37.09,37.09,0,0,1-16.55,3.08q-11.89-.34-23.81,0a31.59,31.59,0,0,1-15.17-3.16v-2l5.44-2.78H2057C2059.12,308.32,2060.93,309.13,2061,312.25Zm-44.45.87h33.12l5.26-3.13c-10.24-1-32.59-1-43.63,0Z" transform="translate(-18.82 -17.19)"/><path d="M1287,257.2c-.48,2.32-2.28,1.85-4.27,1.91-3-1.67-5.31-4.4-7.51-7.33v-7l2.83-5.15,3-.33-.07-.06c0,.7.09,1.4.13,2.1-.54.35-2.27-.08-1,1.47l.78-1.63,6.17.16-.17-.15.18,2.17h-3.06c-1,1.49-3.22,2.16-2.87,4.73a21.16,21.16,0,0,0,1.75,2.07c1.37,1.25,2.74,1.43,4-.37v-6.62l4.17,2.18-.15-.17v4.18l.15-.18c-2.32.56-1.92,2.52-2.14,4.16l.14-.15a2.34,2.34,0,0,0-2.14,2.15l.14-.14-4.14.15c-.21-.47-.41-1-.61-1.42l-.7.67,1.46.6c.36,2.5,2.39,1.89,4,2.12Zm-8.88-11.45c-1.54,1.61-1.41,3.24-.08,4.91A3.35,3.35,0,0,0,1278.16,245.75Z" transform="translate(-18.82 -17.19)"/><path d="M1055,389.35c.71-2.46,1.75-4.88,2-7.38a70.36,70.36,0,0,0,0-8.83l1.87,1v11.9Z" transform="translate(-18.82 -17.19)"/><path d="M1043,389.16h12.21c-.12.3-.15.74-.36.87-2.85,1.74-8.56,1.74-11.51,0C1043.1,389.91,1043.08,389.46,1043,389.16Z" transform="translate(-18.82 -17.19)"/><path d="M1057.18,373.35a2.22,2.22,0,0,1-2.21-2.2A2.14,2.14,0,0,1,1057.18,373.35Z" transform="translate(-18.82 -17.19)"/><path d="M829,429.2c-.08,1-.15,2-.23,3.05l-5.29,2.89h-5.35l-6.81-6.7V417.85l6-6c5.14-1.41,8.27.35,11.42,2.58.08.88.16,1.85.24,2.83l.11-.1-8.46-3.94a22.61,22.61,0,0,0-7.38,7.42v5.5c2.38,2.73,4.47,5.63,7.58,7.15l8.27-4Z" transform="translate(-18.82 -17.19)"/><path d="M829,417.3c.3.09.78.1.87.29a12.51,12.51,0,0,1,0,11.32c-.1.19-.58.2-.87.29l.12.11q0-6.06,0-12.11Z" transform="translate(-18.82 -17.19)"/><path d="M629,427.16l4.16,0c.72,1,1.22,2.59,2.21,3,6.27,2.72,11.17,8,18.19,9.42,2.4.49,4.34,2.87,6.68,4,5.28,2.52,10.93,4.07,16.56,5.64a48.69,48.69,0,0,0,8.51,1.94c2.67.24,5.24.36,7.52,1.91,5.84-.33,11.82,1.65,17.51-1.44,1.32-.72,3.23-.36,4.87-.5-.8,2.67-3.76,2.27-5.75,4.13-3.58,0-7.54-.19-11.48,0-6.32.38-12.27-1.69-18.26-2.92A105.76,105.76,0,0,1,647,440.07c-4.49-2.66-9.14-5.07-13.54-7.87C631.57,431,629.48,429.7,629,427.16Z" transform="translate(-18.82 -17.19)"/><path d="M1252,199.47h3.87c1.79,1.47,1.31,3.25.28,5.46l-3.41.48C1251.52,203.52,1252.26,201.56,1252,199.47Z" transform="translate(-18.82 -17.19)"/><path d="M655,203.33l5.46-1.27c1,1.35-.2,2.38-.44,3.58a8.65,8.65,0,0,0,.45,2.83c-1.25,1.34-2.8.56-4.32.25-.33-.53-.88-1-.94-1.59a34.64,34.64,0,0,1-.06-3.95Z" transform="translate(-18.82 -17.19)"/><path d="M655.16,203.18l-1.55-.86c1.54-1.14,1.07.49,1.4,1Z" transform="translate(-18.82 -17.19)"/><path d="M797,213.17l7.09,2.1,7.1-2.1c-.85,1.27-1.7,2.54-2.6,3.86h-8.5Z" transform="translate(-18.82 -17.19)"/><path d="M807,203.19l0,6.09.07-.07-5.44,1.11c-1.15-2-.6-4.11,0-6.23,1.66-1.3,3.58-.78,5.42-.78Z" transform="translate(-18.82 -17.19)"/><path d="M807,209.28l1.53.89c-1.5,1.23-1.18-.33-1.46-1Z" transform="translate(-18.82 -17.19)"/><path d="M809,201.15a2,2,0,0,1-2,2l.12.12a2.06,2.06,0,0,1,2-2Z" transform="translate(-18.82 -17.19)"/><path d="M605.12,385.19c-2.69-.78-2.4-3.72-4-5.49v-8.52l3.39-6.57,6.13-3.08c2.25,1.12,5.25.84,6.38,3.76l.09-.09-9.51.26a32,32,0,0,0-2.45,3.38c-2,3.8-3.29,7.57-.5,11.75.76,1.14.26,3.13.34,4.73Z" transform="translate(-18.82 -17.19)"/><path d="M617,365.29c2.9.6,4,3.17,5.82,5.33v8.89c-.65,1.62-1.52,3.35-3.79,3.73l0,0c.49-2.79,1-5.58,1.47-8.43-.44-3.34-3.78-5.78-3.44-9.63Z" transform="translate(-18.82 -17.19)"/><path d="M617,385.21a4.35,4.35,0,0,1-3.95,3.77,30.5,30.5,0,0,1-5.19.06l-2.77-3.85-.12.13c1,0,2.13-.38,2.93,0,3.11,1.47,6.13.4,9.18,0Z" transform="translate(-18.82 -17.19)"/><path d="M619.06,383.24a1.78,1.78,0,0,1-2,2l.08.08a1.83,1.83,0,0,1,2-2Z" transform="translate(-18.82 -17.19)"/><path d="M110.93,449.28l-6.75-3.82c-1.8-3.66-1.32-7-1.15-10.83l4.82-5.21h5.8c3.46,2.18,4.29,5.41,5.51,8.75C118,442.57,116.25,446.7,110.93,449.28Zm-1-15.44c-3.47,4.09-3.61,4.93-.95,8.26.49.63,1.64.74,2.38,1,3.21-1.74,4.22-4,2.82-7.26Z" transform="translate(-18.82 -17.19)"/><path d="M913,545.31a1.89,1.89,0,0,0-2-2c0-1.86.05-3.73,0-5.6a2.33,2.33,0,0,1,2.11-2.53c.06,2,.11,3.89.15,5.54l3.05,2.44c1-1.4,2.2-2.6,2.66-4,.33-1-.37-2.4-.64-3.75H913a2.4,2.4,0,0,1,2.56-2.12c1.87,0,3.74,0,5.61,0q0,5.05,0,10.13a1.92,1.92,0,0,0-2,2Z" transform="translate(-18.82 -17.19)"/><path d="M947,709.33a1.93,1.93,0,0,0-2-2v-8.14a1.88,1.88,0,0,0,2-2c1.19,0,2.39.11,3.59.09a2.18,2.18,0,0,1,2.42,2l.1-.1c-2.91,0-5.12,1-5.91,4,.13,2,1.76,2.74,3,3.83l2.94.32-.12-.1a2.18,2.18,0,0,1-2.41,2C949.41,709.23,948.21,709.3,947,709.33Z" transform="translate(-18.82 -17.19)"/><path d="M953,699.29c2.11.31,2.17,1.89,2.09,3.48-.08,1.75.6,3.91-2.1,4.44l.12.1c0-2.7,0-5.41,0-8.12Z" transform="translate(-18.82 -17.19)"/><path d="M822.58,417.48,825,419.9V426l-2.82,3c-2.77.2-3.9-1.43-5.05-3.19V420.4Zm-.73,3.83-2.43,1c-.06,1.62.1,2.9,2,2.73C822.89,424.86,823,424,821.85,421.31Z" transform="translate(-18.82 -17.19)"/><path d="M615.17,379.16l-2.68,3.72-4.69-2.39-2.64-5.27c.89-1.72,1.76-3.42,2.61-5.05a8.38,8.38,0,0,1,1.8-.79c2.72-.5,5.21-.25,7.31,3.25a30.23,30.23,0,0,1,0,4.89c-.08.68-1.23,1.22-1.9,1.83v-4.71c-1.24-1.91-2.31-3.63-5.27-2.82-.65,2.28-1.58,4.69.78,7.34Z" transform="translate(-18.82 -17.19)"/></svg>