<?xml version="1.0" encoding="UTF-8"?>
<svg xmlns="http://www.w3.org/2000/svg" width="66.598" height="80.216" viewBox="0 0 66.598 80.216">
  <g id="Component_1_1" data-name="Component 1 – 1" transform="translate(0.779 0.75)">
    <path id="Path_3" data-name="Path 3" d="M158.959,78.014a1.154,1.154,0,0,0,1.361-.9,21.411,21.411,0,0,0,.429-4.273,21.175,21.175,0,1,0-2.345,9.716,1.154,1.154,0,1,0-2.049-1.062,18.909,18.909,0,1,1,2.088-8.655,19.085,19.085,0,0,1-.383,3.809,1.157,1.157,0,0,0,.9,1.365Z" transform="translate(-107.088 -43.696)" fill="#04324f" stroke="#04324f" stroke-width="1.5"></path>
    <path id="Path_4" data-name="Path 4" d="M197.9,110.165a1.154,1.154,0,0,0-.933-.788l-7.515-1.08-3.346-6.836a1.16,1.16,0,0,0-2.07,0l-3.346,6.836-7.515,1.08a1.165,1.165,0,0,0-.64,1.975l5.447,5.3-1.3,7.5a1.162,1.162,0,0,0,1.675,1.221l6.713-3.557,6.713,3.557a1.162,1.162,0,0,0,1.675-1.221l-1.3-7.5,5.447-5.3A1.158,1.158,0,0,0,197.9,110.165Zm-7.784,5.258a1.159,1.159,0,0,0-.333,1.028l1,5.784-5.175-2.743a1.151,1.151,0,0,0-1.077,0l-5.175,2.743,1-5.784a1.159,1.159,0,0,0-.333-1.028l-4.2-4.089,5.794-.833a1.153,1.153,0,0,0,.872-.635l2.58-5.27,2.58,5.27a1.154,1.154,0,0,0,.872.635l5.794.833Z" transform="translate(-152.547 -85.322)" fill="#04324f" stroke="#04324f" stroke-width="1.5"></path>
    <path id="Path_5" data-name="Path 5" d="M109.342,68.751,98.071,49.171A29.1,29.1,0,0,0,62.9,3.647a1.156,1.156,0,0,0,1.119,2.023,26.862,26.862,0,1,1-4.249,2.936,1.155,1.155,0,0,0-1.485-1.77A29.181,29.181,0,0,0,55.917,49.2l-3.192,5.545a1.154,1.154,0,0,0,2,1.157l2.9-5.041A28.989,28.989,0,0,0,69.977,57.43L60.027,74.717l-2.545-8.035a1.153,1.153,0,0,0-1.346-.78l-8.211,1.807,4.107-7.135a1.154,1.154,0,1,0-2-1.157l-5.413,9.4a1.164,1.164,0,0,0,1.246,1.708L55.6,68.388l3.018,9.528a1.159,1.159,0,0,0,2.1.228L72.359,57.918a29.026,29.026,0,0,0,9.28-.006l6.992,12.148a1.154,1.154,0,1,0,2-1.157L84.021,57.421a28.991,28.991,0,0,0,12.345-6.587l9.672,16.8-8.211-1.807a1.153,1.153,0,0,0-1.346.78l-2.545,8.035-.616-1.07a1.154,1.154,0,1,0-2,1.157l1.922,3.339a1.159,1.159,0,0,0,2.1-.228l3.018-9.528L108.1,70.46a1.164,1.164,0,0,0,1.246-1.709Z" transform="translate(-44.462 0)" fill="#04324f" stroke="#04324f" stroke-width="1.5"></path>
  </g>
</svg>
