<?xml version="1.0" encoding="UTF-8"?>
<svg xmlns="http://www.w3.org/2000/svg" xmlns:xlink="http://www.w3.org/1999/xlink" width="53.321" height="53.321" viewBox="0 0 53.321 53.321">
  <defs>
    <clipPath id="clip-path">
      <path id="Path_102" data-name="Path 102" d="M0,33.045H53.321V-20.276H0Z" transform="translate(0 20.276)" fill="#fff"></path>
    </clipPath>
  </defs>
  <g id="Group_78" data-name="Group 78" transform="translate(0 20.276)">
    <g id="Group_77" data-name="Group 77" transform="translate(0 -20.276)" clip-path="url(#clip-path)">
      <g id="Group_67" data-name="Group 67" transform="translate(-0.001 -0.001)">
        <path id="Path_92" data-name="Path 92" d="M26.922,23.271H22.6V3.12a3.2,3.2,0,0,0-3.19-3.19H-.746V-11.089A1.631,1.631,0,0,1,.882-12.717h14.94A.781.781,0,0,0,16.6-13.5a.781.781,0,0,0-.781-.781H.882a3.193,3.193,0,0,0-3.19,3.19V-.07H-7.06a.781.781,0,0,0-.781.781.781.781,0,0,0,.781.781H19.406A1.628,1.628,0,0,1,21.031,3.12V35.852a1.627,1.627,0,0,1-1.625,1.628H-13.329a1.629,1.629,0,0,1-1.628-1.628v-8.16a.781.781,0,0,0-.781-.781.781.781,0,0,0-.781.781v8.16a3.2,3.2,0,0,0,3.19,3.19H19.406a3.2,3.2,0,0,0,3.19-3.19V24.833h4.326a.781.781,0,0,0,0-1.562" transform="translate(16.519 14.279)" fill="#fff"></path>
      </g>
      <g id="Group_68" data-name="Group 68" transform="translate(35.203 -0.001)">
        <path id="Path_93" data-name="Path 93" d="M9.252,0H-4.9a.781.781,0,0,0-.781.781.781.781,0,0,0,.781.781H9.252A1.631,1.631,0,0,1,10.88,3.19V35.923A1.631,1.631,0,0,1,9.252,37.55H6.2a.781.781,0,1,0,0,1.562H9.252a3.193,3.193,0,0,0,3.19-3.19V3.19A3.193,3.193,0,0,0,9.252,0" transform="translate(5.677)" fill="#fff"></path>
      </g>
      <g id="Group_69" data-name="Group 69" transform="translate(18.38 4.168)">
        <path id="Path_94" data-name="Path 94" d="M0,2.148A3.465,3.465,0,1,0,3.466-1.318,3.469,3.469,0,0,0,0,2.148m5.367,0a1.9,1.9,0,1,1-1.9-1.9,1.9,1.9,0,0,1,1.9,1.9" transform="translate(0 1.318)" fill="#fff"></path>
      </g>
      <g id="Group_70" data-name="Group 70" transform="translate(42.223 28.01)">
        <path id="Path_95" data-name="Path 95" d="M4.294,2.148A3.465,3.465,0,1,0,.828,5.614,3.469,3.469,0,0,0,4.294,2.148M.828,4.052a1.9,1.9,0,1,1,1.9-1.9,1.9,1.9,0,0,1-1.9,1.9" transform="translate(2.635 1.318)" fill="#fff"></path>
      </g>
      <g id="Group_71" data-name="Group 71" transform="translate(42.221 4.169)">
        <path id="Path_96" data-name="Path 96" d="M2.148,4.294A3.465,3.465,0,1,0-1.318.828,3.469,3.469,0,0,0,2.148,4.294m0-5.367a1.9,1.9,0,1,1-1.9,1.9,1.9,1.9,0,0,1,1.9-1.9" transform="translate(1.318 2.635)" fill="#fff"></path>
      </g>
      <g id="Group_72" data-name="Group 72" transform="translate(0 14.209)">
        <path id="Path_97" data-name="Path 97" d="M.484,15.429a.781.781,0,0,0,.781-.781V-6.277A1.629,1.629,0,0,1,2.893-7.9H5.515A.781.781,0,0,0,6.3-8.686a.781.781,0,0,0-.781-.781H2.893A3.193,3.193,0,0,0-.3-6.277V14.648a.781.781,0,0,0,.781.781" transform="translate(0.297 9.467)" fill="#fff"></path>
      </g>
      <g id="Group_73" data-name="Group 73" transform="translate(4.169 18.378)">
        <path id="Path_98" data-name="Path 98" d="M2.148,0A3.465,3.465,0,1,0,5.614,3.466,3.469,3.469,0,0,0,2.148,0m0,5.367a1.9,1.9,0,1,1,1.9-1.9,1.9,1.9,0,0,1-1.9,1.9" transform="translate(1.318)" fill="#fff"></path>
      </g>
      <g id="Group_74" data-name="Group 74" transform="translate(4.169 42.221)">
        <path id="Path_99" data-name="Path 99" d="M2.148,0A3.465,3.465,0,1,0,5.614,3.466,3.469,3.469,0,0,0,2.148,0m0,5.367a1.9,1.9,0,1,1,1.9-1.9,1.9,1.9,0,0,1-1.9,1.9" transform="translate(1.318)" fill="#fff"></path>
      </g>
      <g id="Group_75" data-name="Group 75" transform="translate(28.011 42.221)">
        <path id="Path_100" data-name="Path 100" d="M2.148,4.294A3.465,3.465,0,1,0-1.318.828,3.469,3.469,0,0,0,2.148,4.294m0-5.367a1.9,1.9,0,1,1-1.9,1.9,1.9,1.9,0,0,1,1.9-1.9" transform="translate(1.318 2.635)" fill="#fff"></path>
      </g>
      <g id="Group_76" data-name="Group 76" transform="translate(28.011 18.379)">
        <path id="Path_101" data-name="Path 101" d="M2.148,4.294A3.465,3.465,0,1,0-1.318.828,3.469,3.469,0,0,0,2.148,4.294m0-5.367a1.9,1.9,0,1,1-1.9,1.9,1.9,1.9,0,0,1,1.9-1.9" transform="translate(1.318 2.635)" fill="#fff"></path>
      </g>
    </g>
  </g>
</svg>
