<?xml version="1.0" encoding="UTF-8"?>
<svg xmlns="http://www.w3.org/2000/svg" width="88.603" height="79.212" viewBox="0 0 88.603 79.212">
  <g id="map" transform="translate(0.256 0.25)">
    <g id="Group_2" data-name="Group 2" transform="translate(0)">
      <g id="Group_1" data-name="Group 1">
        <path id="Path_1" data-name="Path 1" d="M88.078,104.46,82.917,76a1.293,1.293,0,1,0-2.544.461L82.554,88.5,65.73,68.952l11.316-2.526,1.676.933.727,4.012a1.293,1.293,0,0,0,2.545-.461L81.156,66.3a1.293,1.293,0,0,0-.643-.9l-2.64-1.47h0L69.53,59.283h0L63.093,55.7h0a1.283,1.283,0,0,0-.153-.072l-.05-.016c-.036-.013-.073-.025-.11-.034-.021-.005-.042-.008-.063-.013s-.067-.013-.1-.017-.045,0-.068,0-.065,0-.1,0l-.07,0c-.032,0-.064,0-.1.009l-.07.012c-.031.006-.062.013-.093.022l-.069.021c-.03.01-.06.022-.089.034l-.068.03-.03.013-2.954,1.54A25.144,25.144,0,0,0,62.219,45.36a18.087,18.087,0,1,0-36.175,0,25.222,25.222,0,0,0,3.371,11.983l-3.183-1.659-.03-.013c-.022-.011-.044-.02-.066-.029s-.06-.024-.09-.035l-.068-.021q-.046-.013-.093-.022l-.07-.012c-.031,0-.063-.007-.095-.009l-.071,0c-.032,0-.063,0-.095,0s-.047,0-.071.005-.064.01-.1.016-.045.008-.068.013-.07.021-.1.033c-.018.006-.036.011-.055.018a1.3,1.3,0,0,0-.152.072h0L7.586,65.4a1.292,1.292,0,0,0-.643.9L2.036,93.351a1.293,1.293,0,1,0,2.545.461L6.052,85.7l16.735-8.847L21.442,94.227,3,102.505l.649-3.579a1.293,1.293,0,1,0-2.544-.461l-1.087,6a1.293,1.293,0,0,0,1.8,1.41l20.849-9.361,20.84,9.357h0l.007,0,.036.014.058.022.057.019.037.01.049.013c.027.006.054.011.081.015l.039.007.026,0a1.268,1.268,0,0,0,.13.008h.025a1.286,1.286,0,0,0,.156-.011l.019,0,.029-.006a1.231,1.231,0,0,0,.121-.026l.033-.008h0l.01,0a1.281,1.281,0,0,0,.148-.055l20.848-9.361,20.848,9.361c.02.009.041.016.061.024s.04.017.061.024.055.016.082.023.034.01.051.014c.033.007.067.012.1.017l.036.006a1.278,1.278,0,0,0,.138.008h0a1.307,1.307,0,0,0,.188-.015l.043-.007a1.263,1.263,0,0,0,.184-.046l.011,0a1.194,1.194,0,0,0,.119-.048c.011-.005.021-.013.032-.019.033-.016.064-.035.1-.055s.062-.038.092-.06c.01-.008.022-.013.032-.021s.043-.038.064-.057.035-.03.051-.046a1.236,1.236,0,0,0,.108-.123l.02-.023a1.293,1.293,0,0,0,.1-.164c.008-.016.015-.033.023-.05a1.327,1.327,0,0,0,.054-.128c.008-.022.014-.044.02-.067q.018-.06.029-.123c0-.024.009-.048.012-.072a1.315,1.315,0,0,0,.009-.133c0-.021,0-.042,0-.064A1.2,1.2,0,0,0,88.078,104.46ZM65.35,59.916l-1.326.31-.085-1.1ZM62.529,74.408l-5.4-4.216a1.294,1.294,0,0,0-1.312-.167L45.348,74.582V73.165a60.735,60.735,0,0,0,4.69-4.3L61.7,63.745Zm-1.2-15.527.165,2.132-7.287,3.2q1.085-1.345,2.024-2.676Zm-34.553,0,5.36,2.794q1.191,1.674,2.611,3.372c.828.989,1.654,1.909,2.449,2.75L26.2,66.225ZM23.024,73.8,6.639,82.46l.8-4.4.02-.113L23.351,69.57Zm.564-7.277L8.044,74.714,9.378,67.36,24.16,59.131l-.371,4.8Zm.444,27.762,1.224-15.807,15.274,23.215ZM42.756,89.3,34.791,76.748l7.965.954Zm0-14.2L32.393,73.856a1.293,1.293,0,0,0-1.245,1.977l11.609,18.3v6.245l-17.175-26.1L26,68.809,40.27,70.85c1.076,1,1.948,1.74,2.486,2.183V75.1Zm1.376-4.287c-3.265-2.754-15.5-13.85-15.5-25.449a15.5,15.5,0,1,1,31,0C59.634,56.959,47.4,68.056,44.132,70.81Zm1.21,31.883v-5.74l3.866,4Zm6.373-2.862-6.373-6.6V77.4l10.8-4.7L62.8,77.9l1.269,16.385Zm12.51-37,4.483-1.048,3.179,1.77,1.759.979-9.132,2.038Zm2.431,31.392L65.648,81.193l16.611,20.039ZM65.3,76.723l-.351-4.537-.015-.192,18.53,21.524,1.188,6.551Z" transform="translate(0 -27.272)" fill="#04324f" stroke="#04324f" stroke-width="0.5"></path>
      </g>
    </g>
    <g id="Group_4" data-name="Group 4" transform="translate(36.141 10.096)">
      <g id="Group_3" data-name="Group 3" transform="translate(0 0)">
        <path id="Path_2" data-name="Path 2" d="M218.034,85.95a1.293,1.293,0,1,0,0,2.586,5.405,5.405,0,1,1-3.856,1.617,1.293,1.293,0,0,0-1.845-1.812,7.992,7.992,0,1,0,5.7-2.391Z" transform="translate(-210.042 -85.95)" fill="#04324f" stroke="#04324f" stroke-width="0.5"></path>
      </g>
    </g>
  </g>
</svg>
