<?xml version="1.0" encoding="UTF-8"?>
<svg xmlns="http://www.w3.org/2000/svg" xmlns:xlink="http://www.w3.org/1999/xlink" width="53.554" height="53.554" viewBox="0 0 53.554 53.554">
  <defs>
    <clipPath id="clip-path">
      <path id="Path_159" data-name="Path 159" d="M0,33.278H53.554V-20.276H0Z" transform="translate(0 20.276)" fill="#fff"></path>
    </clipPath>
  </defs>
  <g id="Group_136" data-name="Group 136" transform="translate(0 20.276)">
    <g id="Group_135" data-name="Group 135" transform="translate(0 -20.276)" clip-path="url(#clip-path)">
      <g id="Group_79" data-name="Group 79" transform="translate(-0.001 -0.001)">
        <path id="Path_103" data-name="Path 103" d="M27.112,23.435H22.767V3.2a3.209,3.209,0,0,0-3.2-3.2H-.677V-11.075A1.638,1.638,0,0,1,.958-12.71h15a.785.785,0,0,0,.784-.784.785.785,0,0,0-.784-.784h-15a3.207,3.207,0,0,0-3.2,3.2V-.008H-7.018A.785.785,0,0,0-7.8.776a.785.785,0,0,0,.784.784H19.563A1.636,1.636,0,0,1,21.2,3.2V36.071a1.634,1.634,0,0,1-1.632,1.635H-13.315a1.636,1.636,0,0,1-1.635-1.635v-8.2a.785.785,0,0,0-.784-.784.785.785,0,0,0-.784.784v8.2a3.209,3.209,0,0,0,3.2,3.2H19.563a3.209,3.209,0,0,0,3.2-3.2V25h4.345a.784.784,0,0,0,0-1.569" transform="translate(16.519 14.279)" fill="#fff"></path>
      </g>
      <g id="Group_80" data-name="Group 80" transform="translate(35.357 -0.001)">
        <path id="Path_104" data-name="Path 104" d="M9.317,0H-4.893a.785.785,0,0,0-.784.784.785.785,0,0,0,.784.784H9.317A1.638,1.638,0,0,1,10.952,3.2V36.079a1.638,1.638,0,0,1-1.635,1.635H6.256a.784.784,0,1,0,0,1.569H9.317a3.207,3.207,0,0,0,3.2-3.2V3.2A3.207,3.207,0,0,0,9.317,0" transform="translate(5.677)" fill="#fff"></path>
      </g>
      <g id="Group_81" data-name="Group 81" transform="translate(0 14.271)">
        <path id="Path_105" data-name="Path 105" d="M.487,15.538a.785.785,0,0,0,.784-.784V-6.263A1.636,1.636,0,0,1,2.907-7.9H5.54a.785.785,0,0,0,.784-.784.785.785,0,0,0-.784-.784H2.907a3.207,3.207,0,0,0-3.2,3.2V14.753a.785.785,0,0,0,.784.784" transform="translate(0.297 9.467)" fill="#fff"></path>
      </g>
      <g id="Group_82" data-name="Group 82" transform="translate(13.375 17.123)">
        <path id="Path_106" data-name="Path 106" d="M.486,0h0a.782.782,0,0,1,.782.782V8.605a.782.782,0,1,1-1.564,0V.782A.782.782,0,0,1,.486,0" transform="translate(0.296)" fill="#fff"></path>
      </g>
      <g id="Group_83" data-name="Group 83" transform="translate(18.851 17.123)">
        <path id="Path_107" data-name="Path 107" d="M.486,0h0a.782.782,0,0,1,.782.782V3.13A.782.782,0,0,1-.3,3.13V.782A.782.782,0,0,1,.486,0" transform="translate(0.296)" fill="#fff"></path>
      </g>
      <g id="Group_84" data-name="Group 84" transform="translate(18.851 25.649)">
        <path id="Path_108" data-name="Path 108" d="M.486,0h0a.782.782,0,0,1,.782.782V5.475a.782.782,0,1,1-1.564,0V.782A.782.782,0,0,1,.486,0" transform="translate(0.296)" fill="#fff"></path>
      </g>
      <g id="Group_85" data-name="Group 85" transform="translate(24.328 17.026)">
        <path id="Path_109" data-name="Path 109" d="M.486,0h0a.782.782,0,0,1,.782.782V8.605a.782.782,0,0,1-.782.784h0A.782.782,0,0,1-.3,8.605V.782A.782.782,0,0,1,.486,0" transform="translate(0.296)" fill="#fff"></path>
      </g>
      <g id="Group_86" data-name="Group 86" transform="translate(16.504 22.6)">
        <path id="Path_110" data-name="Path 110" d="M.486,0H5.179a.782.782,0,0,1,0,1.564H.486A.782.782,0,0,1,.486,0" transform="translate(0.296)" fill="#fff"></path>
      </g>
      <g id="Group_87" data-name="Group 87" transform="translate(21.199 27.996)">
        <path id="Path_111" data-name="Path 111" d="M.486,0H5.961a.782.782,0,1,1,0,1.564H.486A.782.782,0,0,1,.486,0" transform="translate(0.296)" fill="#fff"></path>
      </g>
      <g id="Group_88" data-name="Group 88" transform="translate(7.899 17.081)">
        <path id="Path_112" data-name="Path 112" d="M.486,0h0a.782.782,0,0,1,.782.782V3.13A.782.782,0,0,1-.3,3.13V.782A.782.782,0,0,1,.486,0" transform="translate(0.296)" fill="#fff"></path>
      </g>
      <g id="Group_89" data-name="Group 89" transform="translate(7.899 46.857)">
        <path id="Path_113" data-name="Path 113" d="M.486,0h0a.782.782,0,0,1,.782.782V3.13A.782.782,0,0,1-.3,3.13V.782A.782.782,0,0,1,.486,0" transform="translate(0.296)" fill="#fff"></path>
      </g>
      <g id="Group_90" data-name="Group 90" transform="translate(18.851 46.755)">
        <path id="Path_114" data-name="Path 114" d="M.486,0h0a.782.782,0,0,1,.782.782V3.13A.782.782,0,0,1-.3,3.13V.782A.782.782,0,0,1,.486,0" transform="translate(0.296)" fill="#fff"></path>
      </g>
      <g id="Group_91" data-name="Group 91" transform="translate(29.805 46.755)">
        <path id="Path_115" data-name="Path 115" d="M.486,0h0a.782.782,0,0,1,.782.782V3.13A.782.782,0,0,1-.3,3.13V.782A.782.782,0,0,1,.486,0" transform="translate(0.296)" fill="#fff"></path>
      </g>
      <g id="Group_92" data-name="Group 92" transform="translate(7.899 25.665)">
        <path id="Path_116" data-name="Path 116" d="M.486,0h0a.782.782,0,0,1,.782.782V5.475a.782.782,0,1,1-1.564,0V.782A.782.782,0,0,1,.486,0" transform="translate(0.296)" fill="#fff"></path>
      </g>
      <g id="Group_93" data-name="Group 93" transform="translate(3.205 22.6)">
        <path id="Path_117" data-name="Path 117" d="M.486,0H7.527a.782.782,0,1,1,0,1.564H.486A.782.782,0,0,1,.486,0" transform="translate(0.296)" fill="#fff"></path>
      </g>
      <g id="Group_94" data-name="Group 94" transform="translate(11.028 28.013)">
        <path id="Path_118" data-name="Path 118" d="M.486,0H5.179a.782.782,0,0,1,0,1.564H.486A.782.782,0,0,1,.486,0" transform="translate(0.296)" fill="#fff"></path>
      </g>
      <g id="Group_95" data-name="Group 95" transform="translate(29.821 17.106)">
        <path id="Path_119" data-name="Path 119" d="M.486,0h0a.782.782,0,0,1,.782.782V3.13A.782.782,0,0,1-.3,3.13V.782A.782.782,0,0,1,.486,0" transform="translate(0.296)" fill="#fff"></path>
      </g>
      <g id="Group_96" data-name="Group 96" transform="translate(29.805 25.683)">
        <path id="Path_120" data-name="Path 120" d="M.486,0h0a.782.782,0,0,1,.782.782V5.475a.782.782,0,0,1-.782.784h0A.782.782,0,0,1-.3,5.475V.782A.782.782,0,0,1,.486,0" transform="translate(0.296)" fill="#fff"></path>
      </g>
      <g id="Group_97" data-name="Group 97" transform="translate(27.474 22.583)">
        <path id="Path_121" data-name="Path 121" d="M.486,0H7.527a.782.782,0,1,1,0,1.564H.486A.782.782,0,0,1,.486,0" transform="translate(0.296)" fill="#fff"></path>
      </g>
      <g id="Group_98" data-name="Group 98" transform="translate(13.375 31.108)">
        <path id="Path_122" data-name="Path 122" d="M.486,0h0a.782.782,0,0,1,.782.782V5.475a.782.782,0,1,1-1.564,0V.782A.782.782,0,0,1,.486,0" transform="translate(0.296)" fill="#fff"></path>
      </g>
      <g id="Group_99" data-name="Group 99" transform="translate(24.328 31.108)">
        <path id="Path_123" data-name="Path 123" d="M.486,0h0a.782.782,0,0,1,.782.782V6.26a.782.782,0,0,1-.782.782h0A.782.782,0,0,1-.3,6.26V.782A.782.782,0,0,1,.486,0" transform="translate(0.296)" fill="#fff"></path>
      </g>
      <g id="Group_100" data-name="Group 100" transform="translate(16.504 33.659)">
        <path id="Path_124" data-name="Path 124" d="M.486,0H5.179a.782.782,0,0,1,0,1.564H.486A.782.782,0,0,1,.486,0" transform="translate(0.296)" fill="#fff"></path>
      </g>
      <g id="Group_101" data-name="Group 101" transform="translate(3.205 33.659)">
        <path id="Path_125" data-name="Path 125" d="M.486,0H7.527a.782.782,0,1,1,0,1.564H.486A.78.78,0,0,1-.3.782h0A.782.782,0,0,1,.486,0" transform="translate(0.296)" fill="#fff"></path>
      </g>
      <g id="Group_102" data-name="Group 102" transform="translate(27.457 33.455)">
        <path id="Path_126" data-name="Path 126" d="M.486,0H5.961a.782.782,0,1,1,0,1.564H.486A.782.782,0,0,1,.486,0" transform="translate(0.296)" fill="#fff"></path>
      </g>
      <g id="Group_103" data-name="Group 103" transform="translate(18.851 36.585)">
        <path id="Path_127" data-name="Path 127" d="M.486,0h0a.782.782,0,0,1,.782.782V4.693a.782.782,0,0,1-1.564,0V.782A.782.782,0,0,1,.486,0" transform="translate(0.296)" fill="#fff"></path>
      </g>
      <g id="Group_104" data-name="Group 104" transform="translate(21.981 38.931)">
        <path id="Path_128" data-name="Path 128" d="M.486,0H5.179a.782.782,0,0,1,0,1.564H.486A.782.782,0,0,1,.486,0" transform="translate(0.296)" fill="#fff"></path>
      </g>
      <g id="Group_105" data-name="Group 105" transform="translate(7.899 36.755)">
        <path id="Path_129" data-name="Path 129" d="M.486,0h0a.782.782,0,0,1,.782.782V4.693a.782.782,0,0,1-1.564,0V.782A.782.782,0,0,1,.486,0" transform="translate(0.296)" fill="#fff"></path>
      </g>
      <g id="Group_106" data-name="Group 106" transform="translate(11.028 39.068)">
        <path id="Path_130" data-name="Path 130" d="M.486,0H5.179a.782.782,0,0,1,0,1.564H.486A.782.782,0,0,1,.486,0" transform="translate(0.296)" fill="#fff"></path>
      </g>
      <g id="Group_107" data-name="Group 107" transform="translate(29.805 36.585)">
        <path id="Path_131" data-name="Path 131" d="M.486,0h0a.782.782,0,0,1,.782.782V4.693a.782.782,0,0,1-1.564,0V.782A.782.782,0,0,1,.486,0" transform="translate(0.296)" fill="#fff"></path>
      </g>
      <g id="Group_108" data-name="Group 108" transform="translate(13.375 42.112)">
        <path id="Path_132" data-name="Path 132" d="M.486,0h0a.782.782,0,0,1,.782.782V7.823a.782.782,0,0,1-1.564,0V.782A.782.782,0,0,1,.486,0" transform="translate(0.296)" fill="#fff"></path>
      </g>
      <g id="Group_109" data-name="Group 109" transform="translate(24.328 42.061)">
        <path id="Path_133" data-name="Path 133" d="M.486,0h0a.782.782,0,0,1,.782.782V7.823a.78.78,0,0,1-.782.782h0A.78.78,0,0,1-.3,7.823V.782A.782.782,0,0,1,.486,0" transform="translate(0.296)" fill="#fff"></path>
      </g>
      <g id="Group_110" data-name="Group 110" transform="translate(16.504 43.626)">
        <path id="Path_134" data-name="Path 134" d="M.486,0H5.179a.782.782,0,0,1,0,1.564H.486A.782.782,0,0,1,.486,0" transform="translate(0.296)" fill="#fff"></path>
      </g>
      <g id="Group_111" data-name="Group 111" transform="translate(3.205 43.762)">
        <path id="Path_135" data-name="Path 135" d="M.486,0H7.527a.782.782,0,1,1,0,1.564H.486A.782.782,0,0,1,.486,0" transform="translate(0.296)" fill="#fff"></path>
      </g>
      <g id="Group_112" data-name="Group 112" transform="translate(27.457 43.626)">
        <path id="Path_136" data-name="Path 136" d="M.486,0H7.527a.782.782,0,1,1,0,1.564H.486A.782.782,0,0,1,.486,0" transform="translate(0.296)" fill="#fff"></path>
      </g>
      <g id="Group_113" data-name="Group 113" transform="translate(3.205 28.013)">
        <path id="Path_137" data-name="Path 137" d="M.486,0H2.049a.782.782,0,1,1,0,1.564H.486A.782.782,0,0,1,.486,0" transform="translate(0.296)" fill="#fff"></path>
      </g>
      <g id="Group_114" data-name="Group 114" transform="translate(3.205 39.068)">
        <path id="Path_138" data-name="Path 138" d="M.486,0H2.049a.782.782,0,1,1,0,1.564H.486A.782.782,0,0,1,.486,0" transform="translate(0.296)" fill="#fff"></path>
      </g>
      <g id="Group_115" data-name="Group 115" transform="translate(32.933 28.03)">
        <path id="Path_139" data-name="Path 139" d="M.486,0H2.049a.782.782,0,1,1,0,1.564H.486A.782.782,0,0,1,.486,0" transform="translate(0.296)" fill="#fff"></path>
      </g>
      <g id="Group_116" data-name="Group 116" transform="translate(32.933 38.931)">
        <path id="Path_140" data-name="Path 140" d="M.486,0H2.049a.782.782,0,1,1,0,1.564H.486A.782.782,0,0,1,.486,0" transform="translate(0.296)" fill="#fff"></path>
      </g>
      <g id="Group_117" data-name="Group 117" transform="translate(27.457 2.867)">
        <path id="Path_141" data-name="Path 141" d="M.486,0h0a.782.782,0,0,1,.782.782V8.605a.782.782,0,1,1-1.564,0V.782A.782.782,0,0,1,.486,0" transform="translate(0.296)" fill="#fff"></path>
      </g>
      <g id="Group_118" data-name="Group 118" transform="translate(32.933 2.867)">
        <path id="Path_142" data-name="Path 142" d="M.486,0h0a.782.782,0,0,1,.782.782V3.13A.782.782,0,0,1-.3,3.13V.782A.782.782,0,0,1,.486,0" transform="translate(0.296)" fill="#fff"></path>
      </g>
      <g id="Group_119" data-name="Group 119" transform="translate(32.933 11.393)">
        <path id="Path_143" data-name="Path 143" d="M0,2.2V-.559a.782.782,0,0,1,.782-.782.78.78,0,0,1,.782.782v2.38" transform="translate(0 1.341)" fill="#fff"></path>
      </g>
      <g id="Group_120" data-name="Group 120" transform="translate(38.41 2.769)">
        <path id="Path_144" data-name="Path 144" d="M.486,0h0a.782.782,0,0,1,.782.782V8.605a.782.782,0,0,1-1.564,0V.782A.782.782,0,0,1,.486,0" transform="translate(0.296)" fill="#fff"></path>
      </g>
      <g id="Group_121" data-name="Group 121" transform="translate(30.586 8.344)">
        <path id="Path_145" data-name="Path 145" d="M.486,0H5.179a.782.782,0,0,1,.782.782h0a.78.78,0,0,1-.782.782H.486A.78.78,0,0,1-.3.782h0A.782.782,0,0,1,.486,0" transform="translate(0.296)" fill="#fff"></path>
      </g>
      <g id="Group_122" data-name="Group 122" transform="translate(21.981 2.824)">
        <path id="Path_146" data-name="Path 146" d="M.486,0h0a.782.782,0,0,1,.782.782V3.13A.782.782,0,0,1-.3,3.13V.782A.782.782,0,0,1,.486,0" transform="translate(0.296)" fill="#fff"></path>
      </g>
      <g id="Group_123" data-name="Group 123" transform="translate(43.887 32.498)">
        <path id="Path_147" data-name="Path 147" d="M.486,0h0a.782.782,0,0,1,.782.782V3.13A.782.782,0,0,1-.3,3.13V.782A.782.782,0,0,1,.486,0" transform="translate(0.296)" fill="#fff"></path>
      </g>
      <g id="Group_124" data-name="Group 124" transform="translate(21.98 11.408)">
        <path id="Path_148" data-name="Path 148" d="M0,2.148V-.527a.783.783,0,0,1,.782-.782.782.782,0,0,1,.782.782V2.217" transform="translate(0 1.309)" fill="#fff"></path>
      </g>
      <g id="Group_125" data-name="Group 125" transform="translate(17.287 8.344)">
        <path id="Path_149" data-name="Path 149" d="M.486,0H7.527a.783.783,0,0,1,.782.782h0a.782.782,0,0,1-.782.782H.486A.78.78,0,0,1-.3.782h0A.782.782,0,0,1,.486,0" transform="translate(0.296)" fill="#fff"></path>
      </g>
      <g id="Group_126" data-name="Group 126" transform="translate(43.903 2.85)">
        <path id="Path_150" data-name="Path 150" d="M.486,0h0a.782.782,0,0,1,.782.782V3.13A.782.782,0,0,1-.3,3.13V.782A.782.782,0,0,1,.486,0" transform="translate(0.296)" fill="#fff"></path>
      </g>
      <g id="Group_127" data-name="Group 127" transform="translate(43.887 11.426)">
        <path id="Path_151" data-name="Path 151" d="M.486,0h0a.782.782,0,0,1,.782.782V5.475a.782.782,0,1,1-1.564,0V.782A.782.782,0,0,1,.486,0" transform="translate(0.296)" fill="#fff"></path>
      </g>
      <g id="Group_128" data-name="Group 128" transform="translate(41.556 8.327)">
        <path id="Path_152" data-name="Path 152" d="M.486,0H7.527a.782.782,0,1,1,0,1.564H.486A.782.782,0,0,1,.486,0" transform="translate(0.296)" fill="#fff"></path>
      </g>
      <g id="Group_129" data-name="Group 129" transform="translate(41.539 19.198)">
        <path id="Path_153" data-name="Path 153" d="M.486,0H5.961a.782.782,0,1,1,0,1.564H.486A.782.782,0,0,1,.486,0" transform="translate(0.296)" fill="#fff"></path>
      </g>
      <g id="Group_130" data-name="Group 130" transform="translate(37.841 24.675)">
        <path id="Path_154" data-name="Path 154" d="M0,0H3.7A.782.782,0,0,1,4.48.782h0a.78.78,0,0,1-.782.782H0" fill="#fff"></path>
      </g>
      <g id="Group_131" data-name="Group 131" transform="translate(43.887 22.328)">
        <path id="Path_155" data-name="Path 155" d="M.486,0h0a.782.782,0,0,1,.782.782V4.693a.782.782,0,0,1-1.564,0V.782A.782.782,0,0,1,.486,0" transform="translate(0.296)" fill="#fff"></path>
      </g>
      <g id="Group_132" data-name="Group 132" transform="translate(41.539 29.369)">
        <path id="Path_156" data-name="Path 156" d="M.486,0H7.527a.783.783,0,0,1,.782.782h0a.782.782,0,0,1-.782.782H.486A.78.78,0,0,1-.3.782h0A.782.782,0,0,1,.486,0" transform="translate(0.296)" fill="#fff"></path>
      </g>
      <g id="Group_133" data-name="Group 133" transform="translate(47.015 13.774)">
        <path id="Path_157" data-name="Path 157" d="M.486,0H2.049a.784.784,0,0,1,.784.782h0a.782.782,0,0,1-.784.782H.486A.78.78,0,0,1-.3.782h0A.782.782,0,0,1,.486,0" transform="translate(0.296)" fill="#fff"></path>
      </g>
      <g id="Group_134" data-name="Group 134" transform="translate(47.015 24.675)">
        <path id="Path_158" data-name="Path 158" d="M.486,0H2.049a.784.784,0,0,1,.784.782h0a.782.782,0,0,1-.784.782H.486A.78.78,0,0,1-.3.782h0A.782.782,0,0,1,.486,0" transform="translate(0.296)" fill="#fff"></path>
      </g>
    </g>
  </g>
</svg>
