<?xml version="1.0" encoding="UTF-8"?>
<svg xmlns="http://www.w3.org/2000/svg" xmlns:xlink="http://www.w3.org/1999/xlink" width="78.712" height="78.712" viewBox="0 0 78.712 78.712">
  <defs>
    <clipPath id="clip-path">
      <path id="path21" d="M0-682.665H78.712v78.712H0Z" transform="translate(0 682.665)" fill="#04324f"></path>
    </clipPath>
  </defs>
  <g id="g15" transform="translate(0 0)">
    <g id="g17" transform="translate(0 0)">
      <g id="g19" clip-path="url(#clip-path)">
        <g id="g25" transform="translate(7.379 1.537)">
          <path id="path27" d="M-245.347,0l31.978,10.019V36.925a39.421,39.421,0,0,1-31.977,38.712h0a39.421,39.421,0,0,1-31.977-38.712V10.019L-245.344,0" transform="translate(277.322)" fill="none" stroke="#04324f" stroke-linecap="round" stroke-linejoin="round" stroke-miterlimit="10" stroke-width="4"></path>
        </g>
        <g id="g29" transform="translate(15.988 10.559)">
          <path id="path31" d="M-331.087-324.646a30.682,30.682,0,0,0,3.585-14.407v-20.582l-23.368-7.321-23.368,7.321v20.582a30.86,30.86,0,0,0,23.368,29.9,30.664,30.664,0,0,0,10.794-5.074" transform="translate(374.236 366.956)" fill="none" stroke="#04324f" stroke-linecap="round" stroke-linejoin="round" stroke-miterlimit="10" stroke-width="4"></path>
        </g>
        <g id="g33" transform="translate(26.269 28.291)">
          <path id="path35" d="M-78.99-161.879l-10.295-10.295,5.218-5.218,5.077,5.077,10.662-10.662,5.218,5.218Z" transform="translate(89.285 182.977)" fill="none" stroke="#04324f" stroke-linecap="round" stroke-linejoin="round" stroke-miterlimit="10" stroke-width="4"></path>
        </g>
        <g id="g37" transform="translate(55.224 58.588)">
          <path id="path39" d="M0,0H0" fill="none" stroke="#04324f" stroke-linecap="round" stroke-linejoin="round" stroke-miterlimit="10" stroke-width="4"></path>
        </g>
      </g>
    </g>
  </g>
</svg>
