<?xml version="1.0" encoding="UTF-8"?>
<svg xmlns="http://www.w3.org/2000/svg" xmlns:xlink="http://www.w3.org/1999/xlink" width="53.321" height="53.321" viewBox="0 0 53.321 53.321">
  <defs>
    <clipPath id="clip-path">
      <path id="Path_91" data-name="Path 91" d="M0,33.146H53.321V-20.175H0Z" transform="translate(0 20.175)" fill="#fff"></path>
    </clipPath>
  </defs>
  <g id="Group_56" data-name="Group 56" transform="translate(0 20.175)">
    <g id="Group_66" data-name="Group 66" transform="translate(0 -20.175)" clip-path="url(#clip-path)">
      <g id="Group_56-2" data-name="Group 56" transform="translate(41.555 12.167)">
        <path id="Path_81" data-name="Path 81" d="M3.656.142-2,5.792A.778.778,0,0,0-2,6.9a.772.772,0,0,0,.552.23.77.77,0,0,0,.55-.23L4.76,1.246a.781.781,0,1,0-1.1-1.1" transform="translate(2.225 0.086)" fill="#fff"></path>
      </g>
      <g id="Group_57" data-name="Group 57" transform="translate(26.426 4.157)">
        <path id="Path_82" data-name="Path 82" d="M1.653.142h0L-.776,2.571a.778.778,0,0,0,0,1.1.772.772,0,0,0,.552.23.781.781,0,0,0,.552-.23L2.758,1.246a.781.781,0,0,0-1.1-1.1" transform="translate(1.006 0.086)" fill="#fff"></path>
      </g>
      <g id="Group_58" data-name="Group 58" transform="translate(31.932 -0.002)">
        <path id="Path_83" data-name="Path 83" d="M.142,5.4a.778.778,0,0,0,1.1,0L8.377-1.727h9.737a1.629,1.629,0,0,1,1.261.6L9.511,8.739a.78.78,0,0,0,.552,1.332.789.789,0,0,0,.552-.227L19.742.715V9.659a.781.781,0,0,0,1.562,0V-.1a3.194,3.194,0,0,0-3.19-3.19H.895a.784.784,0,0,0-.782.782.782.782,0,0,0,.782.78H6.168L.142,4.3a.783.783,0,0,0,0,1.1" transform="translate(0.086 3.289)" fill="#fff"></path>
      </g>
      <g id="Group_59" data-name="Group 59" transform="translate(4.566 18.131)">
        <path id="Path_84" data-name="Path 84" d="M.485,7.208A.782.782,0,0,1-.067,5.873L9.965-4.157a.778.778,0,0,1,1.1,0,.783.783,0,0,1,0,1.1L1.037,6.978a.776.776,0,0,1-.552.23" transform="translate(0.295 4.387)" fill="#fff"></path>
      </g>
      <g id="Group_60" data-name="Group 60" transform="translate(4.566 18.704)">
        <path id="Path_85" data-name="Path 85" d="M.485,10.31A.782.782,0,0,1-.067,8.975L14.955-6.047a.783.783,0,0,1,1.1,0,.778.778,0,0,1,0,1.1L1.037,10.08a.776.776,0,0,1-.552.23" transform="translate(0.295 6.275)" fill="#fff"></path>
      </g>
      <g id="Group_61" data-name="Group 61" transform="translate(19.644 36.796)">
        <path id="Path_86" data-name="Path 86" d="M.485,4.471A.782.782,0,0,1-.067,3.136L5.562-2.493a.783.783,0,0,1,1.1,0,.778.778,0,0,1,0,1.1L1.037,4.241a.776.776,0,0,1-.552.23" transform="translate(0.295 2.721)" fill="#fff"></path>
      </g>
      <g id="Group_62" data-name="Group 62" transform="translate(30.274 39.081)">
        <path id="Path_87" data-name="Path 87" d="M.485,2.721A.782.782,0,0,1-.067,1.386L2.747-1.428a.783.783,0,0,1,1.1,0,.778.778,0,0,1,0,1.1L1.037,2.491a.776.776,0,0,1-.552.23" transform="translate(0.295 1.656)" fill="#fff"></path>
      </g>
      <g id="Group_63" data-name="Group 63" transform="translate(19.644 32.967)">
        <path id="Path_88" data-name="Path 88" d="M.485,10.31A.782.782,0,0,1-.067,8.975L14.955-6.047a.783.783,0,0,1,1.1,0,.778.778,0,0,1,0,1.1L1.037,10.08a.776.776,0,0,1-.552.23" transform="translate(0.295 6.275)" fill="#fff"></path>
      </g>
      <g id="Group_64" data-name="Group 64" transform="translate(0 -0.001)">
        <path id="Path_89" data-name="Path 89" d="M32.661,9.828a.782.782,0,0,0-.782.782v7.963l-5.267,5.267a.781.781,0,1,0,1.1,1.1l4.163-4.163V24.85l-6.716,6.718h-4.07l1.8-1.8a.781.781,0,0,0-1.1-1.1L19.233,31.22V27.152L29.477,16.908a.781.781,0,0,0-1.1-1.1l-9.139,9.139V20.875l3.283-3.28a.781.781,0,1,0-1.1-1.1l-2.178,2.175v-7.25a3.194,3.194,0,0,0-3.19-3.19H15.4l9.01-9.01a.78.78,0,0,0,0-1.1.778.778,0,0,0-1.1,0L13.188,8.226H1.591L5.186,4.632a.781.781,0,0,0-1.1-1.1l-4.7,4.7H-4.107V-2.792A1.628,1.628,0,0,1-2.482-4.42H1.57L-1.739-1.111a.783.783,0,0,0,0,1.1.785.785,0,0,0,.552.227A.785.785,0,0,0-.634-.006L3.78-4.42H9.388A.782.782,0,0,0,10.17-5.2a.782.782,0,0,0-.782-.78H-2.479a3.192,3.192,0,0,0-3.19,3.19V8.226H-16.69a3.194,3.194,0,0,0-3.19,3.19v4.578a.78.78,0,0,0,.782.78.779.779,0,0,0,.78-.78V11.385a1.6,1.6,0,0,1,1.6-1.6H16.072a1.6,1.6,0,0,1,1.6,1.6V44.176c0,.034,0,.069-.005.1v.005a1.6,1.6,0,0,1-1.594,1.491h-.005l-.024,0H-1.089a.782.782,0,0,0-.78.782.779.779,0,0,0,.78.78H16.043a3.192,3.192,0,0,0,3.19-3.19V33.131H30.254a3.2,3.2,0,0,0,3.19-3.19V10.61a.782.782,0,0,0-.782-.782m-.782,20.113a1.628,1.628,0,0,1-1.625,1.628H27.373l4.506-4.509Z" transform="translate(19.88 5.982)" fill="#fff"></path>
      </g>
      <g id="Group_65" data-name="Group 65" transform="translate(0 24.839)">
        <path id="Path_90" data-name="Path 90" d="M.974,15.8a.39.39,0,0,1,0-.056c0-.013,0-.026,0-.04V-8.833a.78.78,0,0,0-.78-.782.781.781,0,0,0-.782.782V15.678a3.2,3.2,0,0,0,3.19,3.19H14.554a.781.781,0,1,0,0-1.562H2.515V17.3H2.507l0,0A1.6,1.6,0,0,1,.974,15.8" transform="translate(0.593 9.615)" fill="#fff"></path>
      </g>
    </g>
  </g>
</svg>
