<svg xmlns="http://www.w3.org/2000/svg" xmlns:xlink="http://www.w3.org/1999/xlink" version="1.1" style="" xml:space="preserve" width="612" height="604"><rect id="backgroundrect" width="100%" height="100%" x="0" y="0" fill="none" stroke="none"/>
<style type="text/css">
	.st0{fill:none;}
</style>

<g class="currentLayer" style=""><title>Layer 1</title><g id="svg_1" class="selected" fill="#ffffff" fill-opacity="1">
	<g id="svg_2" fill="#ffffff" fill-opacity="1">
		<g id="svg_3" fill="#ffffff" fill-opacity="1">
			<path d="M508,230.2h-18.5l-8.3,6l-66.5-33.7c0,0-0.5-5.1-2.8-10.6c-2.3-5.5-7.8-7.9-13.4-8.3c-5.5-0.5-10.2-3.7-10.2-3.7     l-14.3-11.1c0,0,1.8-2.8,6.5,0c4.6,2.8,2.8,6.5,17.1,6.5c14.3,0,12.5-9.7,12.5-9.7v-6.9h-30.5v-2.8h33.2c6.5,0,6.9-2.3,6.9-2.3     s8.3-4.1,4.6-6.9c-3.7-2.8-8.8,3.7-8.8,3.7h-36.5v-2.8h31.4c0,0,0.5-3.2,0.5-7.8c0-4.6-6-5.1-6-5.1l-11.1-0.5v-3.2     c0-1.8-1.4-3.2-1.4-3.2s-5.1-3.2-7.9-6c-2.8-2.8-4.6-2.3-4.6-2.3h-86.8l-0.5,12l-0.6,0.9c5.8,2.2,13.5,5.4,17.2,8.3     c6.5,5.1,10.6,13.8,10.6,13.8s0.4,11.6,0.1,16.5c0.3,1,0.7,3.1,1.3,7.1c1.2,8.1,4.2,24.8,0.9,35.1c-3.7,11.5-7.4,19.4-22.2,32.3     c-14.8,12.9-37.4,17.5-52.2,20.8c-14.8,3.2-22.6,6.5-31.8,13.4c-9.2,6.9-15.7,24.4-15.7,39.8v8.2c0,0,1.2,3-3.2,7.4     c-4.4,4.4-10.2,4.2-10.2,4.2h-33.2l-13.4-58.6l9.3-8.5l-0.1-0.3l-18-12.9l-17.1,18.9l18,80.8H382c0,0-0.5-9.7-3.7-15.7     c-3.2-6-5.5-10.6-5.5-10.6h-58.6c0,0,2.8-6,3.2-14.3c0.5-8.3-0.5-13.9-0.5-13.9l56.8-30.5l41.1,82.6h62.8c0,0,1.4-7.4-2.3-11.5     c-3.7-4.2-6.9-11.1-6.9-11.1h-37.4L424,262h84l6.9-5.1V238L508,230.2z M370,133.2l4.6-6l7.8,8.3L370,133.2z" id="svg_4" fill="#ffffff" fill-opacity="1"/>
			<path d="M255,143.4h-169l6.9,13.6l4.8,8.8h160c0,0,33.2-0.6,29.5,34.6c-3.7,35.2-36.1,34-36.1,34h-88.9l0.1,4.1     c0,0,0.7,3.7,3.5,6.5c2.8,2.8,12.5,3.7,12.5,3.7l40.2,8.2c0,0,8.3,1.4,20.3,1.4c12,0,76.2-6.9,76.2-60.9     C315,143.4,255,143.4,255,143.4" id="svg_5" fill="#ffffff" fill-opacity="1"/>
			<path d="M250.2,230.7c0,0,28.9,1.1,32.2-30.3c3.3-31.4-26.3-30.9-26.3-30.9H99.7l14.4,26.4h123.5h12.7c0,0,2.4,0,2.2,2.5     c-0.3,2.6-2.6,2.5-2.6,2.5h-8.7H116.9l16.3,29.8h10.8H250.2z" id="svg_6" fill="#ffffff" fill-opacity="1"/>
			<path d="M515.3,212.4v-99L499,89.9l-15.5,24.2v98.5h-10.7v9.9l7.7,5.1H522l5.3-6.6v-8.7H515.3z M497,212.4h-3.8l-0.3-82.7     l4.1,5.6V212.4z" id="svg_7" fill="#ffffff" fill-opacity="1"/>
		</g>
	</g>
	<g id="svg_8" fill="#ffffff" fill-opacity="1">
		<path class="st0" d="M47.3,455.8c0,24.4,19.8,44.2,44.2,44.2h429.1c24.4,0,44.2-19.8,44.2-44.2v-403H47.3V455.8z" id="svg_9" fill="#ffffff" fill-opacity="1"/>
		<path d="M31.4,38.5v424.8c0,28.1,22.8,51,51,51.1c6.3,0.9,183.6,25.2,221.5,63.1l1.8,1.8l1.8-1.8c39.7-39.7,216-62.4,222.1-63.1    c28.1-0.1,51-23,51-51.1V38.5H31.4z M564.7,455.8c0,24.4-19.8,44.2-44.2,44.2H91.5c-24.4,0-44.2-19.8-44.2-44.2v-403h517.5V455.8z    " id="svg_10" fill="#ffffff" fill-opacity="1"/>
	</g>
	<g id="svg_11" fill="#ffffff" fill-opacity="1">
		<polygon class="st0" points="384.8,429.6 396.6,429.6 390.8,416.3   " id="svg_12" fill="#ffffff" fill-opacity="1"/>
		<path d="M136.9,402.8h2c1.1,0,2,0.2,2.7,0.6c0.6,0.4,1,0.8,1.2,1.2c0.1,0.3,0.3,1.2,0.3,4v28.9c0,2.8-0.2,3.6-0.3,3.9    c-0.3,0.6-0.6,1.1-1.1,1.3c-0.7,0.4-1.6,0.6-2.8,0.6h-2v2.2h23.9v-2.2h-2c-1.1,0-2-0.2-2.7-0.6c-0.6-0.4-1.1-0.8-1.3-1.2    c-0.1-0.3-0.3-1.3-0.3-4v-28.9c0-2.8,0.2-3.6,0.3-3.9c0.3-0.6,0.6-1.1,1.1-1.3c0.7-0.4,1.6-0.6,2.8-0.6h2v-2.2h-23.9V402.8z" id="svg_13" fill="#ffffff" fill-opacity="1"/>
		<path d="M229.7,402.9l0.5,0c2.3-0.1,3.9,0.5,4.8,1.6c0.7,0.8,1,2.5,1,5v17.4l-20.9-26.3h-16.3v2.2l0.5,0c1.2,0,2.2,0.2,2.9,0.6    c0.6,0.3,1.4,1.1,2.3,2.2l0.8,1v30.8c0,2.2-0.4,3.7-1.3,4.6c-0.9,0.9-2.4,1.3-4.7,1.3l-0.5,0v2.2h16.6v-2.2h-1.5    c-1.4,0-2.6-0.4-3.7-1.2c-1-0.8-1.5-2.4-1.5-4.7v-26.5l28.8,35.4l0.2,0.2h1.8v-37c0-2,0.2-3.4,0.5-4.2c0.3-0.7,0.7-1.3,1.3-1.6    c0.4-0.2,1.3-0.6,3.5-0.9l0.4-0.1v-2.1h-15.5V402.9z" id="svg_14" fill="#ffffff" fill-opacity="1"/>
		<path d="M331.7,442.3c-1.5-0.9-3.4-2.8-5.5-5.4L311.1,418l12.5-10c3.9-3.1,5.4-4.1,5.9-4.4c0.8-0.4,2-0.7,3.4-0.8l0.5,0v-2.2    h-18.1v2.2l0.5,0c2.3,0.1,3.1,0.3,3.3,0.4c0.8,0.4,1.1,0.9,1.1,1.5c0,0.6-0.6,1.9-3.2,4l-15.5,12.5v-12.6c0-2.8,0.2-3.7,0.3-3.9    c0.3-0.6,0.6-1,1.1-1.3c0.7-0.4,1.8-0.6,3.2-0.6h0.5v-2.2h-22.8v2.2h2c1.1,0,2,0.2,2.7,0.6c0.6,0.4,1,0.8,1.2,1.2    c0.1,0.3,0.3,1.3,0.3,4v28.8c0,2.8-0.2,3.6-0.3,3.9c-0.3,0.6-0.6,1.1-1.1,1.3c-0.7,0.4-1.6,0.6-2.8,0.6h-2v2.2h23.1v-2.2h-0.5    c-1.5,0-2.6-0.2-3.3-0.5c-0.6-0.3-1.1-0.8-1.3-1.2c-0.1-0.3-0.3-1.2-0.3-4.1v-11.7l1-0.9l9.7,12.2c2.5,3.2,2.9,4.4,2.9,4.8    c0,0.3-0.1,0.6-0.4,0.8c-0.2,0.1-0.7,0.4-2.5,0.6l-0.5,0v2.2h23.8v-2.2h-0.5C333.9,443.3,332.7,443,331.7,442.3z" id="svg_15" fill="#ffffff" fill-opacity="1"/>
		<path d="M415.2,442.3c-0.6-0.6-1.8-2.1-3.6-6.3l-15.9-36.3h-1.3L378.6,435c-1.5,3.3-2.7,5.4-3.7,6.5c-0.9,1-2.1,1.6-3.6,1.8    l-0.4,0.1v2.1h15.6v-2.2l-0.5,0c-2.7-0.2-3.7-0.5-4.1-0.7c-0.8-0.5-1.2-1.2-1.2-2.3c0-0.9,0.3-2,0.9-3.3l1.7-4h14.8l2.2,5.2    c0.7,1.6,0.9,2.2,0.9,2.4c0.1,0.4,0.2,0.7,0.2,1c0,0.5-0.2,0.8-0.5,1.1c-0.6,0.4-1.7,0.6-3.3,0.6h-1.4v2.2h22.2v-2.2l-0.5,0    C416.8,443.2,415.9,442.9,415.2,442.3z M396.6,429.6h-11.7l5.9-13.4L396.6,429.6z" id="svg_16" fill="#ffffff" fill-opacity="1"/>
		<path d="M487.2,424.6c-1.8-2.3-5.3-4.7-10.6-7.3c-3.6-1.8-6-3-6.9-3.7c-1.3-0.9-2.3-1.9-2.9-2.9c-0.4-0.7-0.6-1.5-0.6-2.3    c0-1.4,0.6-2.6,1.8-3.7c1.2-1.1,2.8-1.6,4.9-1.6c2.7,0,5.3,1.1,7.6,3.2c2.4,2.1,3.8,5,4.4,8.6l0.1,0.4h2.3l-0.4-15.6H485l-0.1,0.4    c-0.3,1.6-0.6,2.1-0.8,2.3c-0.2,0.2-0.5,0.4-1,0.4c-0.3,0-1.1-0.2-2.8-1c-1.5-0.7-2.8-1.2-3.8-1.5c-1.4-0.4-2.8-0.5-4.3-0.5    c-4,0-7.4,1.3-10,3.8c-2.7,2.6-4,5.7-4,9.3c0,2.1,0.5,4.1,1.5,5.9c1,1.7,2.3,3.3,4.1,4.8c1.8,1.4,4.7,3.1,8.7,5.1    c2.8,1.4,4.8,2.5,5.9,3.4c1,0.8,1.8,1.7,2.4,2.6c0.5,0.9,0.8,1.8,0.8,2.8c0,1.6-0.7,3-2,4.2c-1.3,1.2-3.2,1.8-5.4,1.8    c-3,0-5.8-1.2-8.4-3.5c-2.6-2.4-4.4-5.8-5.3-10.4l-0.1-0.4h-2.1v17.6h2l0.1-0.3c0.4-0.8,0.8-1.4,1.4-1.8c0.5-0.4,1-0.6,1.5-0.6    c0.6,0,1.4,0.2,2.4,0.6c1.9,0.8,3.5,1.3,4.7,1.6c1.3,0.3,2.6,0.4,4,0.4c4.5,0,8.3-1.4,11.2-4.1c2.9-2.7,4.4-6,4.4-9.8    C490,429.6,489,426.9,487.2,424.6z" id="svg_17" fill="#ffffff" fill-opacity="1"/>
	</g>
	<path d="M496.1,400.7c2.2,0,4,1.8,4,4.1c0,2.3-1.8,4.1-4,4.1c-2.2,0-4-1.8-4-4.1C492,402.5,493.8,400.7,496.1,400.7L496.1,400.7z    M496.1,401.3c-1.8,0-3.3,1.5-3.3,3.4c0,1.9,1.5,3.5,3.3,3.5c1.8,0,3.3-1.5,3.3-3.4C499.3,402.9,497.9,401.3,496.1,401.3   L496.1,401.3z M495.3,407.1h-0.7v-4.5c0.4-0.1,0.7-0.1,1.3-0.1c0.7,0,1.1,0.1,1.4,0.3c0.3,0.2,0.4,0.5,0.4,0.9c0,0.6-0.4,1-0.9,1.1   v0c0.4,0.1,0.7,0.4,0.8,1.1c0.1,0.7,0.2,1,0.3,1.1h-0.8c-0.1-0.1-0.2-0.6-0.3-1.2c-0.1-0.6-0.4-0.8-1-0.8h-0.5V407.1z M495.3,404.6   h0.5c0.6,0,1.1-0.2,1.1-0.8c0-0.4-0.3-0.8-1.1-0.8c-0.2,0-0.4,0-0.5,0V404.6z" id="svg_18" fill="#ffffff" fill-opacity="1"/>
</g></g></svg>