<svg width="113" height="40" viewBox="0 0 113 40" fill="none" xmlns="http://www.w3.org/2000/svg">
<path fill-rule="evenodd" clip-rule="evenodd" d="M54.575 15.9002L54.5733 20.3524L54.4407 20.1934C52.8535 18.3064 51.19 16.3299 51.153 16.2885L51.1177 16.2479C50.9892 16.0996 50.8129 15.8969 50.5032 15.8961L49.4537 15.8955L49.4512 23.2022L51.0733 23.2016L51.0747 18.6259C53.4391 21.4312 54.5769 22.7817 54.6106 22.8203C54.7554 22.9816 54.9882 23.1975 55.3343 23.2036H56.1963L56.1985 15.9002H54.575Z" fill="#324047"/>
<path fill-rule="evenodd" clip-rule="evenodd" d="M110.38 15.9132L110.379 20.3668L110.245 20.2069C108.64 18.2991 106.995 16.3429 106.957 16.3009L106.92 16.2589C106.793 16.1115 106.616 15.9099 106.307 15.9091L105.258 15.9085L105.257 23.2146L106.877 23.2152L106.879 18.639C109.392 21.6197 110.386 22.7975 110.416 22.8333C110.559 22.9946 110.79 23.2099 111.138 23.216L112 23.2166L112.002 15.9132H110.38Z" fill="#324047"/>
<path fill-rule="evenodd" clip-rule="evenodd" d="M39.9463 15.8964L39.9443 23.1997L41.5839 23.2003L41.5861 15.8969L39.9463 15.8964Z" fill="#324047"/>
<path fill-rule="evenodd" clip-rule="evenodd" d="M81.1725 21.8382C79.8518 21.8377 78.855 20.849 78.8553 19.5377C78.8558 18.2487 79.8438 17.2762 81.1543 17.277C82.4747 17.277 83.4707 18.266 83.4704 19.5764C83.4693 20.866 82.4821 21.8385 81.1725 21.8382ZM85.1391 19.4755C85.1062 17.3764 83.4002 15.7945 81.171 15.7939C78.9351 15.7931 77.1822 17.4542 77.1816 19.5748C77.1805 21.709 78.8879 23.3189 81.1506 23.3181C83.3517 23.3195 85.104 21.6965 85.1382 19.6301C85.1493 19.5753 85.1487 19.522 85.1391 19.4755Z" fill="#324047"/>
<path fill-rule="evenodd" clip-rule="evenodd" d="M94.3221 21.7298L94.3246 15.9093L92.6823 15.9084L92.6807 23.2121L98.2397 23.2132V21.7311L94.3221 21.7298Z" fill="#324047"/>
<path fill-rule="evenodd" clip-rule="evenodd" d="M32.5738 23.1977L27.0137 23.1971L27.0151 15.8938H28.6565L28.6551 21.7143L32.5738 21.7154V23.1977Z" fill="#324047"/>
<path fill-rule="evenodd" clip-rule="evenodd" d="M69.2136 20.7614L68.9174 21.0259C68.3547 21.527 67.8039 21.8624 66.9427 21.8616C65.6565 21.861 64.6492 20.8392 64.6503 19.5349C64.6503 18.2298 65.6361 17.2472 66.9438 17.2472C67.6596 17.2472 68.2333 17.4831 68.8592 18.0382L69.1676 18.3124L70.2932 17.1858L69.9821 16.9141C69.3052 16.3189 68.4692 15.7672 66.9549 15.7666C64.7251 15.7652 62.9791 17.4372 62.9785 19.5728C62.978 21.7214 64.6735 23.3425 66.9226 23.343C68.4799 23.343 69.3681 22.702 70.0326 22.0738L70.3341 21.7876L69.2136 20.7614Z" fill="#324047"/>
<path fill-rule="evenodd" clip-rule="evenodd" d="M8.90556 35.5892C8.7031 36.5704 8.44934 36.5962 7.70515 36.6922C7.56558 36.7102 7.43539 36.7255 7.30409 36.74L7.30354 36.7425C7.20976 36.7556 7.18273 36.7837 7.15266 36.9761C7.09446 37.3535 7.06109 37.5354 6.94358 38.2454C6.94358 38.2454 6.92097 38.5193 6.625 38.5827C6.8567 32.4661 6.95296 22.5922 6.95296 22.0249C6.95296 20.8212 7.08646 20.4249 8.68462 20.3343C9.44811 20.2912 10.568 20.2008 11.3668 20.1438C11.3147 20.3254 11.2656 20.3782 11.1842 20.4124C11.0184 20.4819 10.9028 20.5156 10.6408 20.614C10.5045 20.6647 10.4243 20.7136 10.4265 20.8413C10.4265 20.8716 10.4262 20.8897 10.4262 20.9027L10.4243 20.9033C10.2968 28.7425 9.05561 34.8625 8.90556 35.5892ZM4.75731 38.2455C4.64036 37.5354 4.60671 37.3536 4.54851 36.9762C4.51817 36.781 4.49141 36.7548 4.3946 36.7417L4.39377 36.7401C4.26247 36.7256 4.13283 36.7103 3.99299 36.6922C3.24852 36.5963 2.99531 36.5704 2.7923 35.5893C2.64253 34.8626 1.4013 28.7426 1.27386 20.9033L1.27166 20.9028C1.27166 20.8897 1.27138 20.8716 1.27138 20.8413C1.27386 20.7137 1.19332 20.6647 1.05761 20.6141C0.795298 20.5157 0.67945 20.482 0.514228 20.4125C0.432858 20.3783 0.384036 20.326 0.333008 20.1486C1.13264 20.2053 2.26299 20.2918 3.01683 20.3343C4.61471 20.425 4.74849 20.8213 4.74849 22.0249C4.74849 22.5909 4.84585 32.4531 5.07893 38.5842C4.78021 38.5216 4.75731 38.2455 4.75731 38.2455ZM2.79341 3.52081C2.99642 2.53909 3.24963 2.51323 3.99409 2.41812C4.13394 2.39976 4.26358 2.38447 4.39487 2.37L4.39542 2.36945C4.49252 2.3561 4.51927 2.33023 4.54961 2.13473C4.60781 1.75789 4.64146 1.57546 4.75842 0.865452C4.75842 0.865452 4.78131 0.59124 5.07865 0.527832C4.85082 6.71707 4.74959 16.5598 4.74959 17.0851C4.74959 18.2888 4.61581 18.6853 3.01793 18.7755C2.21334 18.8211 1.04106 18.9137 0.333008 18.9651C0.384864 18.7849 0.43341 18.7318 0.515331 18.6973C0.680553 18.6283 0.796401 18.5941 1.05872 18.4962C1.19442 18.4456 1.27497 18.3964 1.27248 18.2682C1.27248 18.2387 1.27276 18.2198 1.27276 18.2073L1.27497 18.2067C1.4024 10.3667 2.64363 4.24694 2.79341 3.52081ZM6.94496 0.865507C7.06247 1.57551 7.09584 1.75795 7.15404 2.13478C7.18411 2.32806 7.21114 2.35532 7.30492 2.36922L7.30547 2.37006C7.43677 2.38452 7.56696 2.39982 7.70653 2.41817C8.45072 2.51328 8.70448 2.53915 8.90694 3.52086C9.05699 4.24699 10.2982 10.3667 10.4257 18.2068L10.4276 18.2076C10.4276 18.2204 10.4279 18.2388 10.4279 18.2682C10.4257 18.3965 10.5059 18.4457 10.6422 18.4963C10.9042 18.5942 11.0198 18.6284 11.1856 18.6974C11.2678 18.7321 11.3163 18.7852 11.3684 18.9677C10.7288 18.921 9.4837 18.8206 8.686 18.7755C7.08784 18.6854 6.95434 18.2888 6.95434 17.0852C6.95434 16.5251 6.85752 6.70851 6.625 0.527886C6.92234 0.591572 6.94496 0.865507 6.94496 0.865507ZM11.701 19.555C11.6874 18.7488 11.6877 18.776 11.6839 18.4771C11.6839 18.4765 11.6839 18.4765 11.6839 18.4757C11.5984 10.8428 10.6307 4.53145 10.1665 1.69227C9.97565 0.528123 9.88849 0.412153 8.65746 0.229437C8.03877 0.137106 7.48408 0.0731418 6.95421 0.0344851V0.0355975L6.95449 0.0358756C6.47896 0.00250295 5.852 0 5.852 0C5.852 0 5.222 0.00305916 4.7462 0.0361537L4.74675 0.0355975V0.0344851C4.21743 0.0731418 3.66246 0.137106 3.0435 0.229437C1.81192 0.412153 1.72559 0.528123 1.53472 1.69227C1.06967 4.53145 0.10316 10.8428 0.0176531 18.4757C0.0176531 18.4765 0.0173773 18.4765 0.0173773 18.4771C0.0132398 18.776 0.0137915 18.7488 0 19.555C0.0137915 20.3612 0.0132398 20.334 0.0173773 20.6329C0.0173773 20.6335 0.0176531 20.6338 0.0176531 20.6343C0.10316 28.2669 1.06967 34.5785 1.53472 37.4177C1.72559 38.5822 1.81192 38.6976 3.0435 38.8808C3.60178 38.9634 4.10655 39.0229 4.5887 39.0616C4.59035 39.0616 4.59228 39.063 4.59422 39.063C5.07333 39.1083 5.852 39.1111 5.852 39.1111C5.852 39.1111 6.63066 39.1083 7.11033 39.063C7.11254 39.063 7.1153 39.0616 7.11723 39.0611C7.59827 39.0224 8.10139 38.9634 8.65746 38.8808C9.88849 38.6976 9.97565 38.5822 10.1665 37.4177C10.6307 34.5785 11.5984 28.2669 11.6839 20.6343C11.6839 20.6338 11.6839 20.6335 11.6839 20.6329C11.6877 20.334 11.6874 20.3612 11.701 19.555Z" fill="#324047"/>
</svg> 