<?xml version="1.0" encoding="UTF-8"?>
<svg xmlns="http://www.w3.org/2000/svg" version="1.1" viewBox="0 0 500 500">
  <!-- Generator: Adobe Illustrator 28.7.1, SVG Export Plug-In . SVG Version: 1.2.0 Build 142)  -->
  <g>
    <g id="Layer_1">
      <g id="xre9rB">
        <g>
          <path d="M4.9,278.8c0-55.9,0-114.8,0-170.8,0-10.5,9.1-18.1,18.4-27.8,9.4-9.7,19-18.5,23.5-19.9,7.7-3.2,14.2-2.9,17-2.9,70.9-.2,141.9-.2,212.8-.3,6.3,0,10.3,3,12.9,8.3,3.3,6.9,1.8,15.7-3.3,20.4-2.9,2.7-6.3,3.9-10.2,3.9-70.9,0-141.9,0-212.8-.1-3.4,0-5.9.9-8.4,3.3-4.6,4.5-9.6,8.5-14.2,13-1.1,1.1-2.1,3-2.1,4.5-.2,25.1-.2,50.1-.3,75.2-.2,84.8-.4,169.7-.5,254.5,0,1.4.5,3.2,1.4,4.1,5.8,6,11.7,11.9,17.8,17.6,1.4,1.3,3.8,2.4,5.7,2.4,109.8.1,219.6.1,329.4,0,1.5,0,3.3-.8,4.4-1.8,5.9-5.9,11.8-11.8,17.4-18,1-1.1,1.6-3.2,1.6-4.8,0-53.3,0-106.5,0-159.8,0-16.5.4-32.9.5-49.4,0-6.7,3.5-11.3,9.3-13.9,6-2.7,11.9-1.8,16.9,2.6,3.2,2.9,5.3,6.3,5.3,11-.1,69.8,0,139.7-.2,209.5,0,9.6-2.7,18.4-9.5,25.5-7,7.4-14.1,14.7-21.4,21.7-7.1,6.9-15.5,10.1-25.8,10.1-108.7-.2-217.4-.2-326.1,0-13.4,0-24.7-3.4-34-13.1-5.9-6.1-11.9-12.1-17.7-18.2-5.5-5.9-7.8-13-7.8-21.2.1-55.3,0-110.6,0-165.9h0Z"/>
          <path d="M366.5,67.4c-2.3-1.7-4.6-3.1-6.3-4.8-11.7-11.6-23.3-23.3-34.8-35-6.4-6.6-5.9-16.6,1.6-21.8,2.6-1.8,6.5-2.5,9.8-2.6,31-.1,62,0,93,0,15.4,0,30.7-.5,46.1-.5,3.4,0,7.1.6,10.2,1.8,6,2.4,9.2,7.2,9.2,13.9-.2,38.7-.4,77.4-.5,116.1,0,9.7.4,19.4.6,29,0,6.4-3,11.1-8.6,13.4-5.6,2.3-11.5,1.2-16-3.3-9.9-10.1-19.8-20.2-29.8-30.3-1-1-2.1-1.9-2.8-2.5-13.6,13.3-27.1,26.4-40.3,39.6-30.3,30.3-60.4,60.8-90.6,91.2-6.6,6.6-13,13.3-19.6,19.9-7.3,7.2-17.1,7.3-24.3,0-16.3-16.2-32.5-32.5-48.6-48.9-7.2-7.3-7-16.1.2-23.4,47.2-47.5,94.4-94.9,141.6-142.3,2.9-2.9,5.9-5.7,9.9-9.7Z"/>
        </g>
      </g>
    </g>
  </g>
</svg>