<?xml version="1.0" encoding="UTF-8"?> <svg xmlns="http://www.w3.org/2000/svg" width="721" height="807" viewBox="0 0 721 807" fill="none"><path d="M517.019 231.272H354.82L287.892 346.91L159.217 252.557L150.321 264.719L267.226 350.402H147.248V439.111H125.648V469.218H147.264V503.329H245.681C249.415 531.494 273.348 553.366 302.568 553.366C331.741 553.366 355.675 531.494 359.394 503.329H517.031L517.019 231.272ZM302.555 538.313C279.058 538.313 259.955 519.225 259.955 495.773C259.955 472.321 279.073 453.264 302.555 453.264C326.022 453.264 345.11 472.351 345.11 495.773C345.11 519.225 326.007 538.313 302.555 538.313ZM501.965 488.245H359.381C355.662 460.081 331.729 438.208 302.555 438.208C273.351 438.208 249.402 460.081 245.668 488.245H162.302V365.458H294.545L363.503 246.326H501.962V488.245H501.965ZM326.007 367.307L379.748 274.518H451.025V367.307H326.007ZM130.3 308.268C130.3 296.227 140.069 286.456 152.128 286.456C164.187 286.456 173.955 296.227 173.955 308.268C173.955 320.325 164.187 330.08 152.128 330.08C140.069 330.08 130.3 320.327 130.3 308.268ZM115.908 276.688C106.485 276.688 98.8535 269.026 98.8535 259.618C98.8535 250.211 106.485 242.564 115.908 242.564C125.33 242.564 132.962 250.211 132.962 259.618C132.962 269.026 125.333 276.688 115.908 276.688ZM139.017 214.458C139.017 206.99 145.084 200.91 152.579 200.91C160.074 200.91 166.127 206.993 166.127 214.458C166.127 221.955 160.074 228.035 152.579 228.035C145.084 228.035 139.017 221.953 139.017 214.458Z" fill="#EEEEEE"></path><circle cx="317.5" cy="403.5" r="396.5" stroke="#EEEEEE" stroke-width="14"></circle></svg> 