<?xml version="1.0" encoding="UTF-8"?> <svg xmlns="http://www.w3.org/2000/svg" width="666" height="690" viewBox="0 0 666 690" fill="none"><path d="M545.2 311.681C534.757 264.81 506.686 224.813 466.16 199.058C441.135 183.155 412.654 173.722 383.325 171.514C383.07 168.639 382.47 165.758 381.469 162.932C377.001 150.322 365.96 141.622 352.655 140.228L320.072 136.813C302.147 134.935 284.561 141.166 271.817 153.908L172.86 252.865C160.118 265.607 153.886 283.195 155.764 301.119L159.179 333.703C160.574 347.007 169.274 358.048 181.883 362.516C184.712 363.518 187.596 364.137 190.475 364.391C194.794 420.827 225.314 472.008 273.3 502.503C303.129 521.46 336.462 530.504 369.435 530.502C428.936 530.497 487.236 501.036 521.452 447.21C547.209 406.683 555.642 358.551 545.2 311.681ZM233.405 338.681L273.597 298.489C274.794 299.117 276.088 299.437 277.374 299.437C280.068 299.437 282.708 298.108 284.273 295.678C284.264 295.678 284.264 295.678 284.264 295.678C285.913 293.109 285.945 289.974 284.633 287.453L310.518 261.568C311.972 262.72 313.775 263.346 315.621 263.346C316.977 263.346 318.361 263.009 319.635 262.29C323.576 260.06 324.969 255.063 322.739 251.122C322.526 250.743 322.28 250.396 322.019 250.067L357.631 214.455C387.852 211.728 417.363 218.902 443.136 235.28C506.814 275.757 525.696 360.501 485.228 424.186C465.618 455.035 435.169 476.402 399.489 484.35C363.81 492.298 327.171 485.877 296.321 466.268C274.343 452.298 256.904 432.515 245.893 409.059C235.571 387.071 231.286 362.798 233.405 338.681ZM175.474 331.994L172.059 299.411C170.698 286.424 175.213 273.682 184.446 264.449L283.402 165.493C292.635 156.26 305.373 151.747 318.362 153.106L350.946 156.522C358.015 157.263 363.651 161.704 366.024 168.402C368.396 175.1 366.813 182.099 361.788 187.124L206.077 342.837C201.052 347.862 194.049 349.444 187.356 347.072C180.657 344.699 176.215 339.062 175.474 331.994ZM507.624 438.422C476.524 487.347 423.546 514.124 369.462 514.122C339.498 514.121 309.193 505.902 282.087 488.675C238.105 460.724 210.259 413.646 206.709 361.83C210.263 360.321 213.595 358.194 216.556 355.477C217.208 376.348 222.112 396.954 231.063 416.021C243.398 442.299 262.926 464.454 287.534 480.096C312.414 495.911 340.649 504.065 369.434 504.064C380.611 504.064 391.878 502.832 403.054 500.343C443.006 491.443 477.1 467.518 499.059 432.974C544.371 361.663 523.228 266.775 451.927 221.452C428.655 206.663 401.733 198.474 374.393 197.62C377.124 194.651 379.26 191.312 380.773 187.743C407.886 189.56 434.248 198.189 457.374 212.885C494.206 236.293 519.718 272.645 529.209 315.244C538.699 357.843 531.033 401.588 507.624 438.422Z" fill="#6F6F6F"></path><path d="M325.611 420.191C338.965 428.678 354.12 433.055 369.569 433.055C375.571 433.055 381.617 432.394 387.618 431.057C409.062 426.279 427.361 413.436 439.145 394.894C450.93 376.353 454.789 354.331 450.011 332.887C445.233 311.443 432.391 293.144 413.849 281.359C375.572 257.031 324.642 268.38 300.314 306.656C275.987 344.933 287.335 395.864 325.611 420.191ZM314.141 315.445C326.677 295.722 348.032 284.928 369.835 284.928C381.915 284.928 394.132 288.243 405.06 295.188C419.909 304.626 430.193 319.28 434.018 336.452C437.844 353.623 434.755 371.258 425.317 386.107C415.88 400.955 401.226 411.239 384.053 415.065C366.884 418.891 349.248 415.801 334.397 406.364C303.747 386.883 294.66 346.097 314.141 315.445Z" fill="#6F6F6F"></path><path d="M470.942 394.28C471.825 394.59 472.727 394.736 473.618 394.736C477.013 394.736 480.19 392.606 481.355 389.22C482.838 384.942 480.573 380.272 476.294 378.797C472.016 377.314 467.355 379.589 465.872 383.867C464.398 388.136 466.664 392.806 470.942 394.28Z" fill="#6F6F6F"></path><path d="M458.198 293.792C459.89 293.792 461.584 293.273 463.049 292.199C466.69 289.514 467.472 284.389 464.797 280.739C462.112 277.099 456.987 276.316 453.337 279.001C449.696 281.677 448.913 286.802 451.599 290.452C453.201 292.636 455.686 293.792 458.198 293.792Z" fill="#6F6F6F"></path><path d="M478.334 342.366C478.743 342.366 479.163 342.338 479.581 342.275C484.06 341.583 487.127 337.405 486.435 332.936C485.752 328.457 481.565 325.39 477.096 326.082C472.626 326.764 469.559 330.951 470.242 335.421C470.871 339.471 474.357 342.366 478.334 342.366Z" fill="#6F6F6F"></path><path d="M348.489 450.237C344.065 449.281 339.705 452.103 338.759 456.526C337.813 460.95 340.625 465.301 345.048 466.257C345.632 466.375 346.205 466.439 346.778 466.439C350.555 466.439 353.959 463.808 354.779 459.958C355.725 455.534 352.913 451.183 348.489 450.237Z" fill="#6F6F6F"></path><path d="M397.112 448.69C392.752 449.909 390.213 454.433 391.433 458.793C392.452 462.407 395.738 464.774 399.315 464.774C400.053 464.774 400.79 464.673 401.536 464.473C405.887 463.253 408.436 458.73 407.206 454.37C405.987 450.019 401.472 447.47 397.112 448.69Z" fill="#6F6F6F"></path><path d="M439.494 424.765C436.208 427.869 436.053 433.058 439.157 436.353C440.768 438.055 442.944 438.92 445.119 438.92C447.131 438.92 449.152 438.182 450.735 436.689C454.03 433.586 454.185 428.406 451.081 425.111C447.976 421.816 442.788 421.662 439.494 424.765Z" fill="#6F6F6F"></path><path d="M304.697 428.962C301.212 426.076 296.05 426.55 293.155 430.036C290.27 433.513 290.752 438.683 294.229 441.568C295.759 442.843 297.616 443.462 299.454 443.462C301.811 443.462 304.142 442.451 305.763 440.503C308.656 437.017 308.174 431.856 304.697 428.962Z" fill="#6F6F6F"></path><path d="M414.062 259.277C414.108 259.295 414.153 259.323 414.189 259.341C414.199 259.341 414.199 259.341 414.199 259.341C415.346 259.905 416.566 260.169 417.768 260.169C420.808 260.169 423.73 258.476 425.149 255.554C427.124 251.486 425.432 246.589 421.363 244.604C421.336 244.595 421.307 244.577 421.28 244.568C421.262 244.559 421.254 244.559 421.244 244.55C417.167 242.574 412.27 244.277 410.295 248.345C408.328 252.405 410.011 257.293 414.062 259.277Z" fill="#6F6F6F"></path><path d="M265.131 385.381C260.954 387.111 258.978 391.908 260.709 396.085C262.018 399.235 265.068 401.137 268.281 401.137C269.328 401.137 270.393 400.937 271.421 400.509C275.59 398.771 277.574 393.983 275.845 389.805C274.106 385.618 269.309 383.643 265.131 385.381Z" fill="#6F6F6F"></path><path d="M259.54 349.13C259.785 349.158 260.031 349.167 260.277 349.167C264.473 349.167 268.05 345.963 268.433 341.703C268.833 337.197 265.502 333.22 260.996 332.81C256.49 332.409 252.514 335.741 252.112 340.247C251.703 344.752 255.034 348.73 259.54 349.13Z" fill="#6F6F6F"></path><path d="M366.23 249.135C366.321 249.135 366.412 249.135 366.503 249.125C371.026 248.98 374.576 245.193 374.422 240.669C374.276 236.155 370.498 232.605 365.975 232.75C361.451 232.896 357.901 236.683 358.056 241.206C358.192 245.639 361.833 249.135 366.23 249.135Z" fill="#6F6F6F"></path><path d="M339.517 398.312C348.662 404.123 359.039 407.12 369.617 407.12C373.727 407.12 377.867 406.668 381.976 405.752C396.66 402.481 409.19 393.686 417.26 380.99C425.33 368.293 427.973 353.214 424.702 338.53C421.429 323.847 412.636 311.316 399.94 303.246C399.939 303.246 399.939 303.246 399.939 303.246C373.729 286.586 338.852 294.36 322.195 320.569C305.537 346.777 313.308 381.654 339.517 398.312ZM336.022 329.356C343.624 317.397 356.572 310.852 369.792 310.852C377.117 310.852 384.526 312.862 391.15 317.073C400.154 322.794 406.39 331.68 408.71 342.093C411.03 352.506 409.156 363.198 403.433 372.201C397.711 381.204 388.826 387.44 378.414 389.76C368.002 392.08 357.309 390.206 348.306 384.484C329.72 372.671 324.21 347.941 336.022 329.356Z" fill="#6F6F6F"></path><path d="M216.705 303.382C222.363 303.382 227.683 301.179 231.683 297.177C235.685 293.176 237.887 287.858 237.887 282.2C237.887 276.542 235.683 271.222 231.683 267.222C227.682 263.221 222.363 261.018 216.705 261.018C211.047 261.018 205.727 263.221 201.728 267.222C197.727 271.222 195.524 276.542 195.524 282.2C195.524 287.858 197.727 293.177 201.728 297.177C205.728 301.179 211.047 303.382 216.705 303.382ZM213.314 278.807C214.22 277.901 215.424 277.403 216.706 277.403C217.987 277.403 219.192 277.901 220.099 278.808C221.005 279.715 221.504 280.919 221.504 282.2C221.504 283.482 221.005 284.686 220.099 285.593C219.193 286.499 217.988 286.998 216.706 286.998C215.425 286.998 214.221 286.499 213.314 285.593C212.407 284.686 211.909 283.482 211.909 282.2C211.909 280.919 212.406 279.714 213.314 278.807Z" fill="#6F6F6F"></path><path d="M301.153 218.938C306.811 218.938 312.13 216.735 316.131 212.734C320.132 208.733 322.334 203.414 322.334 197.756C322.334 192.098 320.13 186.779 316.131 182.778C312.129 178.778 306.811 176.574 301.153 176.574C295.494 176.574 290.174 178.778 286.175 182.778C282.174 186.779 279.972 192.098 279.972 197.756C279.972 203.414 282.174 208.734 286.175 212.734C290.175 216.735 295.495 218.938 301.153 218.938ZM297.761 194.364C298.667 193.458 299.871 192.959 301.154 192.959C302.434 192.959 303.639 193.458 304.546 194.365C305.453 195.271 305.951 196.476 305.951 197.757C305.951 199.039 305.453 200.243 304.546 201.15C303.64 202.055 302.435 202.555 301.154 202.555C299.872 202.555 298.668 202.056 297.761 201.15C296.855 200.243 296.356 199.039 296.356 197.757C296.356 196.476 296.855 195.27 297.761 194.364Z" fill="#6F6F6F"></path><circle cx="345" cy="345" r="338" stroke="#6F6F6F" stroke-width="14"></circle></svg> 