<?xml version="1.0" encoding="UTF-8"?> <svg xmlns="http://www.w3.org/2000/svg" width="688" height="817" viewBox="0 0 688 817" fill="none"><circle cx="279.5" cy="408.5" r="401.5" stroke="#EEEEEE" stroke-width="14"></circle><path d="M439.719 210.92H370.745L375.398 232.452C375.971 235.125 375.943 237.809 375.643 240.45H424.952V588.488H151.887V240.45H201.21C200.91 237.795 200.896 235.111 201.467 232.424L206.122 210.92H137.136C128.983 210.92 122.385 217.532 122.385 225.684V603.252C122.385 611.391 128.983 618.016 137.136 618.016H439.719C447.872 618.016 454.483 611.389 454.483 603.252V225.684C454.484 217.532 447.872 210.92 439.719 210.92Z" fill="#EEEEEE"></path><path d="M390.195 317.635H289.348C281.181 317.635 274.584 324.247 274.584 332.386C274.584 340.543 281.182 347.151 289.348 347.151H390.195C398.362 347.151 404.958 340.543 404.958 332.386C404.96 324.247 398.362 317.635 390.195 317.635Z" fill="#EEEEEE"></path><path d="M390.195 408.186H289.348C281.181 408.186 274.584 414.797 274.584 422.949C274.584 431.093 281.182 437.716 289.348 437.716H390.195C398.362 437.716 404.958 431.09 404.958 422.949C404.96 414.797 398.362 408.186 390.195 408.186Z" fill="#EEEEEE"></path><path d="M177.135 321.104C170.907 326.358 170.106 335.672 175.361 341.91L196.896 367.431C199.71 370.77 203.836 372.671 208.176 372.671C208.536 372.671 208.891 372.657 209.263 372.629C213.974 372.287 218.244 369.688 220.73 365.66L259.471 302.94C263.755 296 261.615 286.916 254.675 282.635C247.735 278.323 238.652 280.491 234.366 287.432L206.321 332.816L197.925 322.875C192.668 316.637 183.373 315.836 177.135 321.104Z" fill="#EEEEEE"></path><path d="M212.49 400.819C200.254 400.819 190.341 410.729 190.341 422.952C190.341 435.178 200.253 445.087 212.49 445.087C224.716 445.087 234.625 435.178 234.625 422.952C234.625 410.728 224.716 400.819 212.49 400.819Z" fill="#EEEEEE"></path><path d="M390.195 496.75H289.348C281.181 496.75 274.584 503.348 274.584 511.517C274.584 519.657 281.182 526.268 289.348 526.268H390.195C398.362 526.268 404.958 519.657 404.958 511.517C404.96 503.347 398.362 496.75 390.195 496.75Z" fill="#EEEEEE"></path><path d="M212.49 489.383C200.254 489.383 190.341 499.293 190.341 511.519C190.341 523.741 200.253 533.655 212.49 533.655C224.716 533.655 234.625 523.744 234.625 511.519C234.625 499.293 224.716 489.383 212.49 489.383Z" fill="#EEEEEE"></path><path d="M225.799 247.82H351.038C354.108 247.82 357.008 246.447 358.933 244.05C360.862 241.677 361.606 238.539 360.945 235.537L350.58 187.558C349.567 182.889 345.442 179.561 340.67 179.561H236.181C231.413 179.561 227.287 182.89 226.271 187.558L215.89 235.537C215.262 238.538 216.003 241.677 217.918 244.05C219.846 246.448 222.745 247.82 225.799 247.82Z" fill="#EEEEEE"></path></svg> 