<?xml version="1.0" encoding="UTF-8"?> <svg xmlns="http://www.w3.org/2000/svg" width="791" height="844" viewBox="0 0 791 844" fill="none"><circle cx="424.5" cy="425" r="417.5" stroke="#EEEEEE" stroke-width="14"></circle><path d="M539.457 355.062H553.893C567.4 355.062 578.388 344.056 578.388 330.526V267.993C578.388 254.463 567.4 243.457 553.893 243.457H539.457C525.949 243.457 514.96 254.463 514.96 267.993V290.516H454C450.106 275.26 436.268 263.945 419.84 263.945C403.411 263.945 389.572 275.26 385.678 290.516H324.714V267.993C324.714 254.463 313.726 243.457 300.221 243.457H285.784C272.277 243.457 261.287 254.463 261.287 267.993V330.526C261.287 344.056 272.277 355.062 285.785 355.062H300.221C313.726 355.062 324.714 344.056 324.714 330.526V308.003H385.678C388.859 320.462 398.671 330.29 411.111 333.476V496.697C399.886 500.383 391.754 510.97 391.754 523.431V542.358H324.714V519.834C324.714 506.305 313.726 495.299 300.221 495.299H285.784C272.276 495.299 261.286 506.305 261.286 519.834V582.368C261.286 595.897 272.276 606.904 285.784 606.904H300.22C313.725 606.904 324.713 595.897 324.713 582.368V559.844H391.753V578.773C391.753 594.284 404.353 606.903 419.839 606.903C435.324 606.903 447.922 594.284 447.922 578.773V559.844H514.959V582.368C514.959 595.897 525.948 606.904 539.456 606.904H553.892C567.399 606.904 578.387 595.897 578.387 582.368V519.834C578.387 506.305 567.399 495.299 553.892 495.299H539.456C525.948 495.299 514.959 506.305 514.959 519.834V542.358H447.922V523.431C447.922 510.972 439.791 500.386 428.568 496.699V333.477C441.007 330.291 450.819 320.462 453.999 308.004H514.959V330.527C514.96 344.056 525.949 355.062 539.457 355.062ZM307.256 330.526C307.256 334.412 304.101 337.575 300.221 337.575H285.784C281.903 337.575 278.744 334.412 278.744 330.526V267.993C278.744 264.107 281.902 260.944 285.784 260.944H300.22C304.1 260.944 307.255 264.107 307.255 267.993L307.256 330.526ZM307.256 582.37C307.256 586.256 304.101 589.418 300.221 589.418H285.784C281.903 589.418 278.744 586.256 278.744 582.37V519.836C278.744 515.95 281.902 512.788 285.784 512.788H300.22C304.1 512.788 307.255 515.95 307.255 519.836L307.256 582.37ZM532.418 519.835C532.418 515.949 535.575 512.787 539.457 512.787H553.893C557.772 512.787 560.93 515.949 560.93 519.835V582.369C560.93 586.255 557.773 589.417 553.893 589.417H539.457C535.576 589.417 532.418 586.255 532.418 582.369V519.835ZM430.464 578.775C430.464 584.643 425.698 589.417 419.84 589.417C413.981 589.417 409.212 584.643 409.212 578.775V523.431C409.212 517.562 413.98 512.787 419.84 512.787C425.698 512.787 430.464 517.562 430.464 523.431V578.775ZM420.458 317.055C420.253 317.041 420.049 317.024 419.84 317.024C419.632 317.024 419.427 317.041 419.222 317.055C409.695 316.725 402.041 308.881 402.041 299.26C402.041 289.43 410.026 281.433 419.841 281.433C429.654 281.433 437.638 289.429 437.638 299.26C437.637 308.881 429.983 316.725 420.458 317.055ZM532.418 267.993C532.418 264.107 535.575 260.944 539.457 260.944H553.893C557.772 260.944 560.93 264.107 560.93 267.993V330.526C560.93 334.412 557.773 337.575 553.893 337.575H539.457C535.576 337.575 532.418 334.412 532.418 330.526V267.993Z" fill="#EEEEEE"></path></svg> 